<svg width="115" height="69" viewBox="0 0 115 69" fill="none" xmlns="http://www.w3.org/2000/svg">
<path d="M114.584 2.57096C114.525 2.5289 114.455 2.50304 114.383 2.49588H114.328L20.8997 0H20.8513L0.804508 1.92366L0.788358 2.71098L0.75 63.2087C0.749871 63.313 0.789627 63.4132 0.861035 63.4888C0.932442 63.5643 1.03003 63.6094 1.13357 63.6146L106.021 68.9919H106.043C106.146 68.9915 106.245 68.9516 106.319 68.8803L114.566 60.8549C114.605 60.817 114.636 60.7716 114.657 60.7214C114.679 60.6712 114.689 60.6172 114.689 60.5627L114.746 2.89563C114.746 2.83263 114.731 2.77049 114.703 2.71414C114.675 2.65778 114.635 2.60876 114.584 2.57096ZM21.2934 0.821815L111.942 3.24668L105.982 5.14395L21.2934 2.78403V0.821815ZM20.4859 0.852253V2.7617L5.14292 2.33355L20.4859 0.852253ZM105.639 68.166L1.55752 62.8232V3.04376L105.639 5.93736V68.166ZM113.886 60.3943L106.447 67.6344V5.84199L113.94 3.44959L113.886 60.3943Z" fill="black"/>
</svg>
