<svg width="104" height="102" viewBox="0 0 104 102" fill="none" xmlns="http://www.w3.org/2000/svg">
<path d="M102.837 46.8669C102.815 46.4089 102.784 45.7142 95.7461 45.1512C91.4556 44.8072 85.7468 44.6173 79.6733 44.6173C77.367 44.6173 75.1994 44.6419 73.2487 44.6911C72.7767 41.5078 72.1414 38.0832 71.3607 34.5135L71.2667 34.0823L71.1146 34.1136C70.7187 33.7048 69.4995 33.2089 65.7458 32.7733C62.5156 32.4047 58.1758 32.1768 53.496 32.1299V31.7881L53.4782 31.2319V30.6377L53.4647 30.0636L53.42 28.9332L53.4066 28.3681L53.335 27.2511L53.3216 26.6949C53.3227 26.683 53.3227 26.671 53.3216 26.6592L53.2656 26.1074L53.1941 24.9904L52.9838 22.7811L52.8585 21.6642L52.7825 21.1303L52.7153 20.5629L52.6393 20.0201L52.5744 19.4661L52.0599 16.1286L51.9525 15.5992L51.8608 15.0452L51.2188 11.6944L51.0935 11.1694L50.9973 10.6266C50.9984 10.6192 50.9984 10.6117 50.9973 10.6042L50.6215 8.91543L50.2323 7.23778L50.107 6.6525L49.4024 3.77526L49.2502 3.23243L49.1071 2.64268C49.0854 2.55556 49.0369 2.47743 48.9684 2.41929C48.8386 1.94124 47.9796 1.2398 42.2954 0.658995C38.2219 0.223388 32.8262 0 27.0973 0C21.3684 0 15.9616 0.223388 11.8947 0.645592C5.82797 1.26438 5.25754 2.02166 5.20385 2.49971C5.17639 2.54045 5.15667 2.58588 5.14569 2.63375L5.00029 3.20339L4.83251 3.78196L4.40301 5.52216L4.28221 6.07393L4.13681 6.6525L4.01601 7.21544L3.86837 7.80295L3.50821 9.47613L3.37623 10.0301L3.25096 10.6132L3.15029 11.1538L3.02502 11.7122L2.37853 15.0497L2.29129 15.5836L2.1772 16.1487L2.00272 17.2322L1.84165 18.3357L1.7477 18.9009L1.32491 22.2137L1.05647 24.9904L1.02515 25.5489L0.933433 26.686L0.9133 27.2333L0.848428 28.3703L0.770133 30.6489V31.2163L0.75 31.8038V33.5552L0.821584 35.932L0.879746 37.1026L0.893168 37.7236L0.933433 38.3379L1.23319 42.0551L1.52176 44.595L2.0922 48.5579L2.20852 49.2281L2.43222 50.6086L2.53959 51.2743L2.66039 51.9914L2.88409 53.0167L3.07424 54.089V54.1225L3.16819 54.4688L3.23306 54.8172L3.30688 55.1568L3.37176 55.5276C3.37071 55.535 3.37071 55.5425 3.37176 55.55L3.53058 56.2514L3.60664 56.6401L3.7856 57.3572L3.846 57.7079V57.7369L4.57749 60.7616L4.68263 61.1369L4.85936 61.9031L5.0674 62.6894L5.26649 63.4802L5.59533 64.6374L5.69375 65.0618L5.91745 65.8415L6.01588 66.248V66.2815L6.14115 66.6702L6.25524 67.0924L6.3738 67.4811L6.48118 67.9056L6.72501 68.7075L6.83462 69.1364V69.1565L7.33794 70.8543L7.47664 71.2564L7.59743 71.6898L9.26176 76.9885L9.41835 77.4152L9.68902 78.3087C9.68805 78.3184 9.68805 78.3281 9.68902 78.3378L10.0112 79.2313L10.161 79.7161L10.3199 80.1629L11.1185 82.5487L11.2929 83.0111L11.4518 83.4869L11.9618 84.93L12.1296 85.4348L12.492 86.4088L13.1989 88.4305L13.4002 88.9353C13.4241 88.9957 13.4609 89.0502 13.508 89.095C13.5552 89.1397 13.6115 89.1737 13.6731 89.1945C16.8183 91.5646 21.7867 92.6212 26.7506 92.6212C31.1082 92.6212 35.4614 91.8059 38.5664 90.3539C39.8938 92.0145 41.3127 93.6 42.8167 95.1031C44.0358 96.325 49.4717 96.4121 51.0018 96.4121H51.2009C54.6302 96.392 58.7418 95.9855 60.0012 94.8976C61.0347 94.004 62.0347 93.0568 62.9764 92.0717C65.0412 95.0316 67.6584 97.8798 70.9603 100.784C71.8416 101.559 75.6579 101.999 79.5279 101.999C81.3515 102.011 83.1737 101.899 84.9817 101.662C86.5834 101.438 87.8495 101.083 88.4312 100.598C101.963 89.3151 105.73 75.2506 102.837 46.8669ZM73.3784 45.5712C75.3023 45.5243 77.4162 45.4997 79.6733 45.4997C92.0506 45.4997 99.9137 46.257 101.672 46.8825L101.589 46.9115L101.495 46.9406L101.271 47.0009L101.137 47.0322C101.057 47.0523 100.972 47.0724 100.88 47.0902H100.838L100.596 47.1372H100.576L100.314 47.1841L99.8219 47.2645L99.4707 47.3159H99.4528L99.0748 47.3672L98.8645 47.3941L98.6408 47.4209L98.1934 47.4745L97.9093 47.5057L97.4261 47.5571L96.9183 47.6063L96.6946 47.6264L96.368 47.6554L96.0325 47.6845H95.9296L95.0348 47.7559L94.8759 47.7671H94.7932L94.4107 47.7962L93.9297 47.8274L93.5203 47.8542C93.0729 47.8833 92.6009 47.9101 92.1177 47.9347H91.9455L91.1849 47.9749C90.346 48.0128 89.4647 48.0508 88.5385 48.0821L88.0732 48.0977L87.7265 48.1089L86.6729 48.1379L86.136 48.1513L85.6327 48.1625H85.1249L83.559 48.1871C83.3815 48.1871 83.2026 48.1871 83.0221 48.1871H82.3644H82.1407H81.5345H81.3846C81.0469 48.1871 80.7135 48.1871 80.3601 48.1871H79.6711C77.5616 48.1871 75.4208 48.1625 73.3337 48.1156L72.4389 48.0933L71.1593 48.0553L70.3428 48.0285H70.2086L69.6382 48.0084L69.108 47.986L68.683 47.9682H68.5779L67.9068 47.9369H67.8598L66.9381 47.8877L66.4907 47.8632H66.3342C65.842 47.8349 65.3715 47.8051 64.9226 47.7738H64.7951L64.3253 47.8051C63.8779 47.7716 63.444 47.7381 63.0391 47.7023L62.623 47.6644L61.8512 47.5906L61.4732 47.5504L61.1063 47.5102L60.7573 47.4678L60.5336 47.441L60.3256 47.4142L60.1243 47.3874C59.6485 47.3218 59.2362 47.257 58.8872 47.193C58.8022 47.1796 58.7217 47.164 58.6456 47.1483L58.4219 47.1014L58.3168 47.0791L58.1222 47.0322L58.0416 47.0121L57.9656 46.992L57.8716 46.9651L57.7352 46.9249L57.668 46.9004L57.7956 46.8579L57.9141 46.8244C57.9544 46.811 57.9991 46.7998 58.0461 46.7887C58.1512 46.7596 58.2698 46.7328 58.3973 46.706L58.621 46.6591L58.8626 46.6122L59.1512 46.5608L59.263 46.5429L59.5382 46.4983L59.7127 46.4737L60.0818 46.4223C60.2383 46.4 60.4016 46.3776 60.5717 46.3575L60.9542 46.3106C61.151 46.286 61.3568 46.2637 61.5716 46.2414L61.7953 46.219L62.019 46.1967C62.4321 46.155 62.8795 46.114 63.3612 46.0738L63.7571 46.0426L64.5893 45.98C64.7802 45.9651 64.9748 45.9517 65.1731 45.9398L65.7839 45.8996L66.4214 45.8616C67.5019 45.7991 68.6875 45.741 69.9872 45.6941L70.3786 45.6784L71.817 45.6315L72.8774 45.6025L73.3784 45.5712ZM71.3361 34.4018L71.3562 34.4822L71.3003 34.4956C71.3035 34.4682 71.3035 34.4404 71.3003 34.413L71.3361 34.4018ZM53.0397 33.0056C63.4865 33.086 69.3049 33.9684 70.3093 34.6006C70.2271 34.6493 70.1411 34.6912 70.052 34.7257L69.9805 34.7547L69.7858 34.8218C69.7187 34.8441 69.6449 34.8642 69.5621 34.8865L69.3205 34.9491L69.1639 34.9871L68.9581 35.034L68.7344 35.0809H68.6942L68.4011 35.1367L68.2222 35.1702C68.1014 35.1926 67.9761 35.2149 67.8464 35.235L67.4504 35.2976C67.3073 35.3199 67.1618 35.3423 67.003 35.3624L66.7793 35.3936L66.5444 35.4249L66.3051 35.4562C65.9964 35.4964 65.6698 35.5344 65.3275 35.5723L64.7548 35.6327L64.1553 35.6907L63.6229 35.7377L62.8691 35.8002C62.6632 35.8181 62.453 35.8337 62.2382 35.8471C61.758 35.8829 61.2577 35.9156 60.7372 35.9454L60.3591 35.9677L59.9721 35.9879C59.8424 35.9879 59.7127 36.0035 59.5807 36.008L59.3682 36.0191L58.6121 36.0526L58.2251 36.0683L57.4376 36.0973L56.6547 36.1241H56.2073L55.7599 36.1353L54.8427 36.1554L54.0173 36.1688H52.9323C52.4648 36.1688 51.995 36.1688 51.5186 36.1688H50.2547C49.0079 36.1599 47.8223 36.1405 46.6978 36.1107C46.3153 36.1107 45.9373 36.0906 45.5681 36.0772C45.0343 36.0593 44.5123 36.0392 44.0023 36.0169H43.8032L43.3826 35.9968H43.2976L42.5616 35.9566L42.1344 35.9655L41.3939 35.9208L40.6423 35.8695L40.1054 35.827L39.5842 35.7868L39.1368 35.7466L38.2912 35.6662L37.9847 35.6349L37.3964 35.5701L37.2801 35.5567L37.0139 35.5254L36.7544 35.4942L36.3652 35.4428L35.7075 35.349L35.5017 35.3177L35.3026 35.2864L34.9447 35.2261L34.7456 35.1903C34.551 35.1546 34.3675 35.1189 34.1975 35.0809C34.1013 35.0608 34.0096 35.0407 33.9224 35.0183L33.7792 34.9848L33.6427 34.9491L33.4593 34.8999L33.2848 34.8463C33.211 34.824 33.1439 34.8017 33.0835 34.7771C33.0231 34.7525 33.0097 34.7503 32.9761 34.7346C32.8938 34.7057 32.8144 34.6691 32.739 34.6252C33.8575 33.9193 40.611 33.019 51.5297 33.019C52.0196 33.0078 52.5364 33.0079 53.0397 33.0213V33.0056ZM27.0973 0.893553C39.3448 0.893553 46.8656 1.87646 48.0042 2.63822C46.8634 3.38657 39.1793 4.38958 27.0973 4.38958C15.0153 4.38958 7.32228 3.38657 6.18142 2.63822C7.32005 1.87646 14.8431 0.893553 27.0973 0.893553ZM14.1831 88.4617L12.9908 85.1556L12.8298 84.6507L12.483 83.6924L12.1587 82.7251L11.9842 82.265L11.19 79.8881L11.0335 79.4413L10.8836 78.9566L10.557 78.0452L10.2796 77.1248L10.123 76.6981L9.1253 73.5886L9.00003 73.1418L8.57947 71.8595L8.33564 71.0017C8.33564 71.0017 8.33564 70.9861 8.33564 70.9771L8.19919 70.5773L7.82784 69.304L7.70034 68.8996L7.58849 68.464L7.34689 67.6665L7.23728 67.2399L7.11872 66.8445L7.00239 66.4178L6.87712 66.0246L6.78988 65.6181L6.56618 64.8362L6.46775 64.4207C6.46671 64.4133 6.46671 64.4058 6.46775 64.3984L6.14115 63.2502L6.04272 62.8503L5.83468 62.0729L5.55953 60.9157L5.44768 60.5382L4.73185 57.5403L4.66921 57.1874C4.67047 57.1755 4.67047 57.1635 4.66921 57.1516L4.57302 56.7831L4.25984 55.369L4.19721 54.9982C4.19721 54.9982 4.19721 54.9826 4.19721 54.9758L4.12338 54.6408L4.04733 54.2833C4.04733 54.2722 4.04733 54.261 4.04733 54.2498L3.95561 53.9036L3.83481 53.2178L3.54177 51.8261L3.43439 51.1157L3.30688 50.4679L2.76329 47.0902L2.67605 46.4201L2.57986 45.7723L2.13246 41.9568L1.92442 39.4705L1.79691 37.6834L1.78349 37.0668L1.75217 36.4681L1.6448 33.5395V31.8172L1.66493 31.2319V30.6645L1.71638 28.9645L1.8081 27.2735L1.82599 26.7351L1.91771 25.6182L1.94903 25.0642L2.05864 23.9606L2.15483 22.8705L2.63355 19.026L3.05858 16.3073L3.17043 15.7466L3.25991 15.2038L3.89969 11.8954L4.02719 11.3325L4.12786 10.7874L4.24866 10.2267L4.38064 9.67271L4.7408 8.00177L4.8862 7.42096L5.01371 6.86025L5.15911 6.27721L5.27991 5.72544L5.70494 4.02099L5.86153 3.48039C6.63105 3.85792 8.29538 4.27342 11.9014 4.64424C15.9772 5.06198 21.3773 5.29207 27.113 5.29207C32.8486 5.29207 38.2331 5.06868 42.3088 4.64424C45.9932 4.26448 47.6486 3.83781 48.3935 3.45135L48.5456 3.99418L48.9729 5.72097L49.1048 6.29285L49.2435 6.84908L50.1383 10.7852L50.2345 11.3303C50.2334 11.3392 50.2334 11.3482 50.2345 11.3571L50.3598 11.882L50.5678 12.999L50.8967 14.6342L51.089 15.7511L51.1942 16.2761L51.617 19.0036L51.7601 20.1072L51.8362 20.6478L51.9011 21.2152L51.9794 21.7491L52.2635 24.4901L52.3082 25.0351L52.3798 26.1521L52.438 26.7061L52.4514 27.2668L52.5207 28.3837L52.5341 28.9444L52.561 29.5096L52.5923 30.6265V31.2252L52.6124 31.7814V32.0987C52.2523 32.0987 51.8877 32.0987 51.5342 32.0987C46.3533 32.0987 41.4812 32.322 37.8147 32.704C34.3273 33.0749 32.8464 33.5015 32.2223 33.8813C32.1242 33.937 32.034 34.0053 31.9538 34.0846L31.8822 34.4018L31.8285 34.6431V34.6766C31.8174 34.719 31.8084 34.7614 31.7995 34.8039C28.8175 48.0665 27.9451 58.8762 29.133 67.8497C30.2515 76.2178 33.0745 83.1518 38.0407 89.6211C31.5735 92.5475 19.6235 92.6034 14.1831 88.4617ZM59.4308 94.2363C58.5606 94.9892 55.2566 95.5096 51.2121 95.532C46.8835 95.5543 43.9888 95.0093 43.4676 94.4865C41.909 92.9291 40.4428 91.2822 39.0764 89.5541L39.0607 89.534L39.0361 89.505C28.9518 76.6356 26.9966 60.4645 32.5489 35.4875L32.7144 35.5567L32.8397 35.6036L32.9627 35.6483L33.0477 35.6751C33.1439 35.7086 33.2468 35.7399 33.3542 35.7712H33.3743L33.7479 35.8672L33.9559 35.9186C34.07 35.9454 34.1796 35.97 34.3116 35.9945C34.4436 36.0191 34.5353 36.0415 34.6382 36.0616L34.882 36.1062L35.3921 36.1934L35.8976 36.2715H35.9401L36.4949 36.3453L36.7857 36.3832L37.0832 36.419L37.3852 36.4547L37.7812 36.4972L38.3225 36.553L38.7811 36.5955L39.4097 36.6513L40.3045 36.7206L40.6445 36.7451C40.8682 36.7608 41.1031 36.7786 41.3358 36.792L42.0315 36.8345L42.7272 36.8747L44.1409 36.9417L44.4922 36.9574L45.2304 36.9886L45.8388 37.0087H45.9619H46.3444L46.7247 37.0199L47.4741 37.04H47.5859L48.0736 37.0512H48.0937H48.5411H48.568L49.21 37.0623H49.5209H49.9929H51.5342C52.0152 37.0623 52.4916 37.0623 52.9659 37.0623C57.8381 37.0244 62.3613 36.7943 65.7167 36.4123L66.1194 36.3654L66.4013 36.3319L66.9516 36.2581L67.3341 36.2045H67.39L67.7971 36.1398C68.1237 36.0861 68.422 36.0325 68.6919 35.9789L68.8508 35.9454L69.0745 35.8963C69.2982 35.8493 69.4883 35.8002 69.6673 35.7511L69.7814 35.7175L69.9469 35.6684C70.1191 35.6148 70.269 35.5634 70.3943 35.512L70.5151 35.4607L70.5844 35.4294C70.6074 35.4203 70.6298 35.4099 70.6516 35.3981C71.3473 38.6439 71.9177 41.758 72.3539 44.6709L71.5821 44.6933L70.6158 44.7246L70.3138 44.7357C69.6717 44.7581 69.0432 44.7849 68.4347 44.8117L67.6987 44.8474L66.4952 44.91L65.9404 44.9435C65.2574 44.9852 64.6064 45.0299 63.9875 45.0775L63.6811 45.1021H63.5827L63.1912 45.1334C62.5603 45.1892 61.9675 45.2451 61.4016 45.3054L60.8804 45.3635L60.3659 45.426L60.0818 45.464C59.7306 45.5109 59.4107 45.5578 59.1288 45.6047L58.8581 45.6516L58.6053 45.6985L58.5047 45.7186L58.4085 45.7387C58.2228 45.7767 58.055 45.8147 57.9029 45.8549L57.8134 45.8795C57.5841 45.9358 57.3597 46.0105 57.1423 46.1029L57.0216 46.1587C56.9843 46.1761 56.9484 46.1963 56.9142 46.219C56.8568 46.2497 56.8028 46.2864 56.7531 46.3285L56.7196 46.3553C56.6379 46.4252 56.5762 46.5153 56.5406 46.6167C56.5396 46.6293 56.5396 46.642 56.5406 46.6546C56.5358 46.6708 56.5321 46.6872 56.5294 46.7038V46.7507C56.5282 46.7648 56.5282 46.779 56.5294 46.7931C56.4817 47.2399 56.4362 47.6792 56.393 48.1111C56.3616 48.4328 56.3303 48.7545 56.3012 49.0717C56.2789 49.2951 56.261 49.4961 56.2408 49.7061C56.2408 49.791 56.2252 49.8737 56.2185 49.9585C56.2028 50.1172 56.1894 50.2735 56.176 50.4321C56.0999 51.2706 56.0321 52.0941 55.9724 52.9028C55.9321 53.43 55.8949 53.9512 55.8606 54.4665C55.8225 55.0272 55.7867 55.5835 55.7576 56.1263L55.7174 56.8657C55.7017 57.1606 55.6861 57.4532 55.6749 57.7436C55.6637 58.034 55.6503 58.2753 55.6413 58.5367C55.6279 58.836 55.619 59.1309 55.6078 59.4302C55.6078 59.457 55.6078 59.4861 55.6078 59.5151C55.5966 59.8368 55.5876 60.1562 55.5809 60.4712C55.5809 60.7527 55.5675 61.0297 55.563 61.3067C55.5436 62.3745 55.5436 63.4169 55.563 64.4341C55.563 64.6061 55.563 64.7781 55.563 64.9501C55.563 65.35 55.5765 65.7476 55.5899 66.1386C55.5899 66.2994 55.5899 66.458 55.6055 66.6166C55.6055 66.7194 55.6055 66.8221 55.6167 66.9227C55.6167 67.1192 55.6324 67.3158 55.6413 67.5102C55.6503 67.7045 55.6592 67.8989 55.6704 68.091C55.6816 68.3278 55.6973 68.5646 55.7107 68.7969C55.7107 68.9734 55.7308 69.1476 55.7442 69.3218C55.7576 69.4961 55.7688 69.6614 55.7823 69.8312C55.8359 70.5624 55.9008 71.2772 55.9769 71.9757C56.0015 72.1991 56.0261 72.4225 56.0529 72.6347C56.1842 73.7784 56.346 74.8835 56.5384 75.9498C56.5853 76.2067 56.6323 76.4591 56.6793 76.7115C56.6803 76.7301 56.6803 76.7488 56.6793 76.7674C56.7106 76.9193 56.7397 77.0712 56.771 77.2141C56.7911 77.3214 56.8135 77.4375 56.8381 77.5336C56.8627 77.6296 56.8873 77.757 56.9142 77.8866C56.941 78.0161 56.9656 78.1099 56.9925 78.235C57.0327 78.4182 57.0752 78.5992 57.1177 78.7779C57.4733 80.2712 57.9102 81.744 58.4264 83.1898C58.4577 83.2769 58.489 83.3663 58.5226 83.4534L58.5807 83.6075L58.6076 83.6835C58.6411 83.7751 58.6747 83.8644 58.7105 83.9538C58.8917 84.4318 59.0818 84.9009 59.2832 85.3656C59.3301 85.4751 59.3771 85.589 59.4263 85.694C59.4755 85.799 59.5404 85.9576 59.603 86.0871C59.6836 86.2681 59.7663 86.4468 59.8513 86.6255L59.905 86.7372C59.9632 86.8601 60.0214 86.9807 60.0818 87.1013C60.2272 87.3984 60.3748 87.6933 60.5292 87.9837C60.6119 88.1401 60.6925 88.2964 60.7775 88.4483C60.8625 88.6003 60.9273 88.7209 61.0012 88.8549C61.1235 89.0753 61.2487 89.2942 61.377 89.5117C61.4888 89.6993 61.6007 89.887 61.7148 90.0724C61.9638 90.4804 62.2203 90.8833 62.4843 91.2809C61.5169 92.316 60.4978 93.3017 59.4308 94.2341V94.2363ZM87.8719 99.9216C85.8922 101.572 72.9445 101.333 71.5687 100.123C68.1528 97.127 65.4863 94.185 63.4171 91.1245C62.9697 90.4633 62.5439 89.7894 62.1398 89.1029C62.0056 88.8795 61.8736 88.6427 61.7438 88.4104C61.6387 88.2227 61.5336 88.0328 61.4329 87.8407C61.3322 87.6486 61.2607 87.5168 61.1779 87.3537C60.9318 86.8802 60.6969 86.3984 60.4732 85.9084C60.3949 85.7409 60.3189 85.5711 60.2495 85.4013C60.1802 85.2316 60.1265 85.1221 60.0683 84.9814C59.8267 84.4207 59.6008 83.8488 59.3972 83.2657C59.3011 83.0066 59.2071 82.7452 59.1176 82.4817C59.0281 82.218 58.9387 81.9522 58.8514 81.6842C58.7642 81.4161 58.6814 81.1458 58.6009 80.8733C58.5203 80.6007 58.4398 80.3259 58.3637 80.0467C58.3347 79.944 58.3056 79.839 58.2787 79.734C58.2519 79.629 58.2228 79.524 58.196 79.419C58.14 79.2068 58.0864 78.9946 58.0349 78.7801C57.9648 78.4942 57.8977 78.206 57.8336 77.9156C57.7888 77.7168 57.7463 77.518 57.7038 77.3169C57.6613 77.1159 57.6144 76.8902 57.5741 76.6758C57.5234 76.4166 57.4742 76.1553 57.4264 75.8917C57.3862 75.6683 57.3482 75.4449 57.3101 75.2215C57.2072 74.605 57.1155 73.9772 57.0305 73.3384C56.988 73.0167 56.9477 72.695 56.9119 72.3689C56.856 71.8841 56.8046 71.3949 56.7598 70.8967C56.7587 70.8901 56.7587 70.8833 56.7598 70.8766C56.7375 70.6354 56.7151 70.3896 56.6972 70.1439C56.6793 69.8982 56.6592 69.6748 56.6435 69.438C56.6435 69.3956 56.6435 69.3531 56.6435 69.3084C56.6122 68.8617 56.5853 68.4149 56.563 67.9681C56.563 67.8162 56.5451 67.6643 56.5406 67.5102L56.5205 67.05C56.5011 66.5868 56.4862 66.1177 56.4757 65.6426C56.4757 65.3902 56.4645 65.1356 56.4601 64.8764C56.4556 64.6173 56.4601 64.3626 56.4601 64.1013C56.4601 63.621 56.4601 63.1318 56.4601 62.6381C56.4601 62.1444 56.4601 61.6105 56.4802 61.0855C56.4802 60.9113 56.4802 60.7348 56.4914 60.5583C56.4914 60.3215 56.4981 60.0847 56.5115 59.8479C56.5115 59.6447 56.5115 59.4414 56.5317 59.2359C56.5317 58.912 56.554 58.588 56.5697 58.2597C56.5697 58.0631 56.5786 57.8665 56.5965 57.6699C56.6122 57.3415 56.6278 57.0109 56.6457 56.6781C56.6592 56.4279 56.6726 56.1777 56.6882 55.9253C56.7166 55.4189 56.7486 54.9073 56.7844 54.3906C56.8023 54.1314 56.8202 53.8701 56.8404 53.6087C56.9164 52.5662 57.0037 51.494 57.1021 50.3919C57.1334 50.0256 57.1692 49.657 57.205 49.275C57.205 49.2392 57.205 49.2057 57.205 49.17C57.2318 48.8818 57.2587 48.5936 57.29 48.301C57.29 48.2519 57.29 48.2027 57.3057 48.1536C57.3191 48.0017 57.3347 47.8475 57.3504 47.6934L57.4443 47.7269L57.5562 47.7626L57.7128 47.8096L57.885 47.8587L57.9767 47.881L58.1736 47.928L58.3973 47.9749L58.621 48.0218L58.8693 48.0687L59.0818 48.1067L59.5807 48.1871L59.8446 48.2251L60.2495 48.2787L60.5515 48.3189C60.8647 48.3561 61.2025 48.3941 61.5649 48.4328C64.5088 48.7456 68.6897 48.9756 73.3315 49.0829C75.4342 49.1298 77.5818 49.1544 79.6912 49.1544C85.7736 49.1544 91.4914 48.9645 95.7976 48.6182C97.4469 48.5053 99.0895 48.3092 100.719 48.0307L101.001 47.9749C101.173 47.9391 101.33 47.9034 101.475 47.8676C101.483 47.8653 101.492 47.8653 101.5 47.8676L101.723 47.8073C101.797 47.785 101.869 47.7649 101.934 47.7425C101.999 47.7202 102.021 47.7135 102.061 47.6979C104.739 75.2394 101.003 88.9532 87.8719 99.9216Z" fill="black"/>
</svg>
