<svg width="100" height="68" viewBox="0 0 100 68" fill="none" xmlns="http://www.w3.org/2000/svg">
<path d="M99.8876 5.26577C99.8876 5.21011 99.8876 5.15929 99.8876 5.11331C99.8876 4.46961 99.8876 2.75872 84.9297 1.36C75.5641 0.483986 63.1346 0 49.9476 0C36.7605 0 24.331 0.483986 14.9654 1.36C0.00756502 2.75872 0.0075653 4.46961 0.0075653 5.11331C0.00399561 5.21351 0.0145543 5.31372 0.0389286 5.41096C0.00186399 5.49532 -0.00906325 5.58891 0.0075653 5.67957L0.750634 9.43772L1.54919 13.1717L2.37429 16.908L3.26211 20.6299L4.20301 24.3372L5.18251 28.0325L6.21267 31.7132L7.28143 35.3697L8.40327 39.0286L9.57578 42.6706L10.7989 46.2884L12.0704 49.8941L13.3756 53.4804L14.7362 57.0498C15.0981 58.0178 15.9425 60.2683 16.1693 60.6628C18.8545 65.5801 35.2985 68 50.9126 68C52.3601 68 53.8221 67.9782 55.2552 67.9371C61.1973 67.7628 80.7101 66.7271 83.7789 60.7692C83.8224 60.7256 83.8568 60.6738 83.8802 60.6168L85.2819 57.0643L86.6402 53.4804L87.955 49.8868L89.2168 46.2836L90.44 42.6658L91.6125 39.0214L92.7343 35.3648L93.8031 31.7011L94.8332 28.0179L95.8127 24.3251L96.7512 20.6226L97.6415 16.9008L98.4666 13.1693L99.2651 9.42078L99.9889 5.67957C100.005 5.60741 100.004 5.53261 99.9861 5.46088C99.9685 5.38916 99.9348 5.32241 99.8876 5.26577V5.26577ZM98.3194 9.22477L97.5233 12.9636L96.7006 16.683L95.8152 20.3903L94.8791 24.088L93.902 27.7711L92.8742 31.4421L91.8103 35.089L90.6933 38.7334L89.5256 42.3633L88.3073 45.9786L87.0503 49.5722L85.7403 53.1513L84.3796 56.7207L83.0286 60.1352C83.0081 60.1616 82.9903 60.19 82.9755 60.2199C82.9701 60.2254 82.966 60.232 82.9635 60.2393C81.2433 63.8885 70.3554 66.5311 55.219 66.9764C38.5144 67.4604 19.6579 65.0695 17.0137 60.2006L16.9992 60.1764C16.8786 59.9658 16.2127 58.2525 15.6385 56.7135L14.2779 53.1465L12.9703 49.5674L11.7109 45.9786L10.5046 42.373L9.33452 38.7431L8.21027 35.089L7.13909 31.4591L6.11376 27.7905L5.14873 24.1049L4.2006 20.3976L3.31519 16.6975L2.4925 12.966L1.69636 9.23445L1.14147 6.40071C2.68551 7.14847 6.3333 8.06078 14.9582 8.86904C24.3286 9.74505 36.7533 10.229 49.9403 10.229C63.1274 10.229 75.5665 9.74505 84.9393 8.86904C93.8176 8.03658 97.4243 7.09523 98.8888 6.33295L98.3194 9.22477ZM84.4327 7.94221C75.1371 8.7916 62.8885 9.26107 49.9331 9.26107C36.9776 9.26107 24.7556 8.7916 15.4648 7.94221C1.54919 6.66932 0.989477 5.16897 0.972589 5.12057C0.955701 5.07217 1.54919 3.5573 15.4648 2.28441C24.758 1.43502 37.0018 0.967972 49.9476 0.967972C62.8934 0.967972 75.1443 1.43502 84.4472 2.28441C98.3652 3.5573 98.9225 5.05765 98.9418 5.10605C98.9611 5.15445 98.3508 6.66932 84.4327 7.94221Z" fill="black"/>
</svg>
