<svg width="107" height="92" viewBox="0 0 107 92" fill="none" xmlns="http://www.w3.org/2000/svg">
<path d="M104.879 39.2364V39.276C104.879 39.2562 104.879 39.2364 104.879 39.2144C104.879 39.1925 104.879 39.2035 104.879 39.1991H104.833C104.844 39.179 104.852 39.1576 104.857 39.1353C104.859 39.1237 104.859 39.1118 104.857 39.1002C104.857 39.0892 104.857 39.0782 104.857 39.0672C104.859 39.0372 104.859 39.0071 104.857 38.9771C104.859 38.9493 104.859 38.9214 104.857 38.8936C104.857 38.8769 104.853 38.8605 104.846 38.8452C104.84 38.82 104.833 38.795 104.824 38.7705C104.824 38.7705 104.824 38.7705 104.824 38.7573C104.814 38.7368 104.803 38.717 104.791 38.698C104.775 38.6672 104.755 38.6385 104.732 38.6123L104.692 38.5705C104.565 38.455 104.416 38.3668 104.253 38.3112L104.17 38.2826C104.145 38.2719 104.119 38.263 104.093 38.2562L103.959 38.2167L103.819 38.1793C101.403 37.5661 93.4991 37.1376 84.5937 37.1376C80.3122 37.1376 76.2723 37.2321 72.8647 37.4101C72.7769 25.762 72.1599 13.8942 71.0357 2.11643V2.06588C70.9984 1.49007 70.197 1.22854 69.3385 1.03074C68.1055 0.776821 66.8583 0.597017 65.6038 0.492296C62.3345 0.173622 57.9982 0 53.4005 0C48.8029 0 44.4709 0.173622 41.1973 0.492296C39.9376 0.59629 38.6853 0.776098 37.4472 1.03074C36.7402 1.19338 36.0727 1.39997 35.84 1.78897C35.765 1.85898 35.7168 1.95306 35.7038 2.0549C35.5699 3.18234 35.4469 4.23506 35.3416 5.26141C32.4104 5.1757 29.3212 5.13394 26.1617 5.13394C20.0359 5.13394 14.2636 5.29218 9.91408 5.57349C7.79091 5.71415 6.11566 5.87898 4.94539 6.06139C3.35796 6.30754 2.80466 6.5471 2.76294 7.02621L2.72342 7.21082C-2.95225 39.2892 1.75515 70.1082 3.336 78.7827C4.18131 83.2947 15.1923 84.8771 24.7016 84.8771H25.47C29.5649 84.8353 34.2525 84.743 38.2683 84.2068C40.936 86.3034 46.1111 87.5298 52.2588 87.5298H52.8846C56.7686 87.4704 61.162 87.3232 64.506 86.3012C64.5521 86.288 64.5982 86.2749 64.6399 86.2595C64.7124 86.5957 64.7848 86.9188 64.8595 87.2001C65.6104 90.3407 74.9725 92 83.5771 92H84.0382C96.5532 91.8967 103.14 90.2726 104.157 87.0309C104.938 84.5694 106.969 75.3652 107 62.5326C106.967 54.7204 106.257 46.9259 104.879 39.2364V39.2364ZM84.6113 38.0079C93.2049 38.0079 100.822 38.4013 103.401 38.9705L103.278 38.9969L103.149 39.0232L103.03 39.0452L102.958 39.0584L102.831 39.0804C102.683 39.1068 102.523 39.1309 102.354 39.1551L102.253 39.1705C101.97 39.2101 101.658 39.2496 101.32 39.287H101.247H101.197L101.054 39.3024H101.013L100.907 39.3133L100.778 39.3397H100.749L100.604 39.3529L100.279 39.3837H100.207L99.9257 39.4101L99.7764 39.4232L99.6337 39.4342L99.5195 39.4452H99.4559H99.3373L99.1682 39.4584L99.0299 39.4694H98.9772H98.874L98.0616 39.5265L97.8311 39.5419L97.0275 39.5903H96.9616H96.9067L96.3732 39.6188H96.3029L96.0021 39.6342H95.9341H95.7738L95.3105 39.6496L94.8363 39.665L94.4323 39.6782C93.7604 39.698 93.0666 39.7177 92.3574 39.7331H91.9183L91.0093 39.7507C90.4362 39.7617 89.8544 39.7705 89.2682 39.7771L88.3548 39.7881H86.8947H84.6113C80.7689 39.7881 77.0869 39.7331 73.9208 39.6232L73.62 39.6122H73.4004H73.3258H73.2928L72.4805 39.5683L72.1379 39.5485L71.4924 39.5089C71.2729 39.498 71.0709 39.4826 70.8667 39.4694L70.59 39.4496H70.5308L69.7711 39.3925L69.2924 39.3529L68.8379 39.3111L68.4822 39.276L68.2627 39.2518C68.0014 39.2254 67.7489 39.1969 67.5162 39.1683C67.3735 39.1529 67.2417 39.1353 67.11 39.1177H67.0858L66.9212 39.0958L66.8289 39.0826L66.7389 39.0694L66.6094 39.0496L66.4645 39.0254H66.4008L66.3261 39.0123L66.2449 38.9991L66.19 38.9881L66.0539 38.9617L65.9617 38.9441H65.9441L65.8365 38.9199L65.9441 38.8958C66.0715 38.8694 66.2076 38.843 66.3591 38.8189L66.5391 38.7881L66.6511 38.7705C66.8355 38.7419 67.0309 38.7134 67.2417 38.687L67.4283 38.6628L68.0299 38.5925L68.423 38.5529C68.9543 38.4987 69.5398 38.4474 70.1795 38.3991L70.4473 38.3793L71.0731 38.3375L71.3475 38.32L71.9052 38.2848L72.4805 38.2518C75.9671 38.1112 80.152 38.0079 84.6113 38.0079ZM53.4005 0.8791C62.6638 0.8791 68.6162 1.55381 69.9731 2.10984C69.9094 2.13621 69.8347 2.16259 69.7535 2.18896L69.6986 2.20654C69.6306 2.22852 69.5493 2.2505 69.4659 2.27247L69.2463 2.32522C68.936 2.39701 68.5576 2.47027 68.1112 2.54499L67.7818 2.59774L67.5798 2.62631L67.1956 2.67906L66.7894 2.72961C66.5062 2.76477 66.2098 2.79774 65.898 2.8285L65.4589 2.87246L64.9693 2.91861L64.6904 2.94279L64.1086 2.99114L63.8297 3.01311L63.6607 3.0263L63.1139 3.06366L62.5497 3.10102L62.1413 3.1252L61.1928 3.17795L60.4726 3.21091L60.106 3.2263C59.4853 3.25267 58.8405 3.27538 58.1716 3.29443L57.5898 3.29662H57.3702H56.9552C56.571 3.29662 56.178 3.31201 55.7828 3.3164H55.3261H55.0011C54.48 3.3164 53.948 3.3164 53.4049 3.3164H52.0327H51.5935C50.9985 3.3164 50.4233 3.30102 49.8634 3.29003H49.4484H49.2157L48.6207 3.29662L48.0257 3.27904L47.4438 3.25926L46.3262 3.20652L45.6083 3.17355L44.662 3.1208L44.2536 3.09663L43.5488 3.05048L43.1558 3.02191C42.7913 2.99553 42.4444 2.96696 42.1128 2.93839L41.834 2.91422C41.2631 2.86367 40.7362 2.80872 40.2575 2.75378L40.0731 2.7318H40.0182L39.612 2.68125L39.2278 2.62851L39.0258 2.59994L38.6965 2.54719C38.2486 2.47686 37.8694 2.40361 37.5591 2.32742C37.4889 2.31203 37.4252 2.29445 37.3615 2.27687C37.2979 2.25929 37.2561 2.2505 37.21 2.23511C37.1639 2.21973 37.1046 2.19775 37.0607 2.19775C36.9751 2.17138 36.8961 2.14281 36.8412 2.11643C38.1871 1.55381 44.1306 0.8791 53.4005 0.8791ZM26.1617 6.01304C29.2904 6.01304 32.3423 6.0548 35.2449 6.13832C35.2142 6.4416 35.1813 6.74489 35.1505 7.04818V7.07895C35.1198 7.40861 35.0869 7.73828 35.0561 8.06574C34.639 8.07893 34.213 8.08992 33.7892 8.09871L33.2294 8.11189H32.9286L32.3841 8.12288L30.9393 8.14706H30.7198C30.1797 8.14706 29.6351 8.16025 29.0862 8.16464C28.5373 8.16904 28.0301 8.16464 27.4944 8.17563H26.1551C24.7835 8.17563 23.4662 8.1683 22.203 8.15365H21.3708H20.8065C20.4333 8.15365 20.0666 8.14266 19.7087 8.13387H19.173C18.7756 8.13387 18.387 8.11849 18.0049 8.1075L17.1025 8.08332C16.2111 8.05695 15.3599 8.02765 14.549 7.99541L13.8091 7.96465C13.2185 7.94047 12.652 7.9119 12.1119 7.88333L11.7079 7.86135C11.0273 7.82326 10.3847 7.7837 9.78014 7.74267L9.49032 7.72289L8.68233 7.66355L8.24321 7.62839L7.59989 7.57125L7.10588 7.5251L6.80508 7.47235L6.55258 7.44598C6.22324 7.41081 5.91805 7.37345 5.63921 7.33829L5.26815 7.28994H5.22643C5.09908 7.27235 4.98052 7.25477 4.87074 7.23499C4.76096 7.21521 4.62263 7.19323 4.51505 7.17346L4.40966 7.15368H4.39429C4.31305 7.13829 4.2384 7.12291 4.17473 7.10533C6.44061 6.59325 14.246 6.01304 26.1617 6.01304ZM25.4678 83.9936C13.5654 84.1013 4.82902 81.8904 4.20766 78.6223C2.6334 70.0159 -2.02131 39.5595 3.51165 7.813L3.64558 7.85476L3.79049 7.89651C4.09349 7.97563 4.47553 8.05036 4.94319 8.11629C6.11566 8.3009 7.7975 8.46793 9.91627 8.60859C14.2614 8.89869 20.0337 9.04814 26.1639 9.04814H27.5493C28.2299 9.04814 28.9084 9.04814 29.5759 9.03495C30.8244 9.02176 32.0489 9.00198 33.2491 8.97561L33.8112 8.96242L34.4523 8.94704L34.9705 8.93165C34.9507 9.13385 34.9332 9.33384 34.9156 9.53604C34.8915 9.78438 34.8695 10.0327 34.8497 10.2833C34.8322 10.4635 34.8146 10.6437 34.8036 10.8261C34.7773 11.1096 34.7531 11.3909 34.7312 11.6722C34.696 12.0613 34.6675 12.4481 34.6346 12.8349C34.6126 13.1096 34.5928 13.3821 34.5709 13.6568C34.5467 13.9689 34.5248 14.2832 34.5028 14.5953C34.4567 15.2216 34.4106 15.8458 34.3733 16.4677C34.3513 16.7798 34.3294 17.0919 34.3096 17.4018C34.2899 17.7117 34.2723 18.0237 34.2547 18.3336C34.2372 18.6435 34.2174 18.9512 34.1998 19.2611C34.1823 19.571 34.1625 19.8786 34.1471 20.1863C34.1318 20.494 34.1142 20.8039 34.0988 21.1094C34.0725 21.639 34.0461 22.1643 34.022 22.6896C34.0088 22.9995 33.9934 23.3093 33.9803 23.6192C33.9364 24.6199 33.8983 25.614 33.8661 26.6016L33.8398 27.4807C33.8112 28.3356 33.7893 29.1839 33.7695 30.0279C33.7695 30.2982 33.7563 30.5685 33.7519 30.8366C33.7519 31.2608 33.7344 31.685 33.73 32.1069C33.7183 32.6388 33.7102 33.167 33.7058 33.6915C33.6334 39.4057 33.7058 44.8649 33.8727 49.9197C33.8946 50.4977 33.9122 51.0713 33.9342 51.6383C33.9532 52.2068 33.9751 52.7694 34 53.3262C34.0264 53.8844 34.0483 54.4361 34.0725 54.9855C34.0966 55.5349 34.1274 56.0712 34.1537 56.6052C34.1537 56.8734 34.1779 57.1393 34.191 57.4052C34.2196 57.9327 34.2503 58.4557 34.2789 58.97C34.3096 59.4858 34.3389 59.9949 34.3667 60.4975C34.3821 60.7502 34.3974 61.0007 34.415 61.2513C34.415 61.4381 34.437 61.6227 34.4479 61.8073C34.4743 62.1765 34.4984 62.5428 34.5204 62.9062C34.5336 63.0864 34.5467 63.2666 34.5577 63.4446C34.5753 63.6842 34.5928 63.9194 34.6082 64.1545C34.6565 64.8578 34.7063 65.5464 34.7575 66.2204C34.7948 66.6599 34.8278 67.0995 34.8607 67.539C34.9134 68.1874 34.9683 68.8225 35.0188 69.4379C35.0869 70.2577 35.1571 71.0489 35.2384 71.8071C35.2713 72.1851 35.3064 72.5565 35.3394 72.9169C35.3723 73.2774 35.4118 73.6334 35.4447 73.9785C35.4777 74.3235 35.5128 74.6598 35.5436 74.9894C35.5633 75.1521 35.5809 75.3147 35.594 75.4751C35.6072 75.6356 35.6226 75.7367 35.6358 75.8663C35.6738 76.2048 35.709 76.5322 35.7412 76.8487C35.7873 77.2883 35.8334 77.7036 35.8795 78.1014C35.998 79.1585 36.099 80.0618 36.1978 80.8047C36.2197 80.9689 36.2505 81.1317 36.2901 81.2926C36.323 81.4266 36.3603 81.5585 36.4042 81.6904C36.4328 81.7651 36.4591 81.8376 36.4877 81.9101C36.5162 81.9827 36.5426 82.042 36.5733 82.1079C36.643 82.2585 36.7207 82.4052 36.806 82.5475C36.8434 82.6112 36.8851 82.6771 36.9268 82.7387C36.9685 82.8002 37.0168 82.8727 37.0651 82.9365C37.1794 83.0962 37.3041 83.2482 37.4384 83.3914C33.6268 83.8727 29.2816 83.954 25.4678 83.9936ZM52.878 86.6419C46.6336 86.7298 41.1995 85.4859 38.6833 83.4046C37.7348 82.6222 37.1925 81.7211 37.0629 80.7299C35.998 72.1433 32.7551 41.5573 35.897 8.53606C35.9388 8.07893 35.9849 7.6218 36.0288 7.16466V7.13609C36.0749 6.67896 36.121 6.21743 36.1715 5.7581C36.2681 4.83505 36.3735 3.89881 36.4877 2.90103L36.6699 2.97136L36.8126 3.01751C37.0124 3.08125 37.2298 3.13619 37.4494 3.18674C38.6862 3.44683 39.9379 3.63033 41.1973 3.73617C44.4622 4.05485 48.7941 4.23067 53.4005 4.23067C58.0069 4.23067 62.3543 4.05705 65.6038 3.73617C66.8645 3.63181 68.1177 3.44979 69.3561 3.19113L69.6196 3.1274L69.8194 3.07685C69.9182 3.05048 70.0104 3.02191 70.1004 2.98894L70.1751 2.96257L70.2475 2.93619C71.3234 14.4524 71.9118 26.0587 72.004 37.4519C71.6835 37.4694 71.3453 37.4914 71.0116 37.5134L70.0389 37.5815L69.5449 37.6211L69.0553 37.6628C68.7303 37.6914 68.3966 37.7222 68.1002 37.7551L67.8675 37.7793L67.4174 37.8321C67.1253 37.8672 66.8465 37.9046 66.5852 37.9441L66.4381 37.9661L66.1593 38.0123L66.0275 38.0365H65.9858L65.6938 38.0958C65.5928 38.1178 65.4918 38.1397 65.3996 38.1639C65.382 38.1639 65.3579 38.1771 65.3403 38.1859L64.5499 38.5331L64.5104 38.5507C64.4477 38.5786 64.3925 38.6207 64.349 38.6737C64.3055 38.7268 64.2751 38.7893 64.2601 38.8562C62.6902 45.8297 61.9415 53.0779 61.9634 61.0139C61.9634 61.4799 61.9634 61.9414 61.9634 62.4007C61.9634 62.7392 61.9678 63.0754 61.9766 63.4095C61.9766 63.66 61.9876 63.9084 61.992 64.1567C61.992 64.282 61.992 64.4051 61.992 64.5281C62.0052 64.9325 62.0139 65.3347 62.0293 65.7325C62.0293 65.9171 62.0469 66.0973 62.0513 66.2797C62.0513 66.3479 62.0513 66.4138 62.0513 66.4819C62.0688 66.9215 62.0886 67.361 62.1127 67.8006C62.1281 68.0423 62.1391 68.2797 62.1523 68.5192C62.2028 69.3698 62.2577 70.1983 62.3257 71.0093C62.3257 71.1565 62.3477 71.3038 62.3587 71.4488C62.4099 72.0759 62.4648 72.6891 62.5233 73.2884L62.5629 73.6971C62.5782 73.8334 62.5914 73.9697 62.6046 74.1015C62.6295 74.3491 62.6558 74.5953 62.6836 74.84C62.6836 74.8598 62.6836 74.8795 62.6836 74.8993C62.71 75.1499 62.7385 75.3982 62.767 75.6443C62.789 75.8421 62.8153 76.0399 62.8373 76.2333C62.8593 76.4267 62.8834 76.6223 62.9076 76.8136C62.9581 77.196 63.0042 77.5718 63.0525 77.9388C63.0861 78.1849 63.1191 78.4267 63.1513 78.6641C63.2281 79.2003 63.305 79.7212 63.3708 80.2201L63.4982 81.0354C63.608 81.7233 63.7177 82.3695 63.8231 82.976C63.8495 83.1233 63.878 83.2661 63.9 83.4156C63.9019 83.425 63.9019 83.4347 63.9 83.4442C63.9175 83.5365 63.9373 83.6266 63.9505 83.7167C63.9878 83.9145 64.0229 84.1057 64.0603 84.2903C64.08 84.4024 64.102 84.5101 64.1239 84.62C64.1788 84.9079 64.2337 85.1826 64.2842 85.4419C61.0896 86.4375 56.7269 86.5913 52.8714 86.6419H52.878ZM103.32 86.7606C102.442 89.5539 95.9473 91.0176 84.0316 91.1165C74.6629 91.1824 66.2691 89.2924 65.7201 86.9935C65.6433 86.677 65.5643 86.3166 65.4786 85.9386C65.4786 85.8859 65.4545 85.8309 65.4457 85.776L65.4062 85.587C63.7319 77.5034 62.8764 69.2715 62.8527 61.0161V61.0161C62.8746 53.5658 63.608 46.4692 65.0483 39.9045C65.1493 39.9331 65.2679 39.9573 65.3886 39.9837L65.6192 40.0254C65.876 40.0672 66.179 40.1089 66.5391 40.1485L66.8377 40.1815C68.1683 40.3199 70.107 40.443 72.4453 40.5375L73.025 40.5617H73.2643C76.5841 40.7265 80.5098 40.8144 84.6135 40.8144C88.7171 40.8144 92.6319 40.7265 95.9473 40.5617H96.0021L96.8672 40.5287L97.7037 40.4935C99.8181 40.399 101.309 40.2957 102.361 40.1815L102.538 40.1617C102.813 40.1331 103.061 40.1001 103.276 40.0672C103.491 40.0342 103.7 39.9968 103.867 39.9617H103.911L104.053 39.9287L104.108 39.9155C105.416 47.3841 106.089 54.9502 106.12 62.5326C106.087 75.2488 104.082 84.3342 103.314 86.7606H103.32Z" fill="black"/>
</svg>
