<svg width="96" height="115" viewBox="0 0 96 115" fill="none" xmlns="http://www.w3.org/2000/svg">
<path d="M95.7382 4.53362C95.7379 4.4727 95.7239 4.41264 95.6973 4.3578C95.6707 4.30297 95.6322 4.25476 95.5845 4.21669L90.402 0.0904859H90.3856C90.3589 0.0686959 90.3283 0.0520558 90.2955 0.0414131C90.285 0.0361068 90.274 0.0319914 90.2627 0.0291449C90.2214 0.0168826 90.1786 0.0106833 90.1356 0.0107426H90.0905L73.3217 1.35207C73.2188 1.36031 73.1228 1.407 73.0529 1.48282C72.983 1.55864 72.9443 1.65798 72.9447 1.761L72.9529 23.6659L67.9528 20.973H67.9282C67.9187 20.9672 67.9083 20.963 67.8974 20.9607C67.8755 20.9527 67.8528 20.9465 67.8298 20.9423C67.8053 20.9393 67.7805 20.9393 67.7561 20.9423H67.7417L39.8169 22.0628C39.7111 22.067 39.611 22.112 39.5377 22.1882C39.4643 22.2645 39.4234 22.3661 39.4235 22.4718L39.4358 32.8241L39.1776 32.6993H39.1591L39.1161 32.6809C39.0929 32.6726 39.0688 32.6671 39.0444 32.6646C39.0294 32.6625 39.0142 32.6625 38.9993 32.6646H38.9706L0.410341 33.6972C0.303429 33.6998 0.201797 33.7441 0.127138 33.8205C0.0524794 33.8969 0.0107088 33.9994 0.0107422 34.1061L0.131646 111.338C0.131274 111.441 0.16964 111.54 0.239119 111.616C0.308598 111.692 0.404103 111.739 0.506654 111.747L39.071 114.994C39.0949 114.996 39.1189 114.996 39.1427 114.994C39.1933 114.994 39.2434 114.985 39.2903 114.966C39.3385 114.949 39.3826 114.922 39.4194 114.886C39.4318 114.877 39.4428 114.866 39.4522 114.853L45.6982 107.627L67.7847 110.424H67.8216H67.8728C67.9219 110.425 67.9707 110.416 68.0163 110.398C68.0629 110.381 68.1059 110.355 68.1433 110.322L74.6353 104.65L90.1459 105.859H90.2073H90.2606H90.2934C90.3325 105.852 90.3701 105.838 90.4041 105.818L90.4328 105.801H90.4451L95.8202 102.006C95.8734 101.969 95.9168 101.919 95.9468 101.861C95.9767 101.803 95.9923 101.738 95.9923 101.673L95.7382 4.53362ZM0.951336 110.962L0.820186 34.5048L38.571 33.4825L38.7308 114.146L0.951336 110.962ZM45.3929 106.734L45.2289 106.924L39.5505 113.494L39.3927 33.7094L39.655 33.8342L45.6552 36.7172L45.3929 106.734ZM46.2125 106.865L46.4748 36.4616C46.4752 36.3844 46.4536 36.3087 46.4127 36.2432C46.3717 36.1777 46.313 36.1251 46.2433 36.0915L40.2555 33.2146L40.2432 22.8623L67.3544 21.7561L67.4712 109.558L46.2125 106.865ZM75.1066 103.16L74.1927 103.957L68.2909 109.114L68.1761 22.0097L73.1762 24.7025L75.5001 25.9682L75.1066 103.16ZM75.5001 103.904L75.7849 103.654C75.8286 103.616 75.8637 103.569 75.8877 103.516C75.9117 103.463 75.9242 103.406 75.9242 103.348L76.3177 25.7208C76.3181 25.6467 76.2982 25.5738 76.2604 25.5101C76.2225 25.4464 76.1679 25.3941 76.1025 25.3589L73.7726 24.1075V2.13723L89.736 0.853159L89.8057 105.02L75.5001 103.904ZM90.6213 104.671L90.5557 1.26005L94.9185 4.73604L95.1808 101.461L90.6213 104.671Z" fill="black"/>
</svg>
