<svg width="99" height="104" viewBox="0 0 99 104" fill="none" xmlns="http://www.w3.org/2000/svg">
<path d="M92.7196 23.2065L92.6693 23.0508C92.6717 23.0295 92.6717 23.008 92.6693 22.9868C92.6693 22.3802 91.9128 22.1078 90.6947 21.8629C89.2291 21.5999 87.7507 21.4143 86.2656 21.3067C82.4101 20.9794 77.2816 20.7963 71.824 20.7895C66.3664 20.7826 61.2494 20.9588 57.3756 21.2861C55.8904 21.3897 54.4119 21.5731 52.9464 21.8355C51.726 22.0781 50.9718 22.3505 50.9718 22.957C50.9706 22.9738 50.9706 22.9906 50.9718 23.0073L50.6998 24.8018C50.613 25.3786 50.5216 25.9737 50.4302 26.5848C49.4566 17.4524 48.4076 8.7319 47.5505 2.71913C47.5505 2.6848 47.5505 2.65047 47.5505 2.61842C47.5505 2.16066 47.5505 1.31608 41.2679 0.643162C37.4558 0.228883 32.3571 0 26.9109 0H26.7395C21.339 0 16.2563 0.228883 12.4168 0.617985C6.01759 1.28404 6.01759 2.1309 6.01759 2.58409C6.01759 2.61614 6.01759 2.64818 6.01759 2.6848C5.80047 4.48153 5.5605 6.45222 5.29311 8.5671C2.64659 29.9356 -1.77113 65.701 0.751976 83.8903C1.29591 87.8271 4.38122 91.0154 9.67883 93.112C13.9983 94.8218 19.673 95.751 25.7453 95.751C26.0767 95.751 26.4081 95.751 26.7395 95.751C28.4193 95.7327 30.0808 95.7007 31.6851 95.6572C31.8657 96.0761 32.0897 96.5338 32.3868 97.0923L32.4325 97.1884C34.6128 101.695 44.5041 103.858 53.3395 104C53.6458 104 53.9543 104 54.2651 104C62.1247 104 71.6914 102.398 74.3768 97.8339C84.7983 97.692 95.5009 97.4722 98.2457 88.8502C101.027 80.203 95.4187 38.386 92.7196 23.2065ZM52.2974 22.9158C54.1874 22.3482 61.1534 21.6936 71.8263 21.705C82.6775 21.705 89.6823 22.3917 91.4352 22.9776C89.7074 23.5521 83.6647 24.1083 75.2841 24.225C74.5482 24.225 73.7963 24.241 73.0261 24.2433H71.1201H70.4345H69.8425H69.358C59.8895 24.1403 53.7897 23.504 52.1945 22.9662L52.2974 22.9158ZM26.7395 0.915533H26.9155C38.3883 0.915533 45.4571 1.87913 46.5541 2.61842C45.4594 3.36001 38.4523 4.30529 27.0846 4.30529H26.9132C15.4861 4.30529 8.17274 3.31652 7.03003 2.58409C8.15674 1.84938 15.2507 0.915533 26.7395 0.915533ZM26.7395 94.8264C15.0359 95.0255 2.74258 91.6746 1.657 83.7713C-0.85696 65.6895 3.56076 30.0112 6.19356 8.69757C6.42211 6.8665 6.63693 5.1247 6.8312 3.52023C7.63795 3.87042 9.24003 4.25036 12.4122 4.58911C16.2974 5.00339 21.451 5.23456 26.9063 5.23914H27.0709C32.4439 5.23914 37.4787 5.01026 41.2656 4.612C44.3761 4.27783 45.9485 3.90246 46.7506 3.55227C47.6945 10.3112 48.8624 20.1852 49.8954 30.2034C48.6795 38.2647 47.3083 47.7451 46.3621 57.0515C43.3065 57.1865 35.3692 57.6557 33.5638 58.9054C33.4798 58.9578 33.403 59.0209 33.3352 59.0931L33.2438 59.1984L33.1912 59.7591V59.7752C32.6176 65.9321 32.1057 70.9172 31.6943 74.9204C30.4236 87.3258 30.0305 91.1459 31.3195 94.7417C29.8317 94.7806 28.2867 94.808 26.7258 94.8264H26.7395ZM46.8078 57.9487C48.9606 57.8686 51.1752 57.8274 53.3875 57.8274H54.4274L55.5358 57.8388H56.0043C56.5002 57.8388 56.9893 57.8571 57.467 57.8686L58.3377 57.8937C60.0381 57.9441 61.6036 58.0219 63.0297 58.1226L63.6262 58.1638H63.793L64.2044 58.1959L64.5266 58.221L64.8832 58.2508C65.2374 58.2806 65.5688 58.3126 65.9093 58.3446L66.2361 58.3767C66.6681 58.4202 67.0795 58.466 67.4703 58.5117L68.0416 58.5827C68.3661 58.6239 68.6747 58.6674 68.9558 58.7109L69.2552 58.7566C69.5294 58.7978 69.79 58.8413 70.0322 58.8871L70.5053 58.9764L70.6539 59.0061C71.1991 59.1058 71.7344 59.2536 72.2536 59.4479L72.3245 59.4799C72.3527 59.491 72.3802 59.504 72.4068 59.5188C72.4321 59.5299 72.4565 59.5429 72.4799 59.5577C72.5015 59.5681 72.5222 59.5803 72.5416 59.5943C72.5612 59.6054 72.5795 59.6185 72.5965 59.6333C72.6038 59.637 72.6107 59.6416 72.617 59.647C72.5651 59.6882 72.5092 59.7243 72.4502 59.7546C72.3989 59.7824 72.3463 59.8076 72.2925 59.8301C72.2034 59.8667 72.1051 59.9056 71.9908 59.9445L71.8743 59.9812H71.8491L71.6206 60.0498C71.5292 60.0773 71.4309 60.1025 71.3258 60.1276L71.1658 60.1666L70.9967 60.2055L70.8207 60.2444L70.6378 60.2833L70.2448 60.3611L69.9134 60.4206C69.6643 60.4641 69.3992 60.5076 69.1203 60.5488L68.6838 60.6129H68.6153L68.3524 60.6495L67.8017 60.7205L67.2486 60.7868C66.0487 60.9242 64.6638 61.0478 63.112 61.1508L62.7234 61.1759L62.5338 61.1874L62.2321 61.2057L61.9258 61.224H61.7567L61.5167 61.2354C61.3796 61.2354 61.2402 61.2515 61.1008 61.256L60.678 61.2766L60.0838 61.3041L59.3684 61.3316L58.4543 61.3613H58.1366L57.163 61.3842H57.0487C56.8202 61.3842 56.5917 61.3957 56.3631 61.3979H56.2946H56.066H55.6524H55.2341H55.0787H54.3931H53.3646C50.9718 61.3979 48.6293 61.3453 46.3964 61.2423L46.0056 61.224L44.8629 61.1668L44.4264 61.1416H44.3669C43.999 61.121 43.6402 61.0981 43.2951 61.0729L43.0665 61.0569L42.838 61.0409L42.6095 61.0226L41.8484 60.9631L41.5056 60.9333L41.2382 60.9081C40.5053 60.8425 39.8327 60.7723 39.2202 60.6976L38.9916 60.6701L38.5528 60.6152L38.3426 60.5854L37.9381 60.5282L37.7438 60.5007L37.5427 60.4687L37.1907 60.4115L37.1107 60.3977L36.8502 60.3542L36.3771 60.265L36.2286 60.2352L36.0869 60.2055L36.0183 60.1917L35.7372 60.1299L35.5658 60.0887L35.4469 60.059L35.3555 60.0361L35.239 60.0063H35.2253L35.0241 59.9491C34.9602 59.9308 34.8984 59.9125 34.8413 59.8919C34.7248 59.8553 34.6128 59.8187 34.5305 59.782L34.4642 59.7546L34.3591 59.7088H34.3431C34.2936 59.6865 34.2456 59.6613 34.1991 59.6333L34.1237 59.5829V59.5509C34.8939 59.0977 38.706 58.2806 46.7941 57.9487H46.8078ZM73.7757 97.0877L73.7277 97.1655C73.6021 97.406 73.4569 97.6357 73.2935 97.8522C70.4413 101.633 61.4345 103.21 53.3806 103.08C43.3454 102.917 35.1361 100.372 33.3261 96.8749L33.2712 96.7558C32.9605 96.1912 32.6812 95.6097 32.4348 95.014C30.9584 91.4206 31.3149 87.9484 32.6382 75.0211C33.0335 71.1781 33.5203 66.4334 34.0666 60.6175L34.2425 60.6907L34.4322 60.7639C34.5625 60.8097 34.7042 60.8555 34.8505 60.9013L35.0013 60.9448L35.1567 60.9882C35.2618 61.018 35.3715 61.0455 35.4835 61.0729L35.6686 61.1164L35.872 61.1622C36.0343 61.1988 36.2011 61.2332 36.3748 61.2675L36.5074 61.2927L36.7748 61.3407L37.1862 61.4117L37.4147 61.4506C37.7507 61.5032 38.1003 61.5536 38.4477 61.6017L38.8385 61.652H38.8842L39.2796 61.7001C39.7367 61.755 40.2098 61.8031 40.6783 61.8489L41.1948 61.8969L41.5193 61.9267L42.1844 61.9816H42.2438L42.7009 62.0159L43.078 62.0434L43.6973 62.0869L44.1544 62.1166L44.4789 62.1372L44.7075 62.151L45.0434 62.1693L45.4022 62.1876L45.8342 62.2105H46.0193L46.369 62.2265C48.6544 62.3318 51.0838 62.3799 53.5406 62.3821C54.2948 62.3821 55.0536 62.3821 55.8123 62.3661C56.2991 62.3661 56.7882 62.3501 57.275 62.3387H57.3299L58.084 62.3203C58.5868 62.3066 59.0873 62.2883 59.5833 62.27L60.0404 62.2517H60.1021H60.342L61.3476 62.2036L62.1498 62.1601H62.2549L62.9131 62.1212L64.0558 62.0434L64.4261 62.0159L65.1551 61.9564L65.5596 61.9221L66.0784 61.8717L66.8875 61.7916L67.2189 61.755L67.42 61.7321L67.7125 61.6978L67.8611 61.6795L68.4758 61.5994C68.8027 61.5559 69.1158 61.5078 69.4152 61.4597L69.6825 61.4163L69.9408 61.3728L70.3248 61.3041L70.407 61.2881L70.7681 61.2148L70.9807 61.1691L71.1589 61.1279L71.3326 61.0867L71.5429 61.034C71.68 60.9974 71.808 60.9631 71.9314 60.9264L72.112 60.8692C72.2285 60.8326 72.3405 60.7937 72.4433 60.7548L72.5896 60.6999C72.6605 60.6701 72.729 60.6403 72.7907 60.6106C72.809 60.7708 72.8273 60.9287 72.8433 61.0867C72.8593 61.2446 72.889 61.4689 72.9096 61.6589C72.969 62.1762 73.0284 62.6843 73.0833 63.1855C73.1381 63.6868 73.1952 64.1766 73.2501 64.6618V64.7145C73.2981 65.1425 73.3461 65.5613 73.3895 65.9756C73.4146 66.1908 73.4398 66.4036 73.4626 66.6165C73.4626 66.6165 73.4626 66.6165 73.4626 66.6302C73.5083 67.0445 73.5541 67.4542 73.5975 67.857C73.6409 68.2599 73.6889 68.6764 73.73 69.077C73.7712 69.4775 73.8146 69.83 73.8534 70.1962C74.0058 71.5604 74.1406 72.8467 74.258 74.0552C74.2762 74.2269 74.2945 74.3962 74.3105 74.5633C74.3448 74.8975 74.3768 75.2271 74.4088 75.5498C74.4271 75.7123 74.4431 75.8725 74.4568 76.0327V76.0923C74.4819 76.3417 74.5048 76.5866 74.5276 76.827C74.6053 77.6464 74.6777 78.4276 74.7448 79.1707L74.779 79.5621C74.7973 79.7773 74.8156 79.9901 74.8339 80.1984C74.8567 80.4616 74.8773 80.718 74.8979 80.972C74.9184 81.2261 74.939 81.471 74.9573 81.7159C74.9954 82.2027 75.0304 82.6719 75.0624 83.1236C75.0739 83.3135 75.0876 83.5012 75.099 83.6843C75.115 83.9132 75.1287 84.1261 75.1401 84.3389C75.1401 84.4465 75.1538 84.5518 75.1584 84.6571C75.1698 84.8676 75.1813 85.0759 75.1927 85.2773C75.1927 85.4353 75.2087 85.5909 75.2155 85.7351C75.2155 85.8221 75.2156 85.9091 75.227 85.996C75.2384 86.2524 75.2476 86.5042 75.2567 86.7468C75.2567 86.8994 75.2613 87.0436 75.2704 87.1794C75.3115 88.6602 75.2955 89.8916 75.2293 90.9514C75.2293 91.0956 75.211 91.2352 75.1996 91.3725C75.0689 93.3509 74.5778 95.2887 73.7506 97.09L73.7757 97.0877ZM97.3773 88.5778C95.0416 95.9204 86.5741 96.733 74.8225 96.9184C74.8636 96.8176 74.9047 96.7169 74.9436 96.6162C75.0007 96.4697 75.0579 96.3233 75.1127 96.1768L75.1927 95.9479C75.2224 95.8655 75.2498 95.7808 75.2795 95.6961L75.3481 95.4924C75.419 95.2635 75.4852 95.0484 75.5492 94.8195C75.5934 94.6669 75.6345 94.509 75.6726 94.3457L75.7275 94.1031L75.7823 93.8536C75.8166 93.6865 75.8509 93.5149 75.8806 93.3386C75.892 93.2768 75.9012 93.2127 75.9126 93.1486C75.9332 93.0205 75.9537 92.89 75.972 92.755C76.0086 92.4895 76.0429 92.2102 76.0726 91.9195C76.0726 91.8478 76.0794 91.7715 76.0932 91.6907C76.0932 91.6632 76.0932 91.6357 76.0932 91.6083C76.0932 91.503 76.1092 91.3977 76.1183 91.2901L76.132 91.0864C76.132 90.9445 76.1503 90.798 76.1572 90.6492C76.1709 90.37 76.1823 90.077 76.1891 89.7726C76.1891 89.6948 76.1891 89.617 76.1891 89.5437C76.2051 88.722 76.1891 87.8088 76.1617 86.7834C76.1617 86.7559 76.1617 86.7285 76.1617 86.701C76.1617 86.4927 76.1457 86.2776 76.1366 86.0578C76.1366 85.8724 76.1206 85.6825 76.1114 85.4902C76.0977 85.2476 76.0863 85.0004 76.0726 84.7486C76.0726 84.6983 76.0726 84.6479 76.0726 84.5976C76.0612 84.3916 76.0474 84.1856 76.036 83.9727L76.0154 83.6523C76.0154 83.5081 75.9949 83.3616 75.9857 83.2128C75.9652 82.9176 75.9446 82.6154 75.9218 82.2973C75.8989 81.9791 75.8738 81.6701 75.8486 81.3451C75.8372 81.1826 75.8235 81.0178 75.8098 80.853C75.796 80.6882 75.78 80.4937 75.7663 80.3106C75.7366 79.981 75.7092 79.6445 75.6772 79.2989C75.6315 78.7633 75.5812 78.2087 75.5264 77.6349C75.4921 77.2527 75.4532 76.8613 75.4144 76.4608C75.3382 75.6597 75.2552 74.8204 75.1653 73.943C75.1639 73.9394 75.1639 73.9353 75.1653 73.9316C75.131 73.5928 75.0944 73.2449 75.0601 72.8993C75.0591 72.8956 75.0591 72.8916 75.0601 72.8879C75.019 72.4919 74.9756 72.0891 74.9344 71.6771C74.9184 71.5421 74.9047 71.4047 74.891 71.2651C74.8899 71.2614 74.8899 71.2574 74.891 71.2537C74.8522 70.8852 74.811 70.5098 74.7722 70.1298C74.7713 70.1261 74.7713 70.1222 74.7722 70.1184C74.731 69.7362 74.6876 69.3494 74.6465 68.958C74.6454 68.9534 74.6454 68.9487 74.6465 68.9442C74.6031 68.5506 74.5596 68.1523 74.5162 67.7472C74.4934 67.5366 74.4682 67.3237 74.4454 67.1109L74.3768 66.4837C74.3585 66.3258 74.3402 66.1679 74.3242 66.0077L74.2831 65.646C74.2557 65.4034 74.2283 65.1608 74.2008 64.9136L74.1597 64.5428C74.1586 64.5368 74.1586 64.5305 74.1597 64.5245C74.1094 64.0866 74.0591 63.6418 74.0089 63.1901C74.0077 63.181 74.0077 63.1718 74.0089 63.1626C73.9769 62.8811 73.9426 62.595 73.9106 62.3066C73.8603 61.8717 73.81 61.43 73.7597 60.9814C73.7323 60.7525 73.7072 60.5236 73.682 60.2947C73.6683 60.1826 73.6546 60.0658 73.6432 59.9537C73.6318 59.8415 73.6158 59.7363 73.6043 59.6264V59.6081C73.5838 59.1778 73.5449 58.2828 67.3674 57.5664C63.6148 57.1339 58.6531 56.8798 53.3944 56.8798C52.8824 56.8798 52.3713 56.8798 51.8608 56.8798H50.8941C50.3228 56.8798 49.7514 56.8981 49.1846 56.9118L48.5378 56.9279L47.5917 56.9553H47.5048H47.3014C48.2225 47.7451 49.5937 38.3036 50.8004 30.2652C51.0838 28.3655 51.3535 26.5802 51.6026 24.9391L51.7786 23.7695L51.79 23.6917C52.4505 23.9824 54.0137 24.3417 57.9606 24.6645C61.5693 24.9597 66.2064 25.1222 71.1064 25.1611H73.033C73.3438 25.1611 73.6523 25.1611 73.9586 25.1611H74.0477H74.4751H75.3207H75.8737H76.2531C83.699 25.0375 89.7371 24.5569 91.9037 23.9092C94.6302 39.3931 100.076 80.1664 97.3773 88.5778Z" fill="black"/>
</svg>
