<svg width="97" height="112" viewBox="0 0 97 112" fill="none" xmlns="http://www.w3.org/2000/svg">
<path d="M96.9994 22.6017V22.5428C97.0041 22.4556 96.9809 22.3691 96.9331 22.2957C96.9252 22.2815 96.9152 22.2685 96.9034 22.2572C96.8849 22.2306 96.8626 22.207 96.837 22.187C96.8156 22.1686 96.7926 22.1519 96.7684 22.1371L96.6884 22.1031L96.5992 22.0827H96.4803L71.0128 21.5977V21.566L73.8849 1.42776C73.8934 1.36377 73.888 1.29873 73.8691 1.23697C73.8502 1.17522 73.8181 1.11819 73.7752 1.06969V0.8L23.7365 0H23.7091L0.459734 1.11728H0.439153C0.378629 1.11853 0.319002 1.13204 0.263944 1.15699C0.208886 1.18193 0.159562 1.21778 0.119009 1.26232C0.0756851 1.3108 0.0429574 1.36764 0.022886 1.42926C0.0028146 1.49089 -0.00416571 1.55597 0.00238454 1.6204L11.4864 100.85C11.4989 100.952 11.5459 101.047 11.6199 101.119C11.6938 101.191 11.7903 101.236 11.8935 101.246L44.4545 105.326L44.594 106.561C44.6056 106.66 44.65 106.753 44.7203 106.825C44.7906 106.896 44.8829 106.943 44.9827 106.958L78.8723 111.966H79.005C79.0321 111.982 79.0614 111.993 79.0919 112H79.2771L79.3434 111.984C79.3676 111.976 79.3906 111.964 79.412 111.95C79.4268 111.944 79.4407 111.935 79.4532 111.925C79.4753 111.908 79.496 111.889 79.5149 111.869L90.5576 99.3564L90.4753 99.2838H90.6034C90.6406 99.2241 90.6633 99.1566 90.6697 99.0867L90.656 99.234L90.8389 99.03C90.9051 98.9576 90.9439 98.8647 90.9487 98.7671L96.9399 22.8147M93.1577 22.9235L87.5231 23.5127L83.2698 23.966L42.3553 22.9575L47.9646 22.6266H48.0767L55.8516 22.2935C55.7717 22.2947 55.6929 22.2752 55.623 22.2368H56.732L57.3014 22.2119H57.681C57.6205 22.2411 57.554 22.2558 57.4867 22.255L70.4891 22.5042L93.1577 22.9235ZM70.1004 21.5637L57.4958 21.3144C57.5653 21.3166 57.6333 21.3344 57.6948 21.3666H56.684L56.3616 21.3802V21.3598L58.3488 3.41303L72.8948 1.88102L70.1004 21.5637ZM23.7365 0.906516L66.8006 1.6L57.9326 2.52011L12.9888 1.42776L23.7365 0.906516ZM12.3508 100.397L0.971966 2.03966L57.4318 3.41756L55.4492 21.3212H54.8958L47.9646 21.7292H47.8503L35.4104 22.2618C35.3478 22.2648 35.2865 22.2805 35.2302 22.3079C35.174 22.3354 35.1241 22.374 35.0836 22.4214C35.043 22.4688 35.0128 22.524 34.9946 22.5834C34.9765 22.6429 34.9709 22.7054 34.9782 22.7671L34.9988 22.9643C34.9919 22.9154 34.9919 22.8659 34.9988 22.817V22.749H35.0285C35.0195 22.772 35.0119 22.7954 35.0056 22.8193L35.0377 23.0867C35.0406 23.0997 35.046 23.112 35.0537 23.1229V23.1547L35.0651 23.4108L35.5567 27.855L43.9834 104.363L12.3508 100.397ZM78.5248 110.618V110.64L78.511 111.003L45.4607 106.13L36.4371 27.3836L36.0095 23.7031H36.0255L82.7987 24.8544L78.5248 110.618ZM90.0843 98.57L79.4509 110.595V110.572L83.7134 24.8136L95.9818 23.5286L90.0843 98.57Z" fill="#1D1D1B"/>
</svg>
