<svg width="91" height="102" viewBox="0 0 91 102" fill="none" xmlns="http://www.w3.org/2000/svg">
<path d="M82.4333 26.1716C77.252 25.8835 70.3966 25.7266 63.1349 25.7266C61.5005 25.7266 59.8964 25.7266 58.3366 25.75C58.9274 17.9014 59.3803 10.0972 59.6816 2.54362C59.6827 2.52412 59.6827 2.50456 59.6816 2.48506C59.6839 1.87375 59.0161 1.56927 57.0104 1.24136C55.5347 1.00714 53.4286 0.772922 50.755 0.594916C45.2539 0.210797 37.9829 0 30.2799 0C22.5769 0 15.3059 0.210797 9.80472 0.594916C7.1312 0.782291 5.02508 1.00011 3.54939 1.24136C1.55067 1.56927 0.875874 1.87375 0.875874 2.48506C0.874709 2.50456 0.874709 2.52412 0.875874 2.54362C2.65977 47.0476 8.22162 78.2291 10.3161 89.9752C10.6827 92.0387 10.9488 93.5306 11.0492 94.2895C11.7497 99.8077 21.1619 101.742 29.2969 101.742H29.9693C36.3251 101.646 42.8326 101.34 46.6269 98.8146C49.709 101.157 56.5481 102 62.2477 102H62.8407C72.0825 101.89 80.4696 101.356 81.6231 96.1L81.7678 95.4512C86.5101 74.0717 89.744 50.069 90.8741 27.8557C90.8753 27.8479 90.8753 27.84 90.8741 27.8322C90.8753 27.8159 90.8753 27.7994 90.8741 27.783C90.8741 27.7573 90.8741 27.7339 90.8741 27.7081C90.8835 27.1694 90.8835 26.6377 82.4333 26.1716ZM63.1349 26.6635C76.9765 26.6635 86.1365 27.2092 89.0879 27.7081L88.9385 27.7339C88.7843 27.7596 88.6186 27.7831 88.4364 27.8088C88.2029 27.8416 87.9251 27.8744 87.6356 27.9072L87.2013 27.954L86.9374 27.9798L86.5241 28.0173L86.1599 28.0501L85.5995 28.0969L85.0041 28.1414L84.5674 28.1719L84.1121 28.2023L82.4777 28.3007L82.0434 28.3241H81.9079L81.525 28.3428L81.1351 28.3616L80.2011 28.4061C79.4025 28.4412 78.5666 28.474 77.6723 28.5044L76.8177 28.5325C75.7281 28.5685 74.5809 28.5989 73.376 28.6239L72.86 28.6356C71.8186 28.6559 70.7383 28.6739 69.6191 28.6895H69.0564C67.8375 28.7035 66.572 28.7152 65.2691 28.7199H63.1279C61.3604 28.7199 59.5508 28.7199 57.6011 28.6895H56.8493H56.1184C55.0412 28.6739 54.0045 28.6543 53.0083 28.6309C52.6814 28.6309 52.3615 28.6309 52.0463 28.6098H51.8618L51.1286 28.5911L49.5362 28.5443L49.0225 28.5279L47.855 28.4857L47.0705 28.4553L46.6292 28.4365L46.0174 28.4108C45.3683 28.3827 44.7496 28.3522 44.1611 28.3194L43.7806 28.2983H43.6895L43.0801 28.2632H43.0427C42.6831 28.2421 42.3422 28.221 42.006 28.1976L41.6604 28.1742L41.1351 28.1367L40.8829 28.118L40.4533 28.0828L40.1614 28.0594L39.8975 28.036L39.6337 28.0126L39.2904 27.9798C38.7954 27.9329 38.3588 27.8838 37.9805 27.8322L37.7074 27.7971C37.5112 27.769 37.3361 27.7432 37.1773 27.7151L37.2987 27.694L37.4295 27.673C37.663 27.6402 37.8965 27.605 38.1837 27.5699L38.3565 27.5488L38.7417 27.5043L39.106 27.4669L39.3605 27.4411L39.594 27.4177C40.3785 27.3474 41.2915 27.2748 42.3259 27.2069L42.8326 27.1764C43.9814 27.1062 45.2664 27.0406 46.6876 26.9797L47.1989 26.9586C48.5734 26.9039 50.0639 26.8555 51.6703 26.8134L52.1116 26.8017L53.4659 26.7712L54.3999 26.7525L56.8212 26.715L57.8486 26.701H58.2782C59.8497 26.6705 61.4841 26.6635 63.1349 26.6635ZM30.2799 0.936876C46.1575 0.936876 56.1838 1.78475 58.4043 2.48741C57.9783 2.61102 57.5446 2.70648 57.1061 2.77315L56.8026 2.82234C56.0647 2.93945 55.1307 3.05656 54.0006 3.16664L53.0666 3.2533L52.4689 3.30483C52.0533 3.33996 51.6166 3.37275 51.1613 3.40789C50.6196 3.44692 50.0507 3.48518 49.4545 3.52265C49.0062 3.55076 48.5438 3.57808 48.0675 3.60463L47.0962 3.65616C46.363 3.69363 45.5995 3.72877 44.8056 3.76156L43.9417 3.79435C42.8302 3.83651 41.6628 3.87398 40.4392 3.90677L39.2718 3.93488C38.1276 3.95986 36.9384 3.98094 35.704 3.99812H34.9568H34.5715H33.4321C32.4031 3.99812 31.3454 3.99812 30.2589 3.99812C29.1723 3.99812 28.1146 3.99812 27.0857 3.99812H25.9462H25.5609H24.8138C23.5949 3.98719 22.4127 3.96611 21.267 3.93488L20.0995 3.90677C18.8775 3.87398 17.7101 3.83651 16.5971 3.79435L15.7332 3.76156C14.9393 3.72877 14.1757 3.69363 13.4426 3.65616L12.4712 3.60463C11.9949 3.57808 11.5326 3.55076 11.0843 3.52265C10.4881 3.48518 9.91913 3.44692 9.37742 3.40789C8.91043 3.37275 8.48547 3.33996 8.06985 3.30483L7.4721 3.2533L6.53812 3.16664C5.41968 3.05421 4.4857 2.93242 3.74786 2.82234L3.44432 2.77315C3.00581 2.70648 2.57214 2.61102 2.14609 2.48741C4.3783 1.78475 14.4186 0.936876 30.2799 0.936876ZM29.9553 100.801C21.4281 100.909 12.574 98.906 11.9762 94.1701C11.8758 93.3878 11.6213 91.9637 11.236 89.8089C9.16027 78.1612 3.66614 47.345 1.84721 3.3587L1.92193 3.38212C2.03868 3.41725 2.15543 3.45239 2.30253 3.48752L2.57105 3.55076L2.97733 3.63508C3.15478 3.66787 3.34625 3.703 3.54939 3.73579C5.02274 3.97001 7.12887 4.20423 9.80472 4.38224C15.2755 4.76167 22.5465 4.97013 30.2799 4.97013C38.0132 4.97013 45.2843 4.76167 50.755 4.38224C53.4309 4.19486 55.537 3.97938 57.0104 3.73579C57.2135 3.703 57.405 3.66787 57.5824 3.63508L57.984 3.5531L58.2526 3.48986C58.3903 3.45473 58.5164 3.4196 58.6332 3.38446L58.7079 3.36104C58.4043 10.664 57.963 18.1941 57.3933 25.7617H56.6928L55.7472 25.7758C53.9259 25.8039 52.1654 25.8437 50.4935 25.8929L49.5012 25.9234L49.0132 25.9397L48.5322 25.9561L47.9484 25.9772L47.1219 26.01L46.2159 26.0475L45.5154 26.0779H45.331L44.9037 26.099L43.6451 26.1646L42.9049 26.2325H42.7392L42.1321 26.2723C40.1264 26.4058 38.5573 26.5557 37.4622 26.7174C36.0612 26.9282 35.3864 27.1272 35.3864 27.6987C35.3852 27.7167 35.3852 27.7347 35.3864 27.7526C35.4907 29.8325 35.609 31.8725 35.7413 33.8727C35.774 34.3716 35.809 34.8658 35.8417 35.36C35.8931 36.1002 35.9468 36.8333 36.0005 37.564C36.0542 38.2948 36.1126 39.0138 36.1686 39.7306C36.1696 39.7383 36.1696 39.7462 36.1686 39.754C36.2278 40.4707 36.2869 41.1812 36.3461 41.8854C36.4052 42.5896 36.4667 43.2883 36.5305 43.9816C36.5749 44.4501 36.6169 44.9185 36.6613 45.3869C36.8341 47.217 37.0154 49.0041 37.2053 50.7482C37.2063 50.7544 37.2063 50.7607 37.2053 50.767C37.2987 51.6359 37.3968 52.4955 37.4925 53.3434C37.5439 53.7767 37.5929 54.2053 37.6443 54.6339C37.7424 55.4701 37.8451 56.2969 37.9455 57.1119C37.9969 57.5289 38.0506 57.9411 38.102 58.3486C38.207 59.152 38.3098 59.946 38.4148 60.7283C38.8491 63.9464 39.2951 66.971 39.7528 69.8019C39.7878 70.0244 39.8251 70.2469 39.8602 70.4671C39.9909 71.2822 40.124 72.0809 40.2548 72.8608L40.3528 73.4276C40.3739 73.5635 40.3972 73.697 40.4206 73.8281L40.5186 74.395C40.7085 75.488 40.8961 76.5412 41.0814 77.5546C41.1094 77.7138 41.1397 77.8708 41.1677 78.023C41.3514 79.027 41.5336 79.9928 41.7141 80.9203C41.7468 81.0866 41.7772 81.2505 41.8099 81.4145C41.9826 82.3123 42.1539 83.1711 42.3235 83.9909C42.3539 84.1549 42.3866 84.3165 42.4193 84.4757C43.1641 88.1296 43.8202 91.0339 44.2872 93.109C44.502 94.0717 44.6818 94.8657 44.8079 95.4512L44.8359 95.5824C44.8523 95.6667 44.8686 95.7487 44.885 95.8166L44.906 95.929C44.9356 96.0711 44.9589 96.1953 44.976 96.3015C44.9924 96.4045 45.0134 96.5076 45.0391 96.6083C45.0531 96.6575 45.0671 96.709 45.0835 96.7582C45.0998 96.8074 45.1161 96.8566 45.1325 96.9034C45.1512 96.9549 45.1698 97.0018 45.1909 97.0509C45.2119 97.1001 45.2306 97.14 45.2492 97.1821C45.3184 97.3213 45.3964 97.4558 45.4827 97.585L45.5411 97.6716L45.6041 97.7583C45.6322 97.7981 45.6625 97.8356 45.6929 97.8754C45.7583 97.9597 45.8283 98.0417 45.9054 98.1237C42.2932 100.424 36.0589 100.714 29.9553 100.801ZM80.8572 95.2404C80.7965 95.5168 80.7475 95.737 80.7148 95.8939C79.7084 100.473 71.3306 100.955 62.8337 101.047C55.4109 101.129 49.3261 99.9037 46.9561 97.8614C46.4152 97.4451 46.0422 96.8472 45.9054 96.1773C45.8096 95.5871 45.5691 94.5237 45.2049 92.91C45.0212 92.0902 44.8103 91.1447 44.5721 90.0736C44.5347 89.9026 44.495 89.7293 44.4577 89.5513C44.3347 88.9891 44.2055 88.3958 44.0701 87.7712C44.0491 87.6705 44.0281 87.5651 44.0047 87.462C43.849 86.7313 43.6872 85.9599 43.519 85.1479C43.4723 84.9137 43.4233 84.6795 43.3743 84.4453C43.3743 84.4031 43.3579 84.3563 43.3486 84.3118C43.3136 84.1478 43.2809 83.9792 43.2458 83.8106C42.557 80.405 41.7935 76.3671 41.0253 71.7413C40.9973 71.5773 40.9693 71.411 40.9436 71.2447C40.9319 71.1768 40.9202 71.1112 40.9109 71.0433L40.7778 70.2399C40.5739 68.9907 40.3723 67.6955 40.1731 66.3542C40.117 65.9935 40.0633 65.6281 40.0096 65.2604C39.8991 64.5219 39.7909 63.7739 39.6851 63.0166C39.5294 61.9704 39.3823 60.9008 39.2437 59.8078C39.141 59.0208 39.0359 58.2245 38.9355 57.4164C38.8842 57.0136 38.8328 56.606 38.7838 56.1961C38.7581 55.9924 38.7324 55.7886 38.709 55.5848C38.6693 55.2686 38.632 54.9501 38.5946 54.6316C38.4919 53.7774 38.3923 52.9124 38.2958 52.0364C38.2148 51.315 38.137 50.5866 38.0623 49.8512C37.9984 49.264 37.937 48.6715 37.8778 48.0734C37.8031 47.3403 37.7307 46.5979 37.6583 45.8507C37.5929 45.1652 37.5283 44.4735 37.4645 43.7755C37.4318 43.4086 37.3991 43.0385 37.3664 42.6653C37.3244 42.1969 37.2847 41.7284 37.245 41.26C37.0209 38.5946 36.8177 35.8488 36.6356 33.0225C36.6053 32.5541 36.5772 32.0997 36.5492 31.636C36.5492 31.5704 36.5492 31.5071 36.5375 31.4415C36.5095 30.9731 36.4815 30.4859 36.4558 30.0058C36.4301 29.5256 36.3998 29.0385 36.3764 28.5513C36.3764 28.5255 36.3764 28.5021 36.3764 28.4763C36.6099 28.5372 36.8878 28.5888 37.2077 28.6403L37.4552 28.6801C38.5293 28.8417 40.0797 28.9916 42.0667 29.1228C46.0361 29.3874 51.5466 29.5725 57.6128 29.6404C59.5671 29.6615 61.3767 29.6709 63.149 29.6709C70.441 29.6709 77.2941 29.5139 82.4473 29.2305L83.0801 29.1954L83.6545 29.1603L84.2756 29.1204H84.3223L84.6608 29.097L85.0134 29.0713L85.5481 29.0314L86.0501 28.9916L86.405 28.9612L86.7413 28.9307L86.9561 28.9096C87.4044 28.8651 87.8013 28.823 88.1516 28.7785L88.2893 28.7597L88.5509 28.7246L88.6746 28.7059C89.0948 28.6501 89.5118 28.5719 89.9238 28.4717C88.7493 50.4461 85.5411 74.1233 80.8549 95.2404H80.8572Z" fill="black"/>
</svg>
