<svg width="117" height="79" viewBox="0 0 117 79" fill="none" xmlns="http://www.w3.org/2000/svg">
<path d="M114.197 28.6462C112.833 28.4918 110.885 28.355 108.406 28.2385C103.332 27.998 96.5863 27.8561 89.4359 27.8561C85.3174 27.8561 81.3885 27.8992 77.745 27.9828L81.535 2.78055C81.5791 2.72131 81.6117 2.65431 81.631 2.58302L81.6614 2.39563C81.6614 1.80558 81.156 1.5017 78.0659 1.15476C76.0446 0.929382 73.1415 0.72426 69.4601 0.549526C61.8953 0.197525 51.8569 0 41.2197 0C30.5825 0 20.5491 0.197525 12.9792 0.559655C9.29791 0.734389 6.40994 0.939511 4.38861 1.16489C1.29851 1.51943 0.788126 1.81318 0.783073 2.39563C0.752431 2.47629 0.742864 2.56346 0.75528 2.64887L10.584 69.1085C10.6034 69.2409 10.6742 69.3601 10.7811 69.4403C15.5034 72.9983 26.416 75.4015 39.2615 75.7104C40.2014 75.7324 41.1338 75.7442 42.0585 75.7459C53.2163 75.7459 63.0677 74.1201 68.4646 71.3624L68.9169 74.4215C68.9363 74.5538 69.0072 74.673 69.114 74.7532C73.235 77.8579 82.5558 78.9823 89.9084 79H90.0751C97.4378 79 106.44 77.8782 109.821 74.7178C109.905 74.6403 109.96 74.5368 109.978 74.424L116.736 29.8162C116.742 29.792 116.746 29.7675 116.749 29.7428C116.75 29.7293 116.75 29.7157 116.749 29.7022C116.75 29.682 116.75 29.6617 116.749 29.6415C116.757 29.0767 116.218 28.8691 114.197 28.6462ZM89.4359 28.8691C101.01 28.8691 110.215 29.2236 114.046 29.6288H113.987L113.689 29.6592L113.535 29.6744L113.282 29.6972L112.868 29.7326L112.633 29.7529L112.401 29.7706L111.916 29.8061L111.137 29.8592L110.581 29.8922L110.122 29.92L109.763 29.9403H109.697L109.076 29.9732H108.985L108.603 29.9909C108.325 30.0061 108.04 30.0188 107.749 30.0289C107.635 30.0289 107.519 30.0289 107.403 30.0441H107.304L106.405 30.0821C106.256 30.0821 106.104 30.0821 105.95 30.0973C105.753 30.0973 105.551 30.1125 105.346 30.1201L104 30.1631L103.59 30.1758H103.477L102.956 30.191H102.756L101.9 30.2138L100.571 30.2442L99.6587 30.2619L98.734 30.2796H98.259L97.2862 30.2948L96.3084 30.3075L93.7565 30.3328H93.2259H92.2986H89.4359C84.9991 30.3328 80.6406 30.2822 76.8304 30.1834H76.3251H75.8197L75.3296 30.1682L74.5539 30.1454H74.3366L73.288 30.11L72.8534 30.0948L72.1662 30.0694H72.0398L71.2819 30.039L70.6704 30.0112L70.0817 29.9833H69.9806L69.6244 29.9656L68.9599 29.9302L68.6036 29.9099L68.3206 29.8922L67.7749 29.8592L67.2695 29.8263L66.9613 29.8035L66.7566 29.7883L66.5191 29.7706L66.0315 29.7326L65.6348 29.6972H65.5716L65.233 29.6643H65.2002L64.8844 29.6313H64.8616L65.2583 29.5908L65.6398 29.5528C66.0491 29.5174 66.5141 29.4794 67.0345 29.4414L67.3529 29.4186L68.0326 29.373L68.4469 29.3477L69.5688 29.2844L69.9276 29.2667L70.299 29.2489L70.9382 29.2186L71.3475 29.2008H71.5851L72.482 29.1654L73.0808 29.1426L74.0182 29.1097H74.3442L75.3548 29.0793H75.701L77.1513 29.0413C80.9716 28.9273 85.0976 28.8691 89.4359 28.8691ZM41.2197 1.01295C60.2606 1.01295 74.8798 1.65364 79.3899 2.35004C75.2133 2.96794 61.774 3.54533 41.0352 3.54533C24.1673 3.54533 9.05029 3.03885 3.40322 2.30699C8.28472 1.62072 22.6488 1.01295 41.2197 1.01295ZM39.2843 74.7051C26.79 74.4063 16.2058 72.1322 11.5542 68.7591L1.86701 3.25157L2.18284 3.32248H2.23843C6.511 4.19615 22.5073 4.81151 41.2197 4.81151C51.7609 4.81151 61.7134 4.61905 69.2479 4.26705C76.0446 3.94038 79.0766 3.59851 80.4334 3.29209L76.7192 28.0309L74.7939 28.0866L74.0359 28.1094L73.3057 28.1347H72.9469L71.8984 28.1752L70.8877 28.2183C70.635 28.2183 70.3647 28.2411 70.1095 28.2563L69.5132 28.2866C69.4147 28.2866 69.3161 28.2866 69.2201 28.3018L68.7299 28.3297H68.6541L68.3787 28.3449H68.1614L67.8203 28.3651L67.5222 28.3854L67.2291 28.4057L66.6025 28.4512C65.2937 28.55 64.278 28.6589 63.5831 28.7703C62.7418 28.9071 62.1 29.0565 62.1 29.6237C62.0992 29.6867 62.1094 29.7492 62.1303 29.8086C62.138 29.8336 62.1473 29.8582 62.1581 29.882C62.1581 29.882 62.1707 29.9074 62.1783 29.9175C62.1859 29.9276 62.1783 29.9175 62.1783 29.9302C62.1903 29.9512 62.2048 29.9707 62.2213 29.9884C62.2213 29.9884 62.2213 29.9884 62.2339 30.0036C62.2504 30.0248 62.269 30.0443 62.2895 30.0618L62.34 30.1024L68.2827 70.281C62.7039 73.3148 51.6472 74.9963 39.2843 74.7051ZM109.005 74.0999C103.047 79.3165 77.2069 79.2938 69.8871 74.072L69.3591 70.5115L63.4366 30.467H63.4568L63.7448 30.5151H63.8333L64.0581 30.5455L64.4801 30.5987H64.5534L64.8237 30.6291L65.0612 30.6544C65.2861 30.6772 65.5236 30.7 65.7763 30.7203L66.2007 30.7557L66.4206 30.7734L66.984 30.8165L67.3807 30.8418L67.9593 30.895C68.5657 30.933 69.2226 30.971 69.9099 31.0039L70.9205 31.052L72.1232 31.1026L72.9217 31.133L73.7403 31.1609H74.0384H74.3416L75.3523 31.1913H75.5898L76.8076 31.2242C80.6254 31.323 84.994 31.3736 89.4409 31.3736C96.6015 31.3736 103.338 31.2419 108.409 31.0039C110.887 30.8874 112.835 30.7506 114.2 30.6012H114.311L114.417 30.5886L114.771 30.5455L114.9 30.5278L115.021 30.5126C115.251 30.4797 115.45 30.4468 115.625 30.4113L109.005 74.0999Z" fill="black"/>
</svg>
