<svg width="102" height="84" viewBox="0 0 102 84" fill="none" xmlns="http://www.w3.org/2000/svg">
<path d="M101.802 1.63671C101.776 1.55631 101.725 1.486 101.656 1.43544C101.587 1.38488 101.504 1.35656 101.418 1.35438L37.8079 0C37.7737 0.000371028 37.7397 0.00379487 37.7061 0.0102294L1.21172 8.16718H1.19925C1.12079 8.18149 1.04845 8.21854 0.991487 8.27356C0.953222 8.31262 0.923229 8.35878 0.903254 8.40936C0.88328 8.45994 0.873722 8.51392 0.875137 8.56817V79.585C0.875004 79.69 0.91592 79.7911 0.989409 79.8673C1.0629 79.9435 1.16333 79.9889 1.2699 79.9942L81.4059 84H81.4267C81.5334 84.0001 81.636 83.9598 81.7134 83.8875C81.7791 83.8251 81.8222 83.7431 81.836 83.6543L101.688 70.847C101.746 70.8097 101.793 70.759 101.825 70.6994C101.858 70.6398 101.875 70.5731 101.875 70.5053V1.63671H101.802ZM37.8391 0.818355L99.4983 2.13591L81.3477 9.87549L4.68144 8.23878L37.8391 0.818355ZM81.0111 83.1612L1.70621 79.1963V8.98553L81.0111 10.6877V83.1612ZM101.044 70.2844L81.8422 82.6722V10.5568L101.044 2.37323V70.2844Z" fill="black"/>
</svg>
