<svg width="107" height="91" viewBox="0 0 107 91" fill="none" xmlns="http://www.w3.org/2000/svg">
<path d="M106.875 35.7574C106.878 35.6736 106.861 35.5901 106.825 35.514C106.79 35.4378 106.736 35.3712 106.67 35.3196V35.3196C106.632 35.2898 106.593 35.2626 106.551 35.2383C106.194 35.0326 105.495 34.8962 104.25 34.7599C102.831 34.5948 100.807 34.4489 98.2176 34.3221C92.9361 34.0637 85.9295 33.9202 78.4909 33.9202C72.307 33.9202 66.4971 34.0159 61.6378 34.1953C61.7247 15.3824 61.7319 5.44244 61.662 3.0693C61.7731 2.9491 61.835 2.79216 61.8357 2.62912C61.8456 2.53339 61.8314 2.43673 61.7943 2.34779C61.7573 2.25886 61.6985 2.18044 61.6234 2.11956L61.5413 2.05497C60.9068 1.60522 58.9042 1.09806 52.5779 0.636347C46.9031 0.222482 39.3633 0 31.3578 0C23.3522 0 15.8027 0.222482 10.1255 0.626778C0.875 1.28705 0.875 2.08846 0.875 2.63151V2.65782L0.990812 78.541C0.97151 78.9836 1.21037 79.4668 1.69775 79.9764C3.88853 82.2658 12.9484 86.5647 31.5918 86.5647H31.9561C38.1166 86.5137 44.2555 85.8355 50.2762 84.5408C51.07 87.2848 60.2505 91 78.7949 91H78.8939C89.592 91 96.1234 89.768 99.7184 88.7417C101.364 88.3073 102.952 87.6793 104.447 86.8709C105.603 86.2011 106.303 85.5073 106.448 84.847C106.785 83.2897 106.855 40.5444 106.715 36.133C106.814 36.0318 106.871 35.8979 106.875 35.7574V35.7574ZM61.1794 35.1665L61.6403 35.1474C66.4947 34.9656 72.3119 34.8699 78.4982 34.8699C91.1531 34.8699 101.065 35.2909 104.657 35.7598L104.491 35.7814L104.165 35.822L104.054 35.8364L103.873 35.8555L103.632 35.8818L102.826 35.9584L102.515 35.9847L101.887 36.0349L101.554 36.0589H101.506L101.096 36.0876L100.613 36.1187L99.7184 36.1737H99.6532L98.9101 36.2144L97.8292 36.2694L97.1488 36.3005L95.9665 36.3507L95.1414 36.3818C93.7436 36.4344 92.2348 36.4799 90.615 36.5182H90.1325L89.136 36.5397C88.6317 36.5517 88.1202 36.5612 87.5967 36.5684L86.8053 36.5804H86.0018L84.9113 36.5947C84.1746 36.6043 83.4234 36.6115 82.6578 36.6163H81.5937H78.4982C72.1309 36.6163 66.1376 36.5134 61.1674 36.3148L60.7186 36.2957L59.8572 36.2598L59.049 36.2215L58.4651 36.1928H58.2913L57.9318 36.1737L57.582 36.1546L57.2442 36.1354H57.1598L56.5083 36.0947L56.3008 36.0804C55.6735 36.0397 55.1186 35.9991 54.6288 35.9584L54.3127 35.9321L53.6009 35.8651L53.4296 35.8483L53.1546 35.8196H53.116L52.8747 35.7909L52.4042 35.7335C52.5948 35.7072 52.8096 35.6809 53.0533 35.6522L53.2945 35.6282C53.6154 35.5948 53.9773 35.5589 54.3875 35.5254C54.5612 35.5086 54.7446 35.4943 54.9376 35.4799L55.5529 35.4345L56.2067 35.389L57.2587 35.3244L57.5 35.3101L58.272 35.2694C58.6557 35.2479 59.061 35.2287 59.4784 35.2096L60.1323 35.1809L60.4725 35.1665L60.8199 35.1522L61.1794 35.1665ZM31.3578 0.956913C47.9479 0.956913 58.3806 1.86598 60.5521 2.61476C60.4765 2.64028 60.3961 2.6666 60.3108 2.69371L60.1661 2.73199C60.0647 2.76069 59.9537 2.78701 59.8355 2.81093C59.7173 2.83485 59.6449 2.85399 59.5412 2.87313L59.2492 2.92815C58.7667 3.01587 58.1836 3.10359 57.5 3.1913H57.4083L56.9064 3.2535C56.2518 3.33006 55.5279 3.40342 54.7349 3.47359C54.2524 3.51665 53.7433 3.55892 53.2077 3.60038H53.116L52.286 3.66258L51.8034 3.69607C51.1978 3.73674 50.5657 3.77741 49.907 3.8133C48.428 3.89942 46.8235 3.97597 45.1032 4.04056L44.0199 4.08123L42.7435 4.1219L41.513 4.15539L40.2536 4.18649L39.6142 4.20085H39.3319L37.643 4.22955C36.5878 4.2471 35.5061 4.25906 34.3978 4.26544H32.996H29.5458H28.3177C25.8454 4.2463 23.5276 4.20882 21.3641 4.153L20.7199 4.13625C20.2277 4.12509 19.7452 4.11074 19.2723 4.09319L18.6136 4.07166C17.9605 4.04934 17.3236 4.02541 16.7027 3.99989L15.4963 3.94726H15.395L13.9039 3.89463C13.8154 3.89463 13.7261 3.88985 13.6361 3.88028L13.1535 3.85397L12.8061 3.82765L11.7927 3.76784C10.3451 3.67694 9.03011 3.57646 7.87923 3.4712L7.21331 3.409L6.86346 3.37312L6.39538 3.32527C6.0383 3.28699 5.70051 3.24633 5.38444 3.20805L5.16488 3.18173C4.91154 3.14824 4.68233 3.11714 4.44105 3.08365L4.08397 3.03102L3.77996 2.98318C3.51697 2.94011 3.2781 2.89466 3.05613 2.8516L2.88483 2.81572H2.88724L2.64596 2.7583C2.54463 2.73438 2.45294 2.71045 2.37091 2.68653L2.25027 2.65065L2.13928 2.63151C4.29387 1.87076 14.7266 0.956913 31.3578 0.956913ZM50.1218 35.7574L50.2303 83.5672C44.2247 84.871 38.099 85.5541 31.9513 85.6054C14.7315 85.658 4.8464 81.871 2.39745 79.3161C2.05966 78.962 1.94868 78.7013 1.95591 78.5745V78.5601L1.8401 3.50948L1.99934 3.56211L2.17789 3.61474L2.44329 3.68411L2.66768 3.73674L2.72317 3.74871L2.98134 3.80612L3.26122 3.86114H3.31188L3.62313 3.91616C4.44829 4.0597 5.52197 4.20324 6.91413 4.34199L7.39668 4.38984L8.00228 4.44486L8.8009 4.51184L9.22313 4.54533L10.111 4.61232C15.8341 5.02379 23.3643 5.26302 31.3578 5.26302C32.4081 5.26302 33.4617 5.25903 34.5185 5.25106H35.1506C35.8262 5.25106 36.5017 5.2367 37.1749 5.22714C37.7572 5.22714 38.3362 5.21757 38.9121 5.19843H38.941L40.063 5.1745L41.2042 5.14819L41.7712 5.13384L42.898 5.10034L43.4553 5.0836L44.4204 5.0525C45.3855 5.01901 46.3297 4.98153 47.253 4.94006L48.2495 4.89461L48.7996 4.8659L49.3038 4.83959L50.2931 4.78456C51.107 4.73672 51.8887 4.68648 52.6383 4.63385L53.5237 4.56687L53.9556 4.52141L54.3754 4.48553L54.7856 4.44964C55.8714 4.35156 56.8558 4.2463 57.7219 4.13147L58.0404 4.08841C58.4096 4.03817 58.7642 3.98315 59.0779 3.92813L59.3457 3.88028C59.5387 3.84679 59.7221 3.8109 59.8934 3.77263C60.1347 3.72 60.376 3.66498 60.569 3.60756L60.7282 3.56211C60.7861 6.61466 60.7741 16.6862 60.692 34.2264L60.4001 34.2383L59.3988 34.2838L58.5302 34.3245L57.775 34.3651L56.7689 34.4225L56.5276 34.4369L56.0451 34.468L55.2682 34.5206H55.1041C54.484 34.5685 53.9218 34.6139 53.4152 34.6642C50.6212 34.956 50.1218 35.2024 50.1218 35.7574ZM105.504 84.6581C105.193 86.0384 98.0536 90.0383 78.8939 90.0526H78.7901C58.6484 90.0526 51.5598 85.8398 51.1954 84.2538L51.0869 36.5086L51.2726 36.5493L51.4126 36.578C51.4922 36.5947 51.5766 36.6091 51.6683 36.6234L51.7552 36.6378L52.0302 36.6785C52.4139 36.7335 52.8723 36.7861 53.4176 36.8411C55.2368 37.0229 57.9029 37.188 61.1263 37.3196C66.1111 37.5158 72.1164 37.621 78.4982 37.621C79.8614 37.621 81.2367 37.621 82.5999 37.6043H83.7773H84.1151H84.8847H85.6086L86.3613 37.5923H87.1334L87.8573 37.5803L88.7138 37.5636L89.7537 37.5421L90.2676 37.5301C91.2954 37.5086 92.3015 37.4823 93.2763 37.4512L94.2052 37.4201L94.625 37.4057L95.04 37.3914L95.4502 37.377L95.9327 37.3579L97.419 37.2957L98.097 37.2646H98.179C98.9801 37.2263 99.7401 37.1832 100.452 37.1378L101.238 37.0851L101.984 37.0301L102.242 37.011C103.207 36.932 104.052 36.8483 104.725 36.755L104.966 36.7215C105.273 36.6785 105.538 36.6306 105.765 36.5828C105.953 42.8625 105.745 83.2514 105.504 84.6581Z" fill="black"/>
</svg>
