<svg width="112" height="101" viewBox="0 0 112 101" fill="none" xmlns="http://www.w3.org/2000/svg">
<path d="M111.672 56.8573C111.615 56.7241 111.529 56.6052 111.42 56.5094C111.401 56.4936 111.38 56.4802 111.357 56.4693C109.257 55.3286 95.2216 54.502 77.9876 54.502C74.7043 54.502 71.4379 54.5358 68.2687 54.5969C68.7272 32.3769 68.4356 4.22344 68.4314 3.69841C68.4314 3.1776 68.406 1.96939 58.2435 0.969937C51.8946 0.343695 43.4983 0 34.5971 0C25.6959 0 17.287 0.343695 10.9338 0.96572C0.75016 1.96729 0.750161 3.17971 0.750161 3.69841C0.750161 4.29514 0.71213 63.4908 1.80656 75.8111C1.97845 78.086 2.73446 80.2783 4.00175 82.1769L4.02288 82.2085C4.33346 83.9839 4.70108 85.2976 5.12153 86.1136C7.16038 90.1198 19.7674 93.4239 32.8541 93.4239H33.5449C37.6942 93.3939 41.8393 93.1525 45.9639 92.7007L46.059 92.6902C46.4245 93.0318 46.9041 93.4661 46.9041 93.4661L47.1682 93.6643L47.2887 94.086C47.2901 94.1001 47.2901 94.1142 47.2887 94.1282V94.3981C47.2848 94.6356 47.2982 94.8731 47.3288 95.1087C47.3806 95.5665 47.5518 96.0027 47.8253 96.3738C50.0015 99.3131 63.6903 100.951 75.4585 101H76.9375H77.6622C83.2738 100.956 91.2939 100.747 97.6196 100.013C106.903 98.9336 108.253 97.2615 108.46 96.0976C108.561 95.5776 108.595 95.0468 108.56 94.5183C109.037 93.968 110.565 92.1525 110.742 91.1446L110.816 90.7503C111.038 89.0993 111.226 86.3223 111.374 82.4763C111.714 73.6604 111.748 61.7302 111.75 58.2848V57.0555C111.729 56.9876 111.703 56.9213 111.672 56.8573ZM11.5254 1.75854C17.7751 1.16814 25.9727 0.843424 34.5971 0.843424C43.2215 0.843424 51.4065 1.16814 57.6625 1.75854C66.2658 2.56823 67.4215 3.52129 67.5651 3.69841C67.5407 3.72742 67.5131 3.75359 67.4828 3.77643L67.4468 3.80384L67.4067 3.83125C67.375 3.85234 67.3391 3.87342 67.2968 3.89662L67.1679 3.96198L67.113 3.98939L67.001 4.03789L66.9672 4.05265L66.87 4.09061L66.7369 4.14121L66.625 4.18127C66.5721 4.20025 66.5172 4.21923 66.458 4.2361C66.3637 4.26702 66.2601 4.29865 66.1475 4.33098C66.1094 4.34152 66.0714 4.35418 66.0334 4.36261L65.9129 4.39635L65.7862 4.43008L65.5136 4.49967L65.2474 4.56292H65.2178C65.1164 4.58823 65.0066 4.61142 64.8967 4.63461L64.8354 4.64727L64.5481 4.7063H64.5227C64.415 4.7295 64.3115 4.75058 64.1868 4.77167C63.9755 4.81173 63.7642 4.8518 63.5318 4.88975L63.1367 4.95722C62.879 4.99939 62.6043 5.04157 62.3149 5.08374L61.7676 5.16175C61.4528 5.20392 61.1232 5.2482 60.7746 5.29038L60.6035 5.31146L60.4281 5.33255L60.0711 5.37472L59.7013 5.41689L59.5534 5.43376L59.19 5.48225L58.9682 5.50545L58.7168 5.53286L58.1991 5.58347L57.6625 5.63618C51.4065 6.22658 43.2152 6.55129 34.5971 6.55129C25.979 6.55129 17.7751 6.22868 11.5254 5.63829L10.9888 5.58557L10.469 5.53497L10.2176 5.50756L9.90912 5.48225L9.48656 5.43587L9.29852 5.41478L9.11682 5.39369L8.88864 5.36628L8.44707 5.31357L8.23579 5.28616L7.81323 5.23344L7.70336 5.21868L7.41602 5.18073L6.87726 5.09639C6.43569 5.03102 6.03214 4.96566 5.66029 4.9024L5.44901 4.86445C5.29055 4.83704 5.14055 4.80962 4.99476 4.7801C4.8849 4.76113 4.78348 4.74004 4.67784 4.71896H4.65249L4.47079 4.68311H4.45389H4.42642L4.13274 4.61985L3.94259 4.57768L3.67638 4.51443C3.53271 4.48069 3.3996 4.44484 3.27706 4.41111C3.20734 4.39424 3.13973 4.37526 3.06578 4.35628C2.81859 4.2867 2.61364 4.21923 2.44251 4.15597C2.34321 4.12012 2.25658 4.08639 2.17841 4.05265L2.06432 4.00205C2.0284 3.98518 1.9946 3.97042 1.96502 3.95355L1.92065 3.93035C1.89438 3.91801 1.86897 3.90392 1.84459 3.88818C1.83033 3.87884 1.81752 3.86748 1.80656 3.85445L1.77698 3.83547L1.72416 3.79541L1.6819 3.76378L1.63965 3.72793L1.62697 3.71528L1.61007 3.6942C1.75374 3.52129 2.91155 2.56823 11.5254 1.75854ZM4.99899 82.1326C4.94194 82.0609 4.88912 81.9892 4.83842 81.9218L4.76447 81.8121L4.73489 81.7699V81.7594C3.52982 79.9667 2.81197 77.8923 2.65167 75.7395C1.63542 64.3385 1.59528 12.5733 1.59528 4.69998L1.6988 4.75058L1.81712 4.80119L1.94178 4.8539L2.03896 4.89186L2.1446 4.93192L2.37067 5.01205L2.53336 5.06476H2.56505L2.88408 5.15965L3.09536 5.21658C3.35524 5.28616 3.64258 5.35574 3.96372 5.42743L4.31656 5.50334L4.49403 5.53919L4.67573 5.57503L5.05603 5.64672L5.26731 5.68468L5.42577 5.71209L5.75326 5.76691L6.02158 5.81119L6.29836 5.85547L6.87937 5.94192L7.61674 6.04313L7.9569 6.08741C8.46256 6.15207 9.00414 6.21674 9.58164 6.2814L10.0232 6.32779L10.4775 6.37628L10.9486 6.42267C17.287 7.05524 25.6959 7.38839 34.6119 7.38839C43.5279 7.38839 51.9094 7.0447 58.252 6.42267L59.1774 6.32779L59.4013 6.30459L60.0457 6.2329C60.4683 6.18511 60.8676 6.13661 61.2437 6.08741L61.6155 6.03891L62.3212 5.94192H62.3909L62.5747 5.91451L62.7564 5.8871L63.105 5.83228L63.2635 5.80697L63.4198 5.78167L63.722 5.73106L64.2882 5.62985L64.5396 5.58136C64.7467 5.54059 64.9432 5.50053 65.1291 5.46117L65.3509 5.41056L65.5622 5.36207C65.6996 5.33044 65.8305 5.2967 65.9552 5.26507C66.0799 5.23344 66.1982 5.19971 66.3102 5.16808L66.4433 5.13013C66.7297 5.04754 67.0118 4.95042 67.2884 4.83914C67.3243 4.82438 67.3623 4.80962 67.3961 4.79276C67.4722 4.76113 67.544 4.72739 67.6074 4.69576C67.656 9.91234 67.8504 34.6647 67.4363 54.6159C57.5864 54.8268 46.5407 55.4298 44.6181 56.4693C44.5113 56.5223 44.4148 56.5937 44.3329 56.6802C44.2557 56.7577 44.201 56.8546 44.1744 56.9606C44.1361 57.0237 44.1143 57.0954 44.111 57.1691C44.1077 57.2427 44.123 57.3161 44.1554 57.3823V57.8504C44.1553 57.9453 44.1874 58.0374 44.2462 58.1119H44.1026C44.1026 61.5004 44.1364 73.0974 44.4618 81.8648C44.4618 82.0124 44.4618 82.1579 44.4765 82.3034C44.5005 82.9036 44.5244 83.4779 44.5484 84.0261C44.5484 84.1357 44.5589 84.2369 44.5632 84.3529C44.5801 84.6903 44.597 85.015 44.6139 85.3313C44.6139 85.5147 44.6329 85.6961 44.6435 85.8732C44.6646 86.2675 44.6878 86.6428 44.7111 86.9992C44.7111 87.1278 44.728 87.2522 44.7364 87.3745C44.7533 87.6085 44.7702 87.8342 44.785 88.0534C44.8463 88.8526 44.9118 89.5442 44.9794 90.1241C42.4905 90.2485 39.8897 90.2822 37.3733 90.3159C36.1965 90.3307 34.9816 90.3476 33.7921 90.3729C32.3132 90.4045 30.7624 90.4045 29.1863 90.3602C28.9053 90.3602 28.6242 90.3433 28.3411 90.3328L27.8805 90.3138L26.9953 90.2695C26.4671 90.24 25.9375 90.2056 25.4065 90.1662L24.5318 90.0924L23.8853 90.0313L23.4437 89.9849C23.1077 89.949 22.7739 89.9111 22.4401 89.8689L21.9774 89.8099L21.5548 89.7508L21.0731 89.6813L20.5703 89.6138L20.0907 89.5358C19.6132 89.4556 19.1385 89.3685 18.6667 89.2743L18.2864 89.1921L17.6525 89.055C17.4962 89.0213 17.3419 88.9854 17.1877 88.9475L16.725 88.8357L16.2665 88.7197C15.9369 88.6333 15.6094 88.5426 15.2862 88.4499L14.9186 88.3486C14.7707 88.3023 14.6228 88.258 14.477 88.2095C14.3312 88.161 14.1854 88.1167 14.0396 88.0661C13.8939 88.0155 13.7122 87.9564 13.5516 87.8974C13.3128 87.8131 13.0762 87.7266 12.8438 87.6359L12.7529 87.6001C12.498 87.5031 12.2529 87.4012 12.0177 87.2944L11.8782 87.2332C11.7599 87.1847 11.6416 87.132 11.5254 87.0772C11.1493 86.9085 10.7817 86.7321 10.4225 86.5479L10.0591 86.3539L9.84785 86.238C9.76123 86.1916 9.67883 86.1452 9.59432 86.0946C9.44853 86.0102 9.30275 85.9259 9.17176 85.8373C9.08091 85.7825 8.99006 85.7277 8.90132 85.6687C8.65835 85.5147 8.42171 85.3566 8.19142 85.1921C8.07733 85.1141 7.96535 85.034 7.85549 84.9496C7.74562 84.8653 7.60829 84.762 7.48786 84.6671C7.36743 84.5722 7.30405 84.5195 7.2132 84.4436C7.12235 84.3677 7.00192 84.2623 6.89205 84.1674C6.78219 84.0725 6.69979 83.9987 6.60471 83.9101C6.50964 83.8216 6.41034 83.7267 6.31526 83.6318C6.22018 83.5369 6.12511 83.442 6.03426 83.3471C5.94341 83.2523 5.86946 83.1721 5.78917 83.0836L5.72579 83.014C5.64973 82.9275 5.57367 82.8411 5.49972 82.7525C5.42577 82.664 5.32858 82.5417 5.2483 82.4447C5.15322 82.3435 5.07505 82.2338 4.99899 82.1326ZM33.5217 92.5805H32.8646C20.266 92.5805 7.75196 89.4282 5.86946 85.7298C5.56392 85.0758 5.33493 84.3888 5.18703 83.6824C5.27365 83.7773 5.36239 83.8722 5.45324 83.9649C5.54409 84.0577 5.63494 84.1505 5.72579 84.2412C5.81664 84.3318 5.91383 84.4225 6.0089 84.5111C6.3047 84.7873 6.61528 85.053 6.93642 85.3102C7.10967 85.4452 7.28714 85.5801 7.46884 85.7129C7.59984 85.8078 7.73083 85.9027 7.86394 85.9934L8.19987 86.219L8.49144 86.4067L8.59074 86.4699L8.86963 86.6386L8.90132 86.6576L9.24359 86.8579C9.36191 86.9254 9.48234 86.9928 9.60488 87.0582C9.72742 87.1236 9.88377 87.21 10.0274 87.2817C10.1331 87.3365 10.2387 87.3913 10.3465 87.4441C10.6592 87.6001 10.9803 87.7477 11.3036 87.8932C11.6268 88.0387 11.9564 88.1757 12.2924 88.3149L12.698 88.4709L13.1058 88.6227C13.5185 88.7703 13.9368 88.9109 14.3608 89.0445L14.7833 89.1752L15.227 89.3059C15.6728 89.4324 16.125 89.5526 16.5792 89.6665C17.8131 89.9722 19.085 90.2253 20.3822 90.4319C20.8978 90.5134 21.4168 90.5893 21.9394 90.6596L22.5267 90.7334C23.112 90.8051 23.7014 90.8663 24.2909 90.9232C24.6839 90.9597 25.0769 90.9928 25.4698 91.0223C25.8628 91.0518 26.2558 91.0792 26.6467 91.1024C27.1685 91.134 27.6904 91.1593 28.208 91.1804L28.9834 91.2078L29.9321 91.231L30.849 91.2437H32.2942C32.4547 91.2437 32.6111 91.2437 32.7696 91.2437L33.809 91.2268C34.9964 91.2015 36.1902 91.1868 37.3839 91.1699C38.7255 91.153 40.0904 91.134 41.4489 91.1024L42.4673 91.075C42.7293 91.075 42.9891 91.0602 43.249 91.0497L44.2188 91.0139L45.1125 90.9717H45.1801C45.1801 91.0286 45.1991 91.0792 45.2076 91.1319C45.2586 91.3987 45.3372 91.6594 45.4421 91.91C41.6855 92.3148 37.5825 92.5468 33.5302 92.5805H33.5217ZM107.613 95.9542C107.18 98.4402 95.9759 100.013 77.6559 100.157H76.9333C76.4473 100.157 75.9614 100.157 75.4733 100.157C62.317 100.095 50.2191 98.1724 48.5056 95.8678C48.317 95.6105 48.2003 95.3077 48.1676 94.9906C48.1525 94.8808 48.1433 94.7703 48.1401 94.6596C53.8447 97.9679 67.0729 98.5477 77.1932 98.455C78.3742 98.4444 79.5616 98.436 80.749 98.4297C91.4587 98.3622 102.528 98.2947 107.729 95.018C107.719 95.3311 107.683 95.6428 107.622 95.95L107.613 95.9542ZM110.465 82.4594C110.311 86.335 110.117 89.0887 109.887 90.6449L109.821 91.0856C109.694 91.4777 109.286 92.5932 108.564 93.3501C108.362 93.5692 108.124 93.7518 107.86 93.8899C107.757 93.9701 107.649 94.0481 107.539 94.124L107.406 94.2125C102.49 97.4555 91.427 97.5209 80.7257 97.5862C79.5362 97.5862 78.3467 97.601 77.1657 97.6115C62.7142 97.757 52.7862 96.4645 48.4507 93.8836C48.3261 93.8077 48.1803 93.7191 48.0451 93.6264L46.7774 92.6079L46.433 92.0449C46.2296 91.7218 46.0864 91.3647 46.0104 90.9907C45.9872 90.8726 45.9661 90.7461 45.9449 90.6111C45.9449 90.5668 45.9301 90.5205 45.9238 90.4741C45.6935 88.9179 45.5012 86.1642 45.3449 82.2886L45.328 81.8838C45.0005 73.1754 44.9709 61.5446 44.9688 58.5652C45.7886 58.8457 47.5528 59.1978 51.5185 59.5373C55.6891 59.8978 61.269 60.1698 67.6581 60.3027C70.9879 60.3765 74.4402 60.4123 77.9136 60.4123C86.7726 60.4123 95.1392 60.1762 101.471 59.7439C107.199 59.3538 109.711 58.9321 110.822 58.5526C110.85 61.2199 110.827 73.5086 110.474 82.4447L110.465 82.4594ZM110.93 57.5932C110.825 57.6654 110.71 57.7209 110.588 57.7577C108.279 58.5695 96.6626 59.5626 77.9347 59.5626C74.4655 59.5626 71.0217 59.5267 67.6961 59.4529C54.2081 59.1577 47.4809 58.3987 45.4949 57.8483C45.317 57.8042 45.1447 57.7398 44.9815 57.6565V57.4055L45.0195 57.4667L45.0871 57.4266C46.4985 56.6823 54.0074 55.7967 67.8356 55.4699L68.2391 55.4593V55.4467C71.4189 55.3855 74.6937 55.3518 77.9833 55.3518C94.0976 55.3518 105.887 56.0708 109.764 56.8636C110.147 56.9304 110.521 57.0371 110.882 57.182C110.939 57.3087 110.959 57.4492 110.939 57.5869L110.93 57.5932Z" fill="black"/>
</svg>
