<svg width="127" height="103" viewBox="0 0 127 103" fill="none" xmlns="http://www.w3.org/2000/svg">
<path d="M119.949 0L56.7928 4.02936L56.4166 4.0497V4.29785V25.5268L0.875 26.4421L1.01068 95.3725V95.7467L86.7807 103L87.048 102.858L87.2289 102.75L94.9299 94.5304L119.949 96.3102H120.111H120.128L120.288 96.182L126.661 89.0325L126.867 3.3134V3.05101L120.144 0.0366121M1.83095 94.9982L1.69732 27.2557L86.1907 25.8542L86.3963 102.158L1.83095 94.9982ZM94.5475 93.5744L87.2186 101.544L87.013 26.0353L94.8004 28.2056L94.5475 93.5744ZM119.569 95.4742L95.3657 93.7473L95.633 27.8923V27.5831L87.013 25.183L86.1907 25.0549L57.243 25.5125V4.81652L119.565 0.840044L119.569 95.4742ZM125.849 88.7213L120.391 94.8375V1.03734L126.055 3.57171L125.849 88.7213Z" fill="black"/>
</svg>
