<svg width="105" height="109" viewBox="0 0 105 109" fill="none" xmlns="http://www.w3.org/2000/svg">
<path d="M49.2182 22.4574C49.2182 21.8687 48.4874 21.6091 47.3072 21.3843C45.9026 21.1403 44.4868 20.9686 43.0653 20.8698C39.35 20.5662 34.4408 20.4062 29.2207 20.4062C24.0006 20.4062 19.0983 20.5731 15.3875 20.8698C13.9674 20.9685 12.5532 21.1403 11.1501 21.3843C9.97445 21.6161 9.24364 21.8687 9.24364 22.4574C9.2413 22.4859 9.2413 22.5146 9.24364 22.5432C9.24364 22.5432 9.24364 22.5432 9.24364 22.5571L0.0313006 100.047C-0.0720299 100.891 0.0818884 101.748 0.472128 102.5C0.862368 103.253 1.46999 103.864 2.21239 104.251C6.07073 106.24 14.1119 108.451 23.3197 108.914C24.3955 108.968 25.5371 109 26.7242 109C33.4195 109 41.5333 107.959 47.482 103.85C47.9898 103.495 48.4047 103.018 48.6904 102.461C48.976 101.905 49.1238 101.285 49.1206 100.656L49.2137 22.622C49.2159 22.5965 49.2159 22.5709 49.2137 22.5455C49.2181 22.5164 49.2197 22.4868 49.2182 22.4574ZM29.2207 21.3264C39.3704 21.3264 46.0294 21.9313 47.8973 22.4574C46.0294 22.9835 39.3704 23.5884 29.2207 23.5884C19.071 23.5884 12.4256 22.9835 10.5623 22.4574C12.4279 21.9406 19.0801 21.3356 29.2207 21.3356V21.3264ZM48.2173 100.645C48.2224 101.123 48.1125 101.596 47.8972 102.021C47.682 102.446 47.368 102.811 46.9827 103.083C41.6809 106.745 33.2969 108.485 23.3788 107.987C14.3003 107.524 6.41571 105.366 2.63 103.424C2.05271 103.124 1.57993 102.65 1.27612 102.066C0.972318 101.482 0.852266 100.817 0.932335 100.16L10.0789 23.2732C10.4297 23.3866 10.7876 23.4757 11.1501 23.5398C12.5532 23.7838 13.9674 23.9555 15.3875 24.0543C19.0983 24.3579 24.012 24.5178 29.2321 24.5178C34.4522 24.5178 39.3613 24.351 43.0767 24.0543C44.4982 23.9555 45.9139 23.7838 47.3186 23.5398C47.6573 23.4837 47.9923 23.4063 48.3217 23.308L48.2173 100.645Z" fill="black"/>
<path d="M104.98 99.4917L95.0393 3.27904C95.0393 3.23065 95.0393 3.18686 95.0393 3.14538C95.0393 2.68448 95.0393 1.91478 88.5107 1.30179C84.5714 0.92385 79.3304 0.71875 73.7635 0.71875C68.1967 0.71875 62.9604 0.92385 59.021 1.29257C52.5017 1.90326 52.5017 2.67527 52.5017 3.13616C52.5017 3.17764 52.5017 3.22143 52.5017 3.26982C52.4994 3.28819 52.4994 3.30676 52.5017 3.32513L52.578 99.6714C52.5806 100.18 52.695 100.681 52.9131 101.141C53.1311 101.6 53.4476 102.006 53.8402 102.331C59.6822 107.226 68.0788 109 76.4198 109C87.8657 109 99.2052 105.658 103.676 102.46C104.136 102.123 104.498 101.671 104.727 101.15C104.956 100.629 105.043 100.057 104.98 99.4917ZM73.7635 1.64055C85.2626 1.64055 92.5125 2.46786 93.9435 3.13386C92.5125 3.79986 85.2626 4.63639 73.7635 4.63639C62.2645 4.63639 55.0377 3.80908 53.6021 3.14308C55.0308 2.46786 62.2715 1.64055 73.7635 1.64055ZM103.138 101.713C99.693 104.179 91.2641 107.173 80.9002 107.919C74.3808 108.38 62.2761 108.198 54.4344 101.628C54.1468 101.389 53.915 101.09 53.7553 100.753C53.5955 100.415 53.5117 100.047 53.5096 99.6737L53.4333 4.03722C54.2841 4.35063 55.9093 4.67787 59.028 4.95902C62.9581 5.32774 68.2036 5.53284 73.7705 5.53284C79.3374 5.53284 84.5783 5.32774 88.5223 4.95902C91.7357 4.65713 93.3771 4.32067 94.1955 3.99804L104.06 99.5815C104.109 99.9864 104.05 100.397 103.888 100.772C103.726 101.146 103.467 101.471 103.138 101.713Z" fill="black"/>
</svg>
