<svg width="83" height="93" viewBox="0 0 83 93" fill="none" xmlns="http://www.w3.org/2000/svg">
<path d="M82.75 48.8461L82.7296 48.4143V47.9126L82.7093 47.501V47.0286L82.5962 44.7297C82.5962 44.7297 82.5962 44.7095 82.5962 44.6982L82.5464 44.2483L82.526 43.8209C82.526 43.8209 82.526 43.8007 82.526 43.7917L82.4763 43.3418L82.4559 42.8919C82.4549 42.8845 82.4549 42.8769 82.4559 42.8694L82.3202 41.4973L82.2704 41.0789L82.2274 40.6133C82.2274 40.6133 82.2274 40.5953 82.2274 40.584L81.8541 37.8645C81.8554 37.8548 81.8554 37.8449 81.8541 37.8352L81.7637 37.3854L81.6279 36.4856L81.4583 35.5588L81.3587 35.1247L81.2999 34.6748C81.3012 34.6674 81.3012 34.6598 81.2999 34.6523L81.2139 34.2024L81.1076 33.7278L80.999 33.2914L80.809 32.3691L80.6981 31.9193L80.6009 31.4694L80.0195 29.1772C80.0017 29.1019 79.9615 29.0337 79.9041 28.9815V28.9815C79.7027 28.7093 79.0241 28.3449 74.6285 28.0075C71.7034 27.7826 67.7286 27.6296 63.3987 27.5711V27.4564V26.8356L63.3783 26.2642V25.6434L63.2833 23.8304L63.2335 22.6089C63.2335 22.6089 63.2335 22.5842 63.2335 22.5729L63.1634 21.9791L63.1317 21.3965L63.0706 20.7981L63.039 20.1728L62.7381 17.1788C62.7381 17.1788 62.7381 17.1608 62.7381 17.1518L62.6363 16.5445L62.5752 15.9686L62.4892 15.3478L62.3897 14.7359L62.3377 14.1758C62.3388 14.1661 62.3388 14.1563 62.3377 14.1466L62.2404 13.5303L62.1182 12.9184L62.0277 12.3516L61.9418 11.7285L61.8377 11.1099L61.7201 10.5115L61.5889 9.92219L61.5097 9.33059C61.5097 9.33059 61.5097 9.31485 61.5097 9.30585L61.3943 8.7075L60.926 6.94396L60.8106 6.32537C60.8127 6.31573 60.8127 6.30576 60.8106 6.29613L60.6591 5.70453L60.5324 5.11518L60.0799 3.2909L59.917 2.68581L59.77 2.07621C59.7461 1.97154 59.684 1.87938 59.5958 1.81753C59.2904 1.52061 58.5778 1.31591 57.2521 1.10896C55.8608 0.884022 53.8791 0.699569 51.3589 0.530863C46.1806 0.188951 39.3328 0 32.0687 0C24.8046 0 17.9612 0.188951 12.792 0.530863C10.2741 0.699569 8.29462 0.899768 6.9056 1.10896C5.57992 1.31591 4.86957 1.52061 4.56643 1.81753C4.48056 1.87872 4.41894 1.96784 4.39223 2.06947L4.23387 2.6993L4.09361 3.29765L3.91716 3.88925L3.3335 6.31862L3.2136 6.91697L3.06429 7.50631L2.92855 8.12715L2.8177 8.71875L2.68197 9.30585V9.34409L2.60279 9.93119L2.49194 10.5228L2.35846 11.1099C2.35737 11.1226 2.35737 11.1354 2.35846 11.1481L2.27024 11.742L2.1707 12.3313L2.04627 12.9094C2.04521 12.9206 2.04521 12.9319 2.04627 12.9432L1.96483 13.555L1.85398 14.1713L1.76802 14.7629L1.70693 15.3748L1.60513 15.9709C1.60637 15.9828 1.60637 15.9949 1.60513 16.0069L1.55536 16.5715L1.46487 17.1766C1.46487 17.1766 1.46487 17.1946 1.46487 17.2058L1.40605 17.7907L1.33366 18.3778L1.27032 18.9941L1.21829 19.6014L1.08481 20.7824C1.08481 20.7824 1.08481 20.8026 1.08481 20.8116L1.05314 21.4145L0.998848 22.0083L0.833703 25.027L0.781672 26.2777V27.4722L0.75 28.0683V30.5246L0.781672 31.1207V32.3512L0.833703 33.5951L0.874424 34.1642L1.00111 36.6206L1.05088 37.2234L1.08255 37.833C1.08255 37.833 1.08255 37.8532 1.08255 37.8622L1.15721 38.4651L1.21602 39.0679L1.23639 39.6618C1.2375 39.6707 1.2375 39.6798 1.23639 39.6888L1.29973 40.3276C1.29864 40.3381 1.29864 40.3486 1.29973 40.3591L1.39927 40.9597L1.4513 41.5558L1.67752 43.4093L1.77028 44.0549L1.92637 45.2786L2.02139 45.9084L2.24761 47.1366L2.42407 48.3985C2.42407 48.3985 2.42407 48.4165 2.42407 48.4255L2.54623 49.0081L2.88105 50.9359L3.01226 51.5117L3.12763 52.1618C3.12658 52.1753 3.12658 52.1888 3.12763 52.2023L3.28825 52.7916L3.3991 53.4192L3.52579 54.0491L3.6751 54.6991L3.83572 55.3357L3.94883 55.9296C3.9479 55.9393 3.9479 55.9491 3.94883 55.9588L4.11171 56.5819L4.25876 57.241L4.41938 57.8866L4.60036 58.5164L4.74741 59.1327L5.27451 61.0605L5.43061 61.7106C5.43061 61.7106 5.43061 61.7263 5.43061 61.7331L5.9826 63.6833L6.37397 64.9655L6.55947 65.6156V65.6381L6.77213 66.2544L6.96894 66.9292L7.16802 67.5793L8.27426 70.8567L8.48239 71.5315C8.48171 71.5413 8.48171 71.551 8.48239 71.5608L8.97556 72.8565L9.20179 73.5448L10.4415 76.8897L10.7175 77.5487L10.9437 78.2236V78.2461L11.2152 78.8984L11.4708 79.5935L12.568 82.304C12.6015 82.3832 12.6563 82.4517 12.7264 82.502C16.1062 84.8931 24.6236 86.3575 33.0188 86.3575C36.1771 86.3759 39.3318 86.1419 42.4524 85.6579L42.5045 85.7929L42.7149 86.29L42.9071 86.8096L43.1062 87.2955L43.3008 87.8286L43.9229 89.3739L44.1288 89.8801C44.1623 89.958 44.2162 90.0256 44.2849 90.0758C46.7733 91.8371 53.3339 93 59.8198 93C65.3804 93 70.8732 92.1407 73.6354 90.0758C73.7002 90.0266 73.7508 89.9615 73.7824 89.8868L73.9928 89.3739L74.1964 88.8453L74.6172 87.8421C74.6214 87.834 74.6252 87.8258 74.6285 87.8173L74.8072 87.3202L75.0199 86.8006L75.2031 86.308L75.4158 85.7794L76.3433 83.251L76.5039 82.7606L76.6962 82.2343L76.8455 81.7619L77.0355 81.2468L77.2029 80.7564L77.5242 79.7599L78.0196 78.2888C78.0206 78.2783 78.0206 78.2678 78.0196 78.2573L78.1486 77.7737L78.601 76.3273L78.7978 75.8054C78.8029 75.7939 78.8067 75.7818 78.8091 75.7694L78.9268 75.2858L79.2186 74.3186V74.2916L79.3272 73.8237L79.4652 73.3288L79.5851 72.8475L79.7254 72.3593L79.9516 71.4191L80.0918 70.9467V70.9197L80.2095 70.4113L80.2977 69.9614L80.4131 69.4936L80.8429 67.5546L80.9244 67.1047L81.0307 66.6053L81.1099 66.1554L81.2162 65.6561L81.2976 65.2062L81.3994 64.7203V64.6866L81.4605 64.2367L81.5533 63.7485L81.8949 61.4294L81.9808 60.9435L82.0442 60.4419L82.0849 59.992L82.1573 59.5241L82.2093 59.0518L82.3428 57.6594L82.4898 56.267C82.4888 56.2573 82.4888 56.2475 82.4898 56.2377L82.5079 55.8036L82.5509 55.32L82.6437 53.4777L82.6753 53.0278L82.6957 52.5352V52.1011L82.7183 51.6174V51.1675L82.7409 50.6817L82.75 48.8461ZM62.9394 28.4777H62.962C71.6921 28.5856 76.5356 29.0085 78.3725 29.3572H78.3363L78.2232 29.3774L78.083 29.4022L77.8567 29.4359L77.7029 29.4584L77.5581 29.4786L77.3636 29.5056L76.9111 29.5596L76.6215 29.5934H76.5582L76.3591 29.6159H76.3071L75.9745 29.6496H75.9587L75.6329 29.6788H75.6307L75.3253 29.7058L75.099 29.7261L74.6737 29.7598L74.4475 29.7778L74.2213 29.7936H74.1104L73.8616 29.8116L73.0743 29.8633L72.83 29.879H72.7327L72.2622 29.906H72.192L71.5134 29.942L70.9342 29.9713C70.4954 29.9915 70.0429 30.0118 69.5769 30.0298L68.7647 30.0612H68.6109L68.2919 30.0725H68.0091L67.4029 30.0905C66.9504 30.1062 66.4866 30.1175 66.0093 30.1287L65.1632 30.1467L64.29 30.1625H63.8375H63.3851H62.9326C61.6612 30.1827 60.331 30.1917 58.9805 30.1917C57.878 30.1917 56.8155 30.1865 55.793 30.176H55.0351L54.1076 30.1625C53.2027 30.149 52.3136 30.131 51.472 30.1085L51.0196 30.0972L50.5807 30.0837L50.1509 30.0702L49.5672 30.05L48.9994 30.0298L48.4994 30.0118L47.9022 29.987L47.3525 30.0298L46.2598 29.9758L45.7056 29.9443C45.1113 29.9098 44.5518 29.8745 44.027 29.8385L43.7691 29.8206H43.6876L43.1243 29.7778L42.8528 29.7553L42.3506 29.7103L42.009 29.6788L41.6267 29.6406L41.4005 29.6181L40.9842 29.5709C40.8666 29.5709 40.758 29.5461 40.6494 29.5304C40.3802 29.4966 40.1381 29.4629 39.9255 29.4269C39.8395 29.4157 39.7581 29.3999 39.6812 29.3864L39.5703 29.3662C41.8733 28.9298 48.7438 28.4664 58.9918 28.4664C60.3288 28.4484 61.6612 28.4574 62.9394 28.4777ZM32.0687 0.899768C46.7733 0.899768 56.1617 1.63308 58.4556 2.24942C56.164 2.87476 46.7733 3.59907 32.0687 3.59907C17.364 3.59907 7.98922 2.87926 5.70208 2.24942C7.98922 1.63308 17.3798 0.899768 32.0687 0.899768ZM13.3779 81.8226L12.335 79.2516L12.0794 78.552L11.8034 77.8929L11.5772 77.2181V77.1956L11.3057 76.541L10.0773 73.2321L9.85106 72.5573V72.5348L9.34657 71.2391L9.14071 70.5643L8.05483 67.2981L7.66345 65.9867V65.9642L7.4508 65.3479L6.85809 63.4336L6.49387 62.1065L6.31063 61.4901L6.15453 60.8378L5.79257 59.5556L5.62969 58.9258L5.47812 58.2982L5.29713 57.6639L5.1433 57.0453L4.99399 56.3817L4.83337 55.7586L4.72026 55.1648C4.72118 55.155 4.72118 55.1452 4.72026 55.1355L4.55738 54.4989L4.41259 53.8713L4.29043 53.2618L4.17732 52.6229C4.17837 52.6094 4.17837 52.5959 4.17732 52.5824L4.0167 51.9953L3.90358 51.3475L3.77237 50.7582L3.43756 48.8371L3.3154 48.2545L3.13894 46.9994L2.92403 45.7599L2.41955 42.0641L2.30643 40.8562C2.30643 40.8562 2.30643 40.8315 2.30643 40.8202L2.20463 40.2174L2.14581 39.6078L2.12545 39.0139C2.12657 39.0042 2.12657 38.9944 2.12545 38.9847L2.06211 38.3571L1.99198 37.7655L1.96031 37.1582L1.91054 36.5531L1.78385 34.1012L1.74313 33.5343L1.69336 32.3309V31.1095C1.69448 31.102 1.69448 31.0944 1.69336 31.087L1.6549 30.4909V28.102L1.68431 27.5059C1.68531 27.4984 1.68531 27.4909 1.68431 27.4834V26.2935L1.91054 22.0713L1.96483 21.4752L1.99424 20.8724L2.12771 19.6869L2.17975 19.0773L2.24083 18.479L2.31548 17.8851L2.36525 17.2913L2.458 16.6862C2.458 16.6862 2.458 16.6682 2.458 16.6592L2.50777 16.1013L2.60279 15.521C2.60279 15.521 2.60279 15.5008 2.60279 15.4895L2.66161 14.8799L2.74305 14.3176L2.84937 13.7012L2.92855 13.0894L3.05298 12.5113L3.1593 11.8882L3.23848 11.2898L3.37195 10.705L3.48959 10.0752L3.56877 9.4858L3.70224 8.90095L3.81309 8.30711L3.94657 7.71101L4.09588 7.11266L4.21578 6.50982L4.79944 4.11644L4.96911 3.50909L5.09127 2.99398C5.68012 3.1872 6.28612 3.32428 6.90107 3.40337C8.28784 3.62831 10.2696 3.81726 12.7829 3.98372C17.9454 4.32788 24.791 4.51683 32.0596 4.51683C39.3283 4.51683 46.1806 4.32788 51.3476 3.98372C53.8678 3.81726 55.8518 3.62157 57.2408 3.40337C57.8554 3.32362 58.4613 3.18733 59.0506 2.99623L59.1886 3.51584L59.6411 5.31538L59.77 5.90923L59.9216 6.50307L60.0369 7.12616L60.4487 8.9032L60.5595 9.47905L60.641 10.0752V10.1111L60.7744 10.7072L60.8853 11.2853L60.9871 11.8769L61.0708 12.4978L61.1681 13.0894L61.288 13.7012L61.3807 14.2838L61.4305 14.8462C61.4292 14.8566 61.4292 14.8672 61.4305 14.8777L61.5323 15.4963L61.6137 16.0901L61.6748 16.6682C61.6748 16.6682 61.6748 16.6862 61.6748 16.6952L61.7744 17.298L61.8875 18.47L62.0232 19.6892L62.073 20.2493L62.1046 20.8791L62.1657 21.4775L62.1974 22.0556C62.1974 22.0556 62.1974 22.0736 62.1974 22.0826L62.2675 22.6741L62.4123 25.6794V26.2935L62.4327 26.8648V27.5082V27.5711C61.3015 27.5554 60.1297 27.5486 58.942 27.5486C53.5669 27.5486 48.4813 27.6836 44.6197 27.9288C39.2491 28.2707 38.317 28.6756 38.0591 28.9658C37.9885 29.0236 37.9386 29.1025 37.9166 29.1907L37.7922 29.6406C37.7909 29.648 37.7909 29.6556 37.7922 29.6631L37.6904 30.113L37.566 30.5471L36.8126 33.7615L36.7334 34.2114L36.6316 34.6433C36.6293 34.6575 36.6293 34.6719 36.6316 34.686L36.5706 35.1359L36.3873 36.0155C36.3873 36.0155 36.3873 36.0312 36.3873 36.038L36.2471 36.9377L36.1543 37.3876V37.4191L36.0932 37.869L35.9507 38.7687C35.9496 38.78 35.9496 38.7913 35.9507 38.8025L35.91 39.2524L35.8376 39.7023L35.4417 43.3508L35.41 43.8007L35.367 44.2663L35.2019 47.492V48.3783L35.1815 48.8529V50.6952L35.2019 51.1451V52.0921L35.3693 55.3155L35.5344 57.1533L35.5571 57.6346L35.5978 58.1093C35.5967 58.122 35.5967 58.1348 35.5978 58.1475L35.677 58.5974L35.7584 59.4971C35.7575 59.5069 35.7575 59.5167 35.7584 59.5264L35.8285 59.9763L35.9439 60.9435L36.014 61.3934L36.1294 62.3269C36.1294 62.3269 36.1294 62.3472 36.1294 62.3562L36.2199 62.806L36.3624 63.7216L36.4258 64.2052C36.4247 64.2156 36.4247 64.2262 36.4258 64.2367L36.609 65.1657L36.6837 65.6448L36.9687 67.1002L37.0796 67.5501L37.2696 68.5128L37.4958 69.4756L37.575 69.9255C37.575 69.9367 37.575 69.948 37.575 69.9592L37.6949 70.4091L37.8012 70.9242L37.9302 71.4258L38.0727 71.8937L38.1768 72.3593L38.5772 73.8012L38.6903 74.2848V74.3118L38.8328 74.7865L39.1043 75.7829L39.2536 76.2913L39.4052 76.7412L39.5567 77.2563L39.7174 77.7264L39.8554 78.2371L40.8915 81.204L41.0476 81.7079C41.0476 81.7079 41.0476 81.7259 41.0476 81.7349L41.4163 82.7202L41.5679 83.2128V83.2375L42.1402 84.7761C32.1954 86.3575 17.9296 84.9043 13.3779 81.8226ZM81.8451 50.6727L81.8247 51.1563V51.6062L81.8021 52.0898V52.5239L81.7818 52.9851L81.7501 53.435L81.6867 54.8161L81.6143 55.7519L81.594 56.2017L81.2682 59.4229L81.1936 59.8863C81.1936 59.8975 81.1936 59.9065 81.1936 59.9155L81.1528 60.3654L81.094 60.8288L80.671 63.6158L80.5782 64.0995C80.5774 64.1077 80.5774 64.116 80.5782 64.1242L80.5172 64.5741L80.4153 65.0555L80.3362 65.5053L80.2298 66.0047L80.1484 66.4546L80.0421 66.954L79.9629 67.4039L79.653 68.83L79.4267 69.7927L79.3363 70.2539L79.2254 70.733L79.0851 71.2054C79.0841 71.2136 79.0841 71.2219 79.0851 71.2301L78.8589 72.1591L78.7209 72.645L78.5988 73.1309L78.4608 73.6325L78.3454 74.0734L78.0513 75.0519L77.9314 75.5378L77.7685 76.0259L77.4812 76.9909L77.3183 77.4948L77.1871 77.9851L77.0265 78.4575L76.5356 79.9444L76.2098 80.9184L76.0153 81.4447L75.8682 81.9194L75.6759 82.439L75.5153 82.9294L74.5968 85.4307L74.3864 85.9593L74.2055 86.4474L73.9905 86.9716L73.8073 87.4732L73.3684 88.4877L73.1648 89.014L73.0065 89.4032C67.3259 93.4949 49.4157 92.3972 44.9296 89.4032L44.5654 88.4854L44.1582 87.4934L43.9659 86.9603L43.7645 86.4699L43.57 85.9458L43.3573 85.4464L43.1922 84.9966V84.9808L43.1786 84.9381L42.4366 82.9383L42.2828 82.4435V82.421L41.914 81.4312L40.7829 77.9986L40.6471 77.4925C40.6478 77.4828 40.6478 77.473 40.6471 77.4633L40.4865 76.9976L40.3372 76.4893L40.1879 76.0394L40.0454 75.5558L39.9097 75.0451L39.6291 74.0801L39.5138 73.592L39.2378 72.618L39.1156 72.1681L39.0115 71.7047C39.0126 71.6943 39.0126 71.6837 39.0115 71.6733L38.8713 71.2054L38.7514 70.742L38.6428 70.2246L38.5229 69.7747L38.4437 69.3249C38.4445 69.3144 38.4445 69.3039 38.4437 69.2934L38.2175 68.3486L38.0252 67.3814L37.9166 66.9315L37.6383 65.5166L37.5637 65.0375L37.3805 64.0995L37.3171 63.6203L37.1701 62.6756L37.0796 62.2144L36.9665 61.2899L36.8941 60.8401L36.7787 59.8796L36.7086 59.4297L36.6271 58.5299C36.6271 58.5187 36.6271 58.5052 36.6271 58.4939L36.5479 58.044L36.471 57.5851L36.4484 57.1015L36.2833 55.266L36.1181 52.0808V51.1338L36.0978 50.6839V48.8844L36.1181 48.4098V47.5235L36.281 44.3383L36.324 43.8884L36.3534 43.4385L36.4054 42.9662L36.4891 42.0664L36.5932 41.1666L36.6316 40.7167L36.7448 39.817L36.8171 39.3671C36.8171 39.3558 36.8171 39.3446 36.8171 39.3356L36.8556 38.8857L36.928 38.4651L37.0615 37.5428L37.1542 37.0929L37.299 36.1932L37.4823 35.2934V35.2642L37.5411 34.8143L37.6383 34.3936V34.3689L37.7153 33.919L38.1293 32.0992L38.455 30.7496L38.5794 30.3177C38.5807 30.308 38.5807 30.2981 38.5794 30.2884L38.6383 30.0208L38.7627 30.059L38.8984 30.0972L39.197 30.1647C39.4097 30.2097 39.6495 30.2524 39.9164 30.2929C40.9684 30.4571 42.4683 30.6034 44.3753 30.7293C48.2732 30.9858 53.4493 31.1275 58.9488 31.1275C60.3062 31.1275 61.6386 31.1275 62.9145 31.0982C67.5228 31.042 71.7373 30.8733 74.8004 30.6348C76.3252 30.5156 77.5151 30.3784 78.3454 30.2299L78.5354 30.194L78.7141 30.158C78.877 30.1242 79.0263 30.0882 79.1666 30.0477L79.248 30.023H79.2616L79.567 31.1882L79.7751 32.0992L79.8837 32.5491L80.076 33.4781L80.1869 33.928L80.2864 34.3779L80.3678 34.8098L80.4289 35.2597V35.3001L80.5285 35.7365L80.6913 36.6206L80.757 37.0862L80.8316 37.5361L80.9221 37.9859L81.0352 38.8857L81.1053 39.3513L81.2207 40.2511L81.2908 40.701L81.5171 42.9347L81.5374 43.3846C81.5374 43.3846 81.5374 43.4026 81.5374 43.4138L81.5872 43.8637L81.6076 44.2911C81.6086 44.3008 81.6086 44.3106 81.6076 44.3203L81.6573 44.7702L81.7704 47.0331V47.5077L81.7908 47.9194V48.4143L81.8112 48.8641L81.8451 50.6727Z" fill="black"/>
</svg>
