<svg width="61" height="106" viewBox="0 0 61 106" fill="none" xmlns="http://www.w3.org/2000/svg">
<path d="M60.7421 96.8895C60.0448 85.122 53.6781 4.93543 53.514 2.83221C53.514 2.81384 53.514 2.80236 53.514 2.79547C53.4889 2.24211 52.8737 1.87703 51.4062 1.53721C49.8069 1.20481 48.189 0.970183 46.5616 0.834604C42.3414 0.425899 36.7357 0.196289 30.786 0.196289C24.8362 0.196289 19.2169 0.425899 14.9876 0.834604C13.3617 0.970545 11.7454 1.20517 10.1476 1.53721C8.68464 1.87244 8.0671 2.23981 8.05115 2.79088C7.99646 3.27076 3.68511 51.374 0.759229 96.8619C0.679474 98.1018 1.11699 99.2452 2.0581 100.258C6.84343 105.415 23.8427 105.998 30.9273 105.998H31.1551C46.1765 105.998 55.9249 104.067 59.3475 100.409C60.3547 99.3555 60.8173 98.1707 60.7421 96.8895ZM30.786 1.11473C43.3987 1.11473 51.1988 2.07679 52.4863 2.83221C51.192 3.58073 43.2256 4.57035 30.786 4.57035C18.3464 4.57035 10.3595 3.58073 9.06518 2.83221C10.3527 2.07679 18.1596 1.11473 30.786 1.11473ZM58.7049 99.7825C56.4376 102.203 49.8179 105.082 31.1848 105.082H30.9387C16.2158 105.061 5.93421 103.073 2.7326 99.6172C1.96012 98.786 1.61603 97.8997 1.67756 96.9078C4.37784 54.8089 8.27902 10.4575 8.86921 3.74146C9.28246 3.90825 9.70947 4.0381 10.1453 4.1295C11.7437 4.46406 13.3608 4.70099 14.9876 4.83899C19.2283 5.25688 24.8385 5.48879 30.786 5.48879C36.7335 5.48879 42.3277 5.25918 46.5662 4.83899C48.1915 4.70123 49.807 4.4643 51.4039 4.1295C51.8373 4.03818 52.2619 3.90912 52.6731 3.74376C53.3773 12.6182 59.1675 85.7557 59.8329 96.9445C59.8921 97.964 59.5139 98.9284 58.7049 99.7825Z" fill="black"/>
</svg>
