<svg width="101" height="106" viewBox="0 0 101 106" fill="none" xmlns="http://www.w3.org/2000/svg">
<path d="M100.811 60.7428C100.811 60.6757 100.811 60.6149 100.811 60.5624V60.4806C100.811 60.4219 100.811 60.3904 100.811 60.3884V60.3716V60.1849V59.9751V60.1849C100.832 60.1171 100.842 60.0462 100.84 59.9751C100.84 59.2872 99.9048 58.9264 99.0917 58.6831C97.7716 58.3331 96.4267 58.0835 95.0686 57.9364C91.5826 57.4959 86.9001 57.2379 81.887 57.2065C81.3752 57.2065 80.8465 57.2065 80.3346 57.2065C76.9434 57.2296 73.6912 57.3554 70.875 57.5693C71.0456 43.8414 70.9445 32.1207 70.9087 28.834C70.9076 28.7448 70.878 28.6583 70.8242 28.587C70.7705 28.5158 70.6953 28.4634 70.6096 28.4375H70.5906C70.5764 28.4321 70.5615 28.4285 70.5464 28.4271L70.5253 28.3767C70.4074 28.0977 70.1272 27.8691 69.6449 27.6615C68.7054 27.242 66.9445 26.8938 64.5517 26.6127L64.3179 26.5855L64.0377 26.554L63.8271 26.5309L63.5764 26.5037L63.3658 26.4827L62.854 26.4324L62.4664 26.3967C62.1083 26.3652 61.7397 26.3338 61.3627 26.3044L60.9688 26.275H60.874L60.4527 26.2457L59.9472 26.2121C59.2732 26.1681 58.5717 26.1303 57.8408 26.0947H57.8303L56.5539 26.0401L55.9767 26.0213H55.8967C55.4564 26.0066 55.0078 25.994 54.557 25.9835C53.2406 25.952 51.9283 25.9374 50.6582 25.9374C49.388 25.9374 48.0484 25.952 46.7003 25.9835C46.159 25.9982 45.6219 26.0129 45.0953 26.0317C43.6608 26.0821 42.298 26.1513 41.0405 26.2415C40.9773 13.2225 40.8826 2.95953 40.8783 2.69316C40.8783 2.27366 40.8594 1.39692 34.7699 0.702653C31.0669 0.232819 26.1486 0 20.9185 0C15.6884 0 10.7722 0.232819 7.05658 0.654412C0.948144 1.34868 0.948144 2.22542 0.948144 2.64701C0.762784 5.54782 0.916548 73.4996 1.56109 82.5146C2.21617 91.6302 11.1282 95.6322 19.9054 95.6322C20.1392 95.6322 20.373 95.6322 20.6047 95.6322C25.8432 95.4959 31.2776 95.1414 35.2038 92.5195C37.7925 95.1456 41.5124 96.446 46.8709 96.6096L47.3048 96.6201C47.5555 96.6201 47.8083 96.6201 48.061 96.6201C48.4107 96.6201 48.7624 96.6201 49.1142 96.6075C49.466 96.5949 49.8304 96.5886 50.1863 96.574C50.9299 96.5404 51.6945 96.5173 52.4317 96.4963H52.4781C55.4775 96.3999 58.8603 96.2866 61.7839 95.2379C62.2663 99.0133 64.2062 101.834 67.5575 103.638C70.3758 105.157 74.2051 105.945 78.9444 106H79.1551C79.5047 106 79.8691 106 80.2735 105.983C84.5747 105.859 89.3983 105.717 93.2361 104.112C97.0738 102.508 99.9216 99.437 100.267 93.4508C101.082 79.2635 100.859 63.5094 100.811 60.7428ZM70.142 58.4629H70.1714C73.1372 58.2112 76.6485 58.0664 80.3304 58.0434H80.8654C81.2109 58.0434 81.5395 58.0434 81.8723 58.0434C86.6305 58.0727 91.1255 58.3118 94.5294 58.7146C98.8811 59.2305 99.7826 59.8073 99.9574 59.973C99.9375 59.9921 99.9156 60.0089 99.8921 60.0234L99.8627 60.0444C98.5757 60.9085 91.8311 61.8608 81.8744 61.9321H80.3283C76.6611 61.9069 73.1288 61.758 70.1167 61.5H70.0598C66.0388 61.1497 63.1446 60.6086 62.319 60.0549C62.2839 60.0334 62.2514 60.008 62.2221 59.9793C62.5485 59.6416 64.5243 58.9537 70.1272 58.4776L70.142 58.4629ZM45.1248 26.8351C45.6492 26.8162 46.1779 26.8015 46.7361 26.7868C48.061 26.7554 49.3796 26.7407 50.6582 26.7407C51.9367 26.7407 53.2279 26.7554 54.536 26.7868C54.9867 26.798 55.4305 26.8106 55.8672 26.8246H55.9472L56.5244 26.8456L57.7882 26.9001C63.4248 27.1665 67.7218 27.7391 69.2847 28.4103C69.4289 28.4658 69.5639 28.5429 69.6849 28.6389L69.6596 28.662L69.6027 28.706L69.5585 28.7333C69.4967 28.7707 69.4327 28.8043 69.3668 28.834L69.3057 28.8612C69.0235 28.9765 68.7336 29.0718 68.4379 29.1465C68.3663 29.1675 68.2884 29.1884 68.2083 29.2073C68.0482 29.2472 67.8734 29.287 67.686 29.329L67.4858 29.3709L67.3953 29.3898L67.2352 29.4213L67.1615 29.4359L66.9508 29.4758L66.8834 29.4884L66.5717 29.5429L66.2073 29.6037L65.9967 29.6352C65.8134 29.6646 65.6217 29.6939 65.4216 29.7212C64.9477 29.7883 64.4295 29.8554 63.8692 29.9184L63.6228 29.9456L63.2942 29.9813L62.8729 30.0232L62.776 30.0337L62.6391 30.0463L62.2178 30.0862L61.7102 30.1302V30.1554L61.5312 30.1701L61.5501 30.449L61.5143 30.1701L61.0572 30.2057H60.9856C60.6297 30.2309 60.261 30.2561 59.8798 30.2791C59.3672 30.3099 58.8336 30.3393 58.279 30.3672H58.18H58.0178L57.5333 30.4134H57.3985C57.2089 30.4134 57.0151 30.4301 56.8235 30.4385H56.7329C56.0841 30.4616 55.4185 30.4826 54.7424 30.4994C53.9757 30.5182 53.1984 30.5308 52.4254 30.5392H51.6439H49.8451H49.0995C48.3054 30.5392 47.5155 30.5182 46.7361 30.4994C45.6514 30.4721 44.5982 30.4343 43.5766 30.3882L43.3259 30.3735L42.199 30.3127L41.9884 30.3022L41.3565 30.2623L41.0005 30.2393L40.6509 30.2141H40.5455C40.2296 30.191 39.9136 30.168 39.6293 30.1428L38.9426 30.0841L38.5403 30.0484L38.4202 30.0358L37.9442 29.9939C37.6619 29.9666 37.3923 29.9372 37.1332 29.9058L36.9226 29.8806C36.441 29.8233 35.9979 29.7652 35.5935 29.7065L35.4271 29.6834L35.0058 29.6184C32.8447 29.2765 31.8589 28.9179 31.5704 28.685L31.5935 28.6683L31.5767 28.6536C31.6731 28.5753 31.7802 28.5111 31.8947 28.4627L31.9685 28.4291C33.2323 27.8796 36.3918 27.3804 40.6614 27.0826C42.0221 26.9693 43.5281 26.8917 45.1248 26.8351ZM61.6239 30.986H61.5944H61.6239ZM61.072 31.03H60.9772H61.053H61.072ZM20.9185 0.838989C32.1707 0.838989 39.1869 1.88773 39.9958 2.64911C39.9754 2.66881 39.9535 2.68704 39.9305 2.70364L39.8799 2.7372C39.4761 2.94449 39.045 3.09418 38.5993 3.18187C38.5066 3.20494 38.4076 3.22801 38.3065 3.24899C38.1569 3.28255 38.0011 3.31611 37.8347 3.34757L37.5145 3.40839C37.3649 3.43776 37.2091 3.46503 37.0469 3.49229L36.6909 3.54892L36.3328 3.60346C35.6462 3.70624 34.8689 3.80272 34.0158 3.89291L33.6872 3.92647C33.3292 3.96422 32.9563 3.99778 32.5688 4.03344L32.0632 4.07539L31.1744 4.14251C30.7889 4.17187 30.3908 4.19704 29.9822 4.22221C29.0301 4.28094 28.0148 4.33128 26.9427 4.37113L26.1486 4.40469L25.6557 4.41938H25.5209C25.2007 4.42986 24.8764 4.43616 24.5457 4.44455H24.394L23.4777 4.45923L22.4246 4.47181H21.4472H20.3793H19.3998L18.3551 4.46133L17.4283 4.44455H17.285C16.9543 4.44455 16.63 4.42986 16.3098 4.41938H16.175L15.68 4.40469L14.8985 4.37743C13.8257 4.33688 12.8118 4.28724 11.857 4.22851C11.4483 4.20613 11.0509 4.17956 10.6648 4.1488L9.77588 4.08168L9.2851 4.03973C8.89332 4.00617 8.51418 3.97052 8.14978 3.93276L7.82329 3.89291C6.95969 3.80342 6.18314 3.70693 5.49366 3.60346L5.14611 3.55102L4.7775 3.49229C4.61531 3.46503 4.45944 3.43776 4.30989 3.40839L3.98972 3.35596L3.56845 3.26786L3.23143 3.19026C2.78518 3.10209 2.35344 2.95243 1.94866 2.74559L1.89811 2.71203C1.87507 2.69543 1.85324 2.6772 1.83281 2.6575C2.63955 1.88773 9.66003 0.838989 20.9185 0.838989ZM20.5836 94.7848C11.9918 94.9946 3.03344 91.2611 2.40364 82.4559C1.79069 73.8856 1.62007 11.9954 1.75909 3.5657C1.81596 3.59087 1.87915 3.61814 1.94445 3.64331L2.1256 3.71253L2.28147 3.76706C2.4921 3.83628 2.7217 3.9034 2.99552 3.97681C3.06503 3.99569 3.13875 4.01456 3.20616 4.03134L3.35782 4.067L3.51369 4.10266C3.74117 4.1509 3.99183 4.20124 4.26355 4.25158L4.66376 4.32079L4.87439 4.35435C5.21562 4.40889 5.58634 4.46552 5.98866 4.52005C6.32567 4.5662 6.68375 4.61025 7.065 4.65429C10.7869 5.07379 15.7011 5.31919 20.9269 5.31919C26.1528 5.31919 31.0564 5.08218 34.7847 4.65429L35.3386 4.58717L35.604 4.55361C37.4998 4.30611 38.7278 4.04183 39.5071 3.78594L39.7177 3.71672L39.8989 3.64751L40.0527 3.58039C40.0779 6.40149 40.1538 15.3724 40.2064 26.2583L39.8146 26.2876L39.2354 26.3359L38.8141 26.3736C37.7378 26.4722 36.7541 26.5834 35.8652 26.7008C35.604 26.7365 35.3534 26.7721 35.1111 26.8099L34.8352 26.8539C34.4856 26.9106 34.1549 26.9693 33.8452 27.0301C33.6999 27.0574 33.5609 27.0868 33.424 27.1161C32.9437 27.2189 32.5266 27.3259 32.177 27.4391L32.0464 27.4769C31.92 27.5188 31.8021 27.5629 31.6967 27.6069H31.7452H31.6862L31.6209 27.6342L31.5851 27.651V27.6384L31.4103 27.716C31.3989 27.7199 31.3883 27.7256 31.3787 27.7328L31.326 27.7601L31.2144 27.823C31.1758 27.8452 31.1385 27.8698 31.1027 27.8964L30.9932 27.9803L30.8963 28.0726C30.8792 28.0892 30.8636 28.1075 30.85 28.1271L30.81 28.1775C30.7891 28.2022 30.7708 28.2289 30.7552 28.2572C30.7405 28.2844 30.7257 28.3117 30.7131 28.3411C30.7115 28.3458 30.7115 28.351 30.7131 28.3557C30.7035 28.376 30.6958 28.3971 30.6899 28.4187C30.6792 28.4515 30.6714 28.4852 30.6667 28.5193C30.6636 28.5549 30.6636 28.5907 30.6667 28.6263C30.6657 28.6445 30.6657 28.6627 30.6667 28.6808C30.6657 28.7004 30.6657 28.72 30.6667 28.7396C30.6707 28.7795 30.6792 28.8189 30.692 28.857L30.7046 28.8885C30.5467 34.2727 30.513 65.8481 31.0332 80.5514C31.2081 85.5371 32.3876 89.2538 34.633 91.8882C30.8732 94.3192 25.6389 94.6548 20.5836 94.7848ZM61.171 59.9668C61.171 60.0377 61.1809 60.1083 61.2005 60.1765C61.1674 60.2328 61.1479 60.296 61.1436 60.3611C60.9814 62.6431 60.9604 84.1255 61.4975 94.1514C61.4975 94.2479 61.508 94.3464 61.5164 94.4429C58.7108 95.4539 55.389 95.5609 52.4486 95.6553H52.4043H52.259C51.5639 95.6741 50.8477 95.6972 50.1526 95.7287C49.803 95.7434 49.447 95.7538 49.0995 95.7622H48.9394C48.4023 95.7748 47.8609 95.7769 47.3259 95.7622L46.9046 95.7517C41.624 95.5923 38.0285 94.3003 35.5914 91.6847C33.2576 89.1846 32.038 85.535 31.861 80.5262C31.3576 66.3389 31.3724 36.4394 31.5156 29.5723L31.5767 29.6016L31.6209 29.6205L31.7368 29.6688C31.7768 29.6876 31.8189 29.7023 31.8652 29.7191C31.9979 29.7673 32.1454 29.8177 32.3097 29.8701L32.5667 29.9456L32.8489 30.0232C33.2997 30.1386 33.8431 30.254 34.4982 30.3672L34.6814 30.3987H34.7362L35.1406 30.4637L35.2965 30.4868L35.6188 30.535L35.7894 30.5581L36.1306 30.6042L36.3286 30.6294L36.6488 30.6693L36.8594 30.6944L37.2491 30.7385L37.3397 30.749L37.6535 30.7825L37.9948 30.8161C38.8057 30.8958 39.7051 30.9734 40.7014 31.0447L41.0658 31.0699C42.8352 31.1894 44.733 31.2796 46.7214 31.3237H46.8625C47.5997 31.3404 48.337 31.3551 49.0952 31.3635H49.8472H51.6355C51.8988 31.3635 52.1621 31.3635 52.4233 31.3635C53.2111 31.3635 53.9925 31.3425 54.7656 31.3237C55.4438 31.3069 56.1136 31.2859 56.7666 31.2628H56.8572L57.4406 31.2398H57.5712L58.2389 31.2083H58.3042C61.2763 31.0636 67.7344 30.6357 70.064 29.5912C70.104 33.6896 70.182 44.779 70.0261 57.6134C61.171 58.3517 61.171 59.5242 61.171 59.9689V59.9668ZM61.3816 59.757L61.369 59.8241V59.7528L61.3816 59.757ZM99.4266 93.4005C98.7821 104.601 88.937 104.888 80.2588 105.146C79.8649 105.146 79.5068 105.163 79.1656 105.163H78.955C68.6865 105.056 63.172 101.503 62.5654 94.6023V94.5897L62.5549 94.5059C62.5443 94.3737 62.538 94.2395 62.5296 94.1052C62.0241 84.6184 62.0156 65.4202 62.1483 61.0973C64.0104 61.7853 67.7723 62.1796 70.0114 62.3558H70.0556C73.133 62.6033 76.6864 62.7396 80.3304 62.7522H81.887H82.5737H83.1403L84.0671 62.7375L84.779 62.7249H84.9897L85.5921 62.7082L85.9523 62.6977L86.3736 62.6851C86.9001 62.6683 87.4169 62.6487 87.9238 62.6264L88.5052 62.5991C89.6574 62.5446 90.759 62.4753 91.7953 62.3893C92.107 62.3663 92.4125 62.339 92.7137 62.3138L93.0107 62.2866L93.3772 62.253L94.0912 62.1817L94.2661 62.1628C94.6873 62.1167 95.1086 62.0684 95.5004 62.0181L95.6794 61.995H95.7553L96.0038 61.9615L96.4862 61.8922L96.9074 61.8272H96.9496L97.3898 61.7538L97.6215 61.7119L98.2766 61.586C98.853 61.4733 99.4216 61.3233 99.9785 61.1371C100.031 64.6945 100.21 79.7753 99.4203 93.4026L99.4266 93.4005Z" fill="black"/>
</svg>
