<svg width="113" height="77" viewBox="0 0 113 77" fill="none" xmlns="http://www.w3.org/2000/svg">
<path d="M112.808 26.6285C112.644 26.1136 111.878 25.7803 110.181 25.4445C108.116 25.0814 106.034 24.8233 103.943 24.6708C98.6477 24.2231 91.5664 23.9495 83.9467 23.8997C85.5168 16.0244 86.1022 8.94499 86.4072 4.26354L86.4469 3.73122H86.4048C86.3179 3.12925 85.5689 2.60688 82.6842 2.06461C80.5239 1.66413 77.4532 1.30095 73.5491 0.994993C65.5401 0.35571 54.9217 0 43.651 0C32.3803 0 21.7769 0.350735 13.7728 0.994993C9.86873 1.30095 6.80055 1.66413 4.65009 2.0671C1.76296 2.60937 1.0139 3.13174 0.927087 3.73122H0.875L0.919646 4.27101C1.66375 13.313 2.90392 24.0415 6.51034 35.0536C10.598 47.5706 17.0196 58.5678 26.1423 68.6694C27.0203 69.642 34.0794 72.0275 43.1674 72.04H43.2567C50.8465 72.04 58.801 70.5798 60.6637 68.8386C61.2987 68.2416 61.9188 67.6396 62.5066 67.0451C64.3095 69.6503 66.2789 72.1355 68.4024 74.4852C69.0771 75.2314 74.1692 76.9925 80.9902 77H81.0646C86.752 77 92.5064 75.9354 93.9152 74.617C110.782 58.8115 112.334 34.9839 112.843 27.1558L112.875 26.626L112.808 26.6285ZM111.642 26.8549C111.276 27.0044 110.897 27.1185 110.509 27.1956L110.295 27.2429L109.943 27.315L109.574 27.3822H109.517L109.095 27.4519C108.567 27.5364 107.969 27.621 107.307 27.7006L106.766 27.7653L106.319 27.815L105.642 27.8847L105.245 27.9245L104.419 28.0016L103.99 28.0389L103.1 28.111C102.644 28.1459 102.172 28.1832 101.686 28.2155C101.401 28.2379 101.111 28.2578 100.818 28.2752C100.776 28.2752 100.734 28.2752 100.694 28.2752L100.181 28.3075C99.496 28.349 98.7866 28.3888 98.0525 28.4269H98.0376C97.668 28.4468 97.2935 28.4667 96.909 28.4817C96.2989 28.5115 95.6688 28.5364 95.0264 28.5638L93.7491 28.611L91.3803 28.6832L90.723 28.7006L90.0583 28.7155L88.9744 28.7404L87.3126 28.7677L86.122 28.7851H85.7574H85.1695H84.9389H83.0265H81.3473C78.7926 28.7851 76.3494 28.7603 74.0378 28.7155L73.3482 28.7006L72.6661 28.6856L71.9915 28.6682C71.1002 28.645 70.2304 28.6193 69.3821 28.5911L68.2585 28.5513C64.9101 28.4245 61.9485 28.2528 59.4583 28.0538L58.7638 27.9941C58.3992 27.9643 58.0445 27.9319 57.7022 27.8996L57.0027 27.8324L56.5067 27.7802L56.1297 27.7379L55.7626 27.6956C55.2839 27.6409 54.8349 27.5837 54.4207 27.5265L53.8304 27.4394H53.7957L53.2797 27.3548C53.1929 27.3548 53.1061 27.3275 53.0317 27.3101L52.558 27.2205L52.1363 27.131L51.8635 27.0638C51.7122 27.024 51.5757 26.9867 51.4542 26.9469L51.3178 26.9021C51.2335 26.8723 51.1541 26.8399 51.0871 26.8101C51.1466 26.7827 51.2161 26.7554 51.293 26.728C51.3699 26.7006 51.4616 26.6708 51.5609 26.6409L51.6948 26.6036C51.7642 26.5837 51.8362 26.5638 51.9131 26.5464L52.1611 26.4892L52.4612 26.4245L52.6348 26.3897C52.8531 26.3474 53.0912 26.3051 53.3467 26.2628L53.6741 26.2081L54.0238 26.1559L54.3909 26.1036L54.7754 26.0514L55.1003 26.0091L55.4352 25.9668C55.6336 25.9419 55.837 25.9171 56.0503 25.8947H56.1396L56.5116 25.8549C56.8886 25.8134 57.283 25.7736 57.6948 25.7355L58.1139 25.6957L58.8928 25.626L59.4112 25.6211C60.1503 25.5614 60.9333 25.5042 61.76 25.4494L63.4467 25.345L64.0122 25.3126L65.0589 25.2604L65.6542 25.2305L66.2569 25.2007L66.9415 25.1733C67.2391 25.1733 67.5392 25.146 67.8468 25.136L68.772 25.1012L69.6004 25.0738C70.4272 25.0456 71.2796 25.0208 72.1577 24.9992H72.49L73.3259 24.9818C75.8162 24.9287 78.49 24.9014 81.3473 24.8997H83.3316H83.7384C100.53 24.9942 109.889 26.0663 111.642 26.8648V26.8549ZM14.6608 1.91785C22.5383 1.32334 32.8367 0.994993 43.6535 0.994993C54.4703 0.994993 64.7811 1.32334 72.6736 1.91785C82.6917 2.67653 84.8694 3.55959 85.3357 3.86306C85.0166 4.04726 84.6735 4.18623 84.3163 4.27598L84.2419 4.29837C83.8153 4.42274 83.2894 4.54712 82.6669 4.66154L82.0046 4.78094C81.8012 4.81825 81.5879 4.85308 81.3647 4.8879L81.0472 4.93516C81.0154 4.94256 80.983 4.94755 80.9505 4.95009L80.7372 4.98243C80.5115 5.01725 80.2758 5.04959 80.0328 5.08193L79.4399 5.15904L79.1175 5.19884C78.8174 5.23615 78.5073 5.27346 78.1874 5.30829C77.6219 5.37296 77.0257 5.43598 76.399 5.49734L75.6698 5.56698C74.9257 5.63663 74.1436 5.7038 73.3234 5.76847L72.8273 5.80827C71.4235 5.9144 69.9179 6.01473 68.3106 6.10926C67.5417 6.15403 66.748 6.19632 65.9345 6.23612L63.9502 6.33064L62.6678 6.38288H62.4421L61.0804 6.43512L60.1553 6.46745L57.8361 6.53959C57.2657 6.55783 56.6869 6.57276 56.0999 6.58436C55.6733 6.5968 55.2392 6.60675 54.8027 6.61421L53.5476 6.63909H53.0764C52.1809 6.65401 51.2707 6.66894 50.348 6.67889H49.8519L48.0859 6.6963C46.6374 6.70791 45.1574 6.71371 43.6461 6.71371C42.1347 6.71371 40.6548 6.71454 39.2063 6.7162H37.4527H36.9566C36.0314 6.7162 35.1236 6.69133 34.2282 6.6764H33.7619L32.4944 6.65153C32.0604 6.65153 31.6313 6.63411 31.2047 6.62168C30.6292 6.60841 30.0604 6.59349 29.4982 6.5769C28.7144 6.55452 27.943 6.53213 27.184 6.50477L26.2489 6.47243L24.9095 6.42268H24.6466L23.466 6.37293L23.218 6.36049L22.6003 6.33313L21.4073 6.27592C20.6632 6.2386 19.9191 6.19881 19.2023 6.15901C17.5272 6.03297 15.9654 5.91606 14.5169 5.80827L14.0208 5.76847C12.7484 5.66648 11.5628 5.56201 10.4739 5.45007L10.0523 5.40779C9.73975 5.37545 9.43715 5.34311 9.14199 5.30829C8.84683 5.27346 8.5095 5.23615 8.20938 5.19884C7.75548 5.14411 7.32142 5.0869 6.91216 5.02969L6.60708 4.97496L6.33176 4.94263L5.96963 4.8879C5.70175 4.84561 5.4438 4.80333 5.19824 4.75855L5.01718 4.72622C4.76914 4.67895 4.52111 4.63169 4.27307 4.58443L4.03992 4.53468C3.82661 4.48742 3.6257 4.44264 3.43968 4.39289C3.35287 4.37299 3.27101 4.35061 3.19164 4.32822C3.02298 4.28096 2.8692 4.23618 2.72782 4.18892L2.56908 4.13171C2.36799 4.06366 2.17501 3.97356 1.99364 3.86306C2.46738 3.5571 4.64761 2.67653 14.6608 1.91785ZM59.9866 68.1147C58.4984 69.5052 51.2756 71.0475 43.2641 71.0475H43.1674C33.9702 71.035 27.4172 68.6023 26.8765 68.0053C8.068 47.1577 3.71996 25.4022 1.97131 4.95506L2.09285 5.00233L2.21191 5.0471C2.45994 5.13665 2.73278 5.22371 3.04778 5.30829L3.20652 5.35057L3.35287 5.38789L3.54385 5.43266L3.71996 5.47495L3.90102 5.51475C4.08457 5.55455 4.27803 5.59683 4.47894 5.63663L4.8882 5.71375C5.17096 5.76598 5.46364 5.81573 5.77368 5.86548L6.14077 5.92518L6.24495 5.94011L6.59964 5.99234C7.15027 6.07194 7.73398 6.14988 8.35076 6.22617L8.7377 6.27094L9.14199 6.3182L9.45948 6.35303L9.98283 6.40775C10.9105 6.50394 11.8935 6.59597 12.932 6.68386L13.2767 6.7162C15.1171 6.86794 17.1064 7.00226 19.2097 7.11917L19.9538 7.15897C21.6901 7.25101 23.4958 7.3331 25.3535 7.40772L26.8864 7.46493H26.9558L28.5805 7.51717C30.7582 7.58185 32.988 7.63408 35.2327 7.67139L36.0761 7.68383L36.9194 7.69627L38.3183 7.71368L40.1041 7.72861H40.8358H43.6659H46.4935H47.2376C48.0214 7.72861 48.8027 7.71617 49.5865 7.70622H50.4323L51.2781 7.69378L52.1214 7.68134L53.4806 7.65647L54.3686 7.63906C55.2516 7.62164 56.1321 7.59926 57.0052 7.57687L57.8783 7.552C58.4562 7.53707 59.0341 7.51966 59.6145 7.49976L61.2268 7.44503C62.1073 7.4127 62.9754 7.38036 63.8311 7.34305L65.1581 7.28335L65.9245 7.24603L66.681 7.20872L67.0655 7.18882C67.9361 7.14405 68.7893 7.0943 69.6227 7.04455C70.1783 7.01221 70.7215 6.9749 71.2573 6.94007L71.6219 6.9152L71.9815 6.89033L73.3011 6.79083L73.7302 6.75849L74.6802 6.67889H74.7447L75.4019 6.62168L75.7269 6.59183L76.2229 6.54457L76.8133 6.48735L77.1035 6.4575L77.5995 6.40775L77.9617 6.36795L78.5098 6.30577C79.1398 6.23114 79.75 6.15652 80.3056 6.07941L81.0125 5.97742L81.2407 5.94259L82.0369 5.81325L82.1063 5.80081L82.709 5.69136L82.9 5.65405C83.2795 5.57693 83.6293 5.50231 83.9517 5.42271L84.108 5.38291L84.4651 5.28839L84.5519 5.26351L84.8198 5.18142C84.8442 5.17545 84.8683 5.16798 84.8917 5.15904C85.0803 5.09685 85.2489 5.03218 85.4002 4.96999C85.0038 11.3304 84.1927 17.658 82.972 23.9122H81.382C73.0779 23.8798 65.2896 24.1485 59.4112 24.6261L58.7043 24.6833L58.2876 24.7206C57.8659 24.7579 57.4641 24.7952 57.0821 24.835H56.9333L56.6084 24.8698C55.8816 24.9445 55.2318 25.0216 54.6539 25.0987L53.9718 25.1957H53.8899L53.5427 25.2504C53.2401 25.2977 52.9598 25.3474 52.7068 25.3947L52.5604 25.4246C52.047 25.5241 51.6303 25.626 51.293 25.7255L51.1714 25.7629L51.1268 25.7778L51.0301 25.8101C50.8492 25.868 50.6727 25.9386 50.5018 26.0216L50.4422 26.0514C50.3556 26.0933 50.2727 26.1424 50.1942 26.1982C50.1775 26.2083 50.1617 26.22 50.1471 26.233C50.1198 26.2554 50.0925 26.2778 50.0702 26.3001C50.058 26.3111 50.0464 26.3228 50.0354 26.335L50.0106 26.3623C49.9594 26.4196 49.9198 26.4864 49.8941 26.5588C49.8934 26.568 49.8934 26.5771 49.8941 26.5862C49.8931 26.5945 49.8931 26.6028 49.8941 26.6111H49.8296L49.8742 27.1509C50.0528 29.305 50.2636 31.4841 50.539 33.6855C50.5861 34.0661 50.6357 34.4317 50.6853 34.8247C50.6865 34.8463 50.6865 34.8679 50.6853 34.8894C50.7374 35.265 50.7895 35.6357 50.844 36.0212C50.8986 36.4068 50.9631 36.8197 51.0276 37.2227C51.0574 37.4242 51.0896 37.6232 51.1243 37.8246C51.1243 37.8769 51.1417 37.9291 51.1491 37.9814C51.1814 38.163 51.2111 38.3445 51.2409 38.5236C51.3103 38.9316 51.3848 39.337 51.4592 39.745C51.5336 40.1529 51.6129 40.5584 51.6948 40.9663C51.7345 41.1703 51.7766 41.3743 51.8188 41.5783C51.861 41.7822 51.9056 41.9962 51.9503 42.2051C52.0726 42.7673 52.2 43.3303 52.3322 43.8941C52.3446 43.9414 52.3571 43.9911 52.367 44.0384C52.6977 45.4164 53.0697 46.7995 53.4831 48.1875C53.503 48.2572 53.5253 48.3268 53.5451 48.3964C53.6071 48.593 53.6667 48.792 53.7287 48.9885C53.7907 49.185 53.8601 49.4039 53.9271 49.6103C53.9941 49.8168 54.0611 50.0258 54.1305 50.2322L54.3785 50.9785C54.4356 51.1451 54.4951 51.3118 54.5546 51.476C54.6142 51.6401 54.6613 51.7745 54.7159 51.9237C54.7828 52.1103 54.8498 52.2968 54.9217 52.4834C55.0309 52.7819 55.145 53.0804 55.2615 53.3789C55.3285 53.553 55.398 53.7296 55.4674 53.9037L55.6534 54.3639C55.7229 54.5356 55.7923 54.7047 55.8643 54.8763C56.1371 55.5397 56.4232 56.1964 56.7225 56.8464C56.8167 57.0554 56.9134 57.2618 57.0102 57.4683C57.1069 57.6748 57.2061 57.8837 57.3053 58.0902C57.4046 58.2966 57.5062 58.5056 57.6079 58.712C57.7096 58.9185 57.8138 59.1274 57.9205 59.3339C58.0271 59.5404 58.1313 59.7518 58.2404 59.9583C58.3496 60.1647 58.4562 60.3712 58.5678 60.5801C58.6795 60.7891 58.7911 60.9955 58.9052 61.202L59.1954 61.7294C59.2276 61.7866 59.2599 61.8438 59.2946 61.901C59.5128 62.2915 59.7361 62.6796 59.9692 63.0701L60.3438 63.6945C60.4678 63.9009 60.5918 64.1099 60.7257 64.3163C60.9837 64.7309 61.2474 65.1455 61.517 65.5601C61.6509 65.769 61.7898 65.9755 61.9287 66.1844C61.3185 66.8386 60.6637 67.4779 59.9866 68.1147ZM93.2381 73.8931C92.2906 74.7787 87.2084 76.0075 81.067 76.0075H80.9902C74.3156 76.0075 69.5806 74.2663 69.1391 73.821C66.91 71.3562 64.8547 68.7388 62.9878 65.9879C61.2832 63.4679 59.7565 60.8314 58.419 58.0976C58.357 57.9733 58.2975 57.8489 58.2379 57.7245C57.7989 56.8166 57.3897 55.9086 56.9978 55.0007C56.8324 54.6193 56.6737 54.2387 56.5216 53.859C56.4298 53.6301 56.3405 53.4038 56.2512 53.1749C56.1619 52.9461 56.0925 52.7694 56.018 52.568C55.8742 52.1915 55.7353 51.8167 55.6013 51.4436C55.6013 51.4113 55.579 51.3814 55.5691 51.3516C55.4352 50.9785 55.3054 50.607 55.1797 50.2372C55.0333 49.7994 54.8895 49.3641 54.7531 48.9288C54.6861 48.7273 54.6241 48.5233 54.5646 48.3218C54.505 48.1203 54.4405 47.9189 54.381 47.7174C53.7808 45.705 53.2822 43.7001 52.863 41.7076C52.8209 41.5086 52.7787 41.3096 52.739 41.1106C52.7068 40.9639 52.677 40.8146 52.6497 40.6678C52.6224 40.5211 52.5852 40.3494 52.5555 40.1902C52.4935 39.8719 52.4339 39.551 52.3769 39.2326C52.3198 38.9142 52.2653 38.6132 52.2132 38.3047C51.9784 36.9283 51.7733 35.5602 51.5981 34.2004C51.57 34.0064 51.5452 33.8123 51.5237 33.6183C51.474 33.2303 51.4269 32.8422 51.3823 32.4542C51.3649 32.2975 51.3451 32.1383 51.3277 31.9816C51.2359 31.1731 51.1541 30.3697 51.0797 29.5687C51.0648 29.402 51.0474 29.2354 51.0325 29.0712C50.9953 28.6657 50.9581 28.2603 50.9234 27.8548C51.0598 27.9021 51.2136 27.9518 51.3798 27.9991L51.6105 28.0613L51.8585 28.1235L52.0272 28.1633L52.2107 28.2031C52.3645 28.2379 52.5282 28.2702 52.7068 28.3026C53.379 28.4294 54.1603 28.5513 55.0408 28.6633L55.4128 28.7105L55.7973 28.7553L56.1917 28.8001L56.596 28.8448L57.0127 28.8871L57.4368 28.9294H57.5633L58.29 28.9966L58.7861 29.0389C59.6096 29.1085 60.4777 29.1732 61.3805 29.2329L63.025 29.3374L63.7493 29.3772L64.7712 29.4319H64.8257L65.8005 29.4791L67.1771 29.5388L68.4173 29.5861L69.6723 29.6284L70.3048 29.6483L71.7062 29.6881L72.872 29.7179C74.0799 29.7453 75.3002 29.7677 76.5231 29.7826H77.4457C78.7578 29.7826 80.0724 29.8025 81.3746 29.8025H82.2403H83.6218H84.5941C85.296 29.8025 85.998 29.7876 86.6999 29.7776H87.3374H88.136C88.7197 29.7677 89.2985 29.7553 89.8723 29.7403H89.8921L91.0579 29.713L91.864 29.6906L92.7867 29.6607H93L93.6151 29.6408L94.8355 29.5961L96.7056 29.5189L97.6606 29.4742C99.0595 29.4045 100.404 29.3249 101.676 29.2254L102.713 29.1508L103.705 29.0712L104.727 28.9841L105.491 28.912H105.588L106.307 28.8374L106.91 28.7702L107.294 28.723C108.591 28.5687 109.7 28.3946 110.568 28.2031L110.816 28.1483L111.045 28.0936L111.26 28.0364L111.461 27.9792L111.642 27.9245C111.707 27.9046 111.766 27.8847 111.823 27.8623C111.25 36.255 109.318 58.8289 93.2381 73.8931Z" fill="black"/>
</svg>
