<svg width="91" height="89" viewBox="0 0 91 89" fill="none" xmlns="http://www.w3.org/2000/svg">
<path d="M90.9997 23.5664C90.9997 23.0037 90.6302 22.5686 85.8634 22.1194C82.953 21.8475 78.9203 21.6276 74.1723 21.4881C74.2623 20.3224 74.3428 19.308 74.4233 17.9414C74.5038 16.5227 74.5441 15.4611 74.5915 14.2363V14.1867C74.6294 13.1794 74.6743 11.9735 74.7075 10.4035C74.7335 9.20951 74.7454 7.93034 74.7454 6.60152V2.47557C74.746 2.43632 74.7404 2.39722 74.7288 2.35971C74.7288 2.35971 74.7288 2.34553 74.7288 2.33607C74.6436 1.79461 73.7105 1.15385 63.464 0.593475C56.4806 0.210435 47.2145 0 37.3681 0C27.5218 0 18.2556 0.210435 11.277 0.593475C0.00271543 1.21059 0.00271523 1.92466 0.00271523 2.49685C-0.000772941 2.54723 -0.000772941 2.59779 0.00271523 2.64818L0.00271523 6.59207C-0.000905078 6.62349 -0.000905078 6.65522 0.00271523 6.68664C0.00271523 6.68664 0.00271523 6.68664 0.00271523 6.68664C0.00148067 6.70633 0.00148067 6.72607 0.00271523 6.74576C0.00271523 7.07678 0.00271523 7.4078 0.00271523 7.73409C0.00271523 8.17388 0.00271523 8.61367 0.0145555 9.04399V9.25679C0.0240277 9.93618 0.0366572 10.6148 0.0524442 11.2926C0.591341 35.075 5.45627 58.5615 14.4099 80.6062C14.415 80.6228 14.4222 80.6387 14.4312 80.6535C15.3382 82.3394 18.6937 83.6067 24.377 84.4177C28.6489 84.9844 32.9546 85.2577 37.2639 85.2358C38.5522 85.2358 39.8451 85.2145 41.1286 85.1672C41.1925 85.3777 41.2565 85.5857 41.3228 85.7962C41.3525 85.8907 41.4113 85.9736 41.4907 86.0329C41.5702 86.0923 41.6663 86.1253 41.7656 86.1272C44.4581 88.4065 55.0053 89 62.0408 89C62.8981 89 63.6984 89 64.4349 88.9764C68.2238 88.896 80.7034 88.4089 82.4463 85.5503C82.4723 85.5089 82.4907 85.4633 82.5007 85.4155L82.6168 84.9426L83.5451 81.7814L84.6557 77.7382L85.681 73.6713L86.6282 69.5808L87.4736 65.4714L88.229 61.3384L88.8968 57.2077L89.477 53.0463L89.9506 48.873L90.3437 44.688L90.6563 40.5076L90.8576 36.306L90.9689 32.1304L90.9902 27.9406L90.9357 23.8525C90.9811 23.7641 91.0031 23.6656 90.9997 23.5664V23.5664ZM89.4628 23.5664L89.226 23.6161L89.11 23.6397L88.8447 23.6894L88.6079 23.7295L88.3403 23.7721L87.8146 23.8454L87.6276 23.8691L87.2321 23.9187L86.8887 23.9565C86.0694 24.0464 85.0985 24.1347 83.976 24.2214L83.3698 24.2663C82.6547 24.3167 81.8835 24.3656 81.0562 24.4129L80.8194 24.4271L79.1429 24.5122L78.7427 24.5311C78.6906 24.5311 78.6385 24.5311 78.5864 24.5311L78.0678 24.5524H77.9233L77.3005 24.5784L76.5593 24.6068L75.8276 24.6328L75.2877 24.6517L74.8141 24.6659L73.3767 24.7084C69.7299 24.8101 65.8605 24.8598 61.8751 24.8598C60.5426 24.8598 59.2434 24.8542 57.9772 24.8432L56.1894 24.8243L54.1813 24.7935H53.5277C51.2401 24.751 49.1042 24.6895 47.134 24.6139L46.6367 24.5949H46.343L45.8931 24.576L44.5836 24.5169C44.297 24.5027 44.02 24.4909 43.7453 24.4743C43.2527 24.4507 42.7791 24.4247 42.3245 24.3963L41.6803 24.3538L41.4104 24.3372L41.1902 24.323L40.8918 24.3041L40.5082 24.2781C39.7551 24.2237 39.0542 24.1693 38.4124 24.1126C38.3059 24.1126 38.1993 24.096 38.0951 24.0842C37.421 24.0227 36.8156 23.9597 36.2788 23.8951L35.9189 23.8501C35.2227 23.7603 34.6686 23.6681 34.2613 23.5735C34.386 23.5451 34.5257 23.5167 34.6804 23.4884L34.9717 23.4364C35.2085 23.3962 35.495 23.356 35.8005 23.3158L36.0231 23.2874C36.3357 23.2472 36.6743 23.207 37.0413 23.1692L37.567 23.1148H37.6665L38.1591 23.0699L38.4693 23.0415L38.9808 22.9989C39.6912 22.9398 40.4655 22.8831 41.3038 22.8287L42.0616 22.7814C42.6236 22.7483 43.2101 22.716 43.8211 22.6845L44.7328 22.6395L45.2064 22.6183L45.68 22.597L46.1678 22.5757H46.3312L47.1671 22.5426L48.0291 22.5119H48.3085C49.1563 22.4835 50.0395 22.4575 50.9536 22.4338L52.1116 22.4055H52.1732L53.2625 22.3818L54.7543 22.3582L56.1017 22.3393C57.922 22.3156 59.8393 22.3038 61.8537 22.3038C65.9268 22.3038 69.8909 22.3558 73.6371 22.4598H73.6656C82.4344 22.6655 87.6465 23.1432 89.4628 23.5593V23.5664ZM37.3681 0.945777C56.0307 0.945777 70.0969 1.70949 73.2654 2.49685C70.078 3.28421 56.0212 4.05029 37.3681 4.05029C18.715 4.05029 4.6583 3.28421 1.47327 2.49685C4.65119 1.70949 18.7103 0.945777 37.3681 0.945777ZM15.2766 80.2255C6.38117 58.2969 1.55159 34.9364 1.02334 11.2831C1.00677 10.6093 0.994927 9.93302 0.985455 9.26389V9.05109C0.985455 8.61367 0.985455 8.17861 0.985455 7.73882C0.985455 7.47164 0.985455 7.20682 0.985455 6.93964V6.75994C0.978686 6.72223 0.966733 6.68563 0.949934 6.65118V6.65118C0.951205 6.63228 0.951205 6.61333 0.949934 6.59443V3.31022C2.17658 3.67198 4.95193 4.04793 11.2746 4.39786C18.2817 4.78327 27.5478 4.99607 37.3681 4.99607C47.1884 4.99607 56.457 4.78327 63.4664 4.39786C69.8246 4.04793 72.5976 3.66962 73.8053 3.30313V6.59207C73.8053 7.91379 73.7934 9.19295 73.7674 10.3752C73.7342 11.9381 73.6916 13.1368 73.6514 14.1394V14.1985C73.6064 15.4185 73.5661 16.4731 73.4832 17.8846C73.4003 19.2962 73.3246 20.2822 73.2322 21.462H72.9788L72.2945 21.4455L70.9636 21.4171L70.284 21.4029L69.3723 21.3864C68.5166 21.3722 67.6547 21.3604 66.7864 21.3509H65.9836C64.6291 21.3509 63.2556 21.332 61.8727 21.332C54.2215 21.332 47.0203 21.5164 41.5927 21.8522C32.7362 22.4007 32.7362 23.0557 32.7362 23.5806C32.734 23.6002 32.734 23.6201 32.7362 23.6397C32.7349 23.6483 32.7349 23.6571 32.7362 23.6657V23.6657C32.7286 23.6951 32.7247 23.7252 32.7244 23.7556C32.6249 27.2975 32.6249 30.8323 32.7244 34.3601C32.7244 34.5965 32.7315 34.833 32.7457 35.0694C32.7741 35.9994 32.8096 36.9287 32.8523 37.8571C32.8523 37.8855 32.8523 37.9162 32.8523 37.9446C32.8775 38.5341 32.9075 39.1221 32.9423 39.7085C32.9722 40.257 33.0054 40.8032 33.0417 41.347C33.0772 41.9287 33.1175 42.508 33.1625 43.0896C33.1885 43.4632 33.2169 43.8391 33.2501 44.2127C33.3369 45.3161 33.4348 46.4195 33.5437 47.5229C33.5721 47.8398 33.6053 48.1566 33.6361 48.4687L33.6645 48.7217C33.7166 49.234 33.7719 49.7479 33.8303 50.2633C33.8895 50.7835 33.9487 51.3013 34.0102 51.8215C34.0434 52.0839 34.0742 52.3464 34.1097 52.6089C34.1571 52.9943 34.2068 53.3797 34.2565 53.7651C34.3228 54.2616 34.3899 54.7566 34.4578 55.2499C34.5123 55.6424 34.5667 56.0373 34.6283 56.4322C34.6733 56.7608 34.723 57.0895 34.7727 57.4158C34.8517 57.9454 34.9306 58.475 35.0096 59.0047C35.0948 59.5438 35.1848 60.0829 35.2748 60.622L35.3671 61.154C35.4382 61.5701 35.5116 61.9886 35.585 62.4047L35.656 62.7925C35.7365 63.2418 35.8194 63.6934 35.9047 64.1426L35.9686 64.4831C36.0618 64.967 36.1565 65.4517 36.2528 65.9372C36.255 65.9621 36.2598 65.9866 36.267 66.0105C36.3696 66.5338 36.4754 67.0556 36.5843 67.5758C36.6104 67.7058 36.6364 67.8335 36.6648 67.9612C36.7643 68.4467 36.8677 68.9306 36.975 69.413C37.0887 69.9402 37.2118 70.4651 37.3255 70.9924C37.4392 71.5197 37.5623 72.0398 37.6902 72.5648C37.7707 72.9076 37.8512 73.2504 37.927 73.5909C37.9815 73.8274 38.0383 74.0638 38.0975 74.3003C38.1804 74.6407 38.2656 74.9789 38.3509 75.317C38.4053 75.5369 38.4598 75.7567 38.519 75.9766C38.6469 76.4826 38.7779 76.9878 38.9121 77.4923C39.0463 77.9967 39.1773 78.4845 39.3052 78.9558C39.3383 79.0859 39.3739 79.2136 39.4118 79.3436C39.5207 79.744 39.632 80.1436 39.7456 80.5424C39.7859 80.6961 39.8309 80.8498 39.8759 81.0011C40.0227 81.5213 40.1719 82.0391 40.3258 82.5593C40.4797 83.0794 40.6384 83.6138 40.7994 84.1411C40.8067 84.1748 40.8162 84.2079 40.8278 84.2404C28.1327 84.6471 16.759 82.8761 15.2766 80.2255ZM90.0217 32.1186L89.9104 36.2729L89.7114 40.4509L89.4012 44.6099L89.0034 48.769L88.5298 52.921L87.9544 57.0587L87.2889 61.1705L86.5359 65.2846L85.6952 69.3704L84.748 73.442L83.7274 77.4899L82.6215 81.5094L81.7003 84.692L81.5985 85.1152C80.5068 86.6663 73.6395 87.8343 64.4112 88.0306C53.163 88.267 43.3806 87.0068 42.1397 85.1554C42.1267 85.1351 42.1116 85.1161 42.0948 85.0987C42.0379 84.9142 41.9835 84.7298 41.9266 84.543C40.5374 80.0411 39.3226 75.5045 38.2822 70.9333C37.8923 69.2167 37.526 67.497 37.1834 65.7741C37.0698 65.1995 36.9585 64.6226 36.8495 64.048C36.4406 61.8775 36.0696 59.7014 35.7365 57.5198C35.6915 57.2313 35.6489 56.9405 35.6063 56.6473C35.3158 54.688 35.0577 52.7223 34.832 50.7504C34.7159 49.7573 34.5951 48.7595 34.5099 47.7641C34.4357 47.0374 34.3678 46.3116 34.3062 45.5865C34.1831 44.2009 34.0765 42.8138 33.9866 41.425C33.8539 39.3759 33.7537 37.3267 33.6858 35.2775C33.5769 31.9909 33.5556 28.698 33.6219 25.3988C33.6219 25.0584 33.6361 24.7203 33.6432 24.3798C33.7261 24.4034 33.8184 24.4294 33.9179 24.4531C34.506 24.5924 35.1013 24.6997 35.701 24.7746L35.9662 24.8101C37.541 25.0158 39.6462 25.1908 42.0995 25.3326L42.5518 25.3587C42.8573 25.3752 43.1651 25.3941 43.4824 25.4083L44.4415 25.4556C45.3445 25.4982 46.2783 25.5368 47.2429 25.5715C47.9296 25.5982 48.6298 25.6219 49.3433 25.6424L49.914 25.6589L50.9536 25.6873C52.3484 25.7228 53.7763 25.7511 55.2161 25.7724H55.5855C57.667 25.8032 59.777 25.8174 61.8537 25.8174C65.8486 25.8174 69.7275 25.7653 73.3814 25.666L74.4849 25.6329H74.7004H74.8377L75.3421 25.6164L76.1615 25.588L76.7417 25.5667H77.0448L77.6581 25.5407L78.6053 25.4982L79.266 25.4674H79.3323L79.9243 25.439H79.9717L80.5495 25.4083L81.4967 25.3563L82.1266 25.3185L82.4415 25.2995L83.6871 25.2144H83.7298L84.2957 25.1719L84.7196 25.1388L85.1932 25.0986C85.4868 25.0749 85.7734 25.0489 86.0528 25.0205L86.3228 24.9945C86.9669 24.9307 87.5707 24.8598 88.1106 24.7841L88.7263 24.6919L88.9182 24.6611C89.0981 24.6304 89.2663 24.5973 89.4249 24.5666L89.6475 24.5169L89.8535 24.4673L89.9932 24.4294L90.0501 27.9761L90.0217 32.1186Z" fill="black"/>
</svg>
