<svg width="100" height="98" viewBox="0 0 100 98" fill="none" xmlns="http://www.w3.org/2000/svg">
<path d="M99.8568 25.0113L99.8272 24.9662C99.7954 24.8545 99.7244 24.7578 99.627 24.6934C99.1378 24.3348 97.4721 23.9244 91.3762 23.5658C86.2519 23.2636 79.487 23.0968 72.3217 23.0968C70.0462 23.0968 67.7867 23.1148 65.6136 23.1486L65.9026 19.121L66.1643 13.9546L66.3395 8.81745L66.3805 6.22183V4.93642L66.4055 3.65101V2.38139C66.4055 2.34117 66.4009 2.30107 66.3918 2.26187C66.3832 2.19155 66.3599 2.12378 66.3235 2.06284C66.2871 2.0019 66.2383 1.94911 66.1802 1.90782C65.666 1.49513 63.7796 1.00578 56.3708 0.554755C50.2658 0.198449 42.1971 0 33.6414 0C25.0857 0 17.0306 0.198449 10.9279 0.559265C1.22769 1.12755 0.997874 1.80408 0.909132 2.2551C0.900021 2.29506 0.895441 2.33591 0.895479 2.37688C0.893136 2.40464 0.893136 2.43255 0.895479 2.46032L0.875 3.65778L0.895479 4.9274V6.22634L0.938712 8.82422L1.11392 13.9613L1.37787 19.1278L1.6441 23.002L1.74877 24.2942L1.83979 25.5729L1.94673 26.8741L2.08099 28.1595L2.19021 29.4426L2.32218 30.7416L2.46781 32.0225L2.59979 33.3282L3.21643 38.463L3.56457 41.0609L3.76026 42.3283L3.93547 43.6295L4.33367 46.2025L5.42589 52.6521L5.90828 55.2252L6.16768 56.5106L6.41115 57.8163L6.93906 60.3894L8.36121 66.8232L8.97558 69.4211L9.30324 70.6839L9.6127 71.9806L9.94037 73.2886L10.2885 74.5514L10.6207 75.8526L11.6743 79.7201L13.2557 85.2023H13.5925C15.9953 87.3492 23.0492 88.8804 31.705 89.1217C32.4741 89.1427 33.2326 89.1532 33.9804 89.1532C41.9695 89.1532 48.7936 87.9558 52.6869 85.8563L52.9303 86.7921L53.8155 90.0372L55.1557 94.6873H55.4856C57.8771 96.7935 65.0425 97.8624 71.2112 97.9865C71.6815 97.9955 72.148 98 72.6106 98C80.0263 98 86.1541 96.7868 89.2214 94.6873H89.4489L90.7937 90.0305L91.6766 86.7854L91.9496 85.7119L92.2454 84.634L92.523 83.5425L92.7779 82.4669L93.0555 81.3889L93.3126 80.2997L93.5515 79.2195L93.8109 78.1438L94.7644 73.814L95.2058 71.6559L95.406 70.5779L95.6336 69.4842L96.0386 67.3238L96.9488 61.9116L97.2856 59.7602L97.4312 58.6823L97.595 57.6089L97.8908 55.4304L98.4073 51.1187L98.5166 50.0407L98.6463 48.9447L98.7532 47.86L98.9398 45.7064L99.049 44.6127L99.1241 43.5505L99.2174 42.4568L99.4449 39.214L99.6725 34.8819L99.8204 30.5702L99.8545 28.3917V27.3093L99.875 26.2291V25.1647L99.8568 25.0113ZM72.3239 23.9965C86.4908 23.9965 95.7064 24.6167 98.3277 25.1647C98.2048 25.1895 98.0683 25.2166 97.9158 25.2414L97.7588 25.2684C97.6087 25.2932 97.4471 25.3158 97.2719 25.3406L97.0444 25.3699C96.5529 25.4353 95.9726 25.4984 95.3105 25.5616L94.9737 25.5954C94.2896 25.6571 93.5235 25.7172 92.6755 25.7758L91.8814 25.8277H91.7926L90.846 25.8841L90.4547 25.9066L89.6469 25.9495L89.0189 25.981L88.3704 26.0104L87.9289 26.0307L87.0187 26.0667C86.4795 26.0893 85.922 26.1073 85.3508 26.1276C84.7797 26.1479 84.1881 26.166 83.5806 26.1817C83.0633 26.1968 82.5323 26.2103 81.9877 26.2223H81.9149L80.875 26.2449L79.7373 26.2652L78.0694 26.29H77.7281H77.3822C75.7697 26.308 74.076 26.317 72.3012 26.317C69.8596 26.317 67.3544 26.2968 64.8514 26.2562L63.2586 26.2246L62.6123 26.2111H62.3848L60.9991 26.175L60.5121 26.1614L59.2037 26.1209L58.7486 26.1051H58.4278C58.2913 26.1051 58.157 26.1051 58.0228 26.0915L57.6268 26.0758L57.2355 26.06L56.8532 26.0442L56.2115 26.0171C55.6578 25.9931 55.1269 25.9675 54.6187 25.9404L54.2524 25.9224L53.8951 25.9021C53.4218 25.8773 52.9736 25.8502 52.5435 25.8209L52.2113 25.8006L51.3967 25.742H51.317H51.2852L50.871 25.7104L50.3796 25.6698L49.97 25.636C49.6355 25.6067 49.3215 25.5751 49.0257 25.5458L48.4818 25.4894L47.7992 25.4082L47.6422 25.3879L47.467 25.3654L47.3464 25.3474L47.1826 25.3248L46.839 25.2572L46.666 25.2278L46.3293 25.1624L46.4248 25.1421L46.6273 25.1038L46.7411 25.0835L46.9823 25.0452L47.1348 25.0204L47.4579 24.973H47.5307C47.6285 24.9572 47.7332 24.9437 47.8424 24.9324L48.0063 24.9121C48.1178 24.8963 48.2338 24.8828 48.3521 24.8715C48.5933 24.8445 48.8505 24.8151 49.1235 24.7881C49.433 24.7588 49.7652 24.7272 50.1179 24.6979C50.6458 24.6513 51.2245 24.6062 51.854 24.5626L52.1794 24.54L53.5857 24.4521L53.8405 24.4385L55.6609 24.3438L56.257 24.3168L56.6302 24.301L57.0125 24.2852L57.8635 24.2514L58.3459 24.2333C59.0755 24.2078 59.8424 24.1837 60.6464 24.1612C60.8193 24.1612 60.9922 24.1612 61.1697 24.1476L61.7067 24.1319L62.808 24.107L65.1335 24.0619H65.5454C67.7412 24.0146 70.0166 23.9965 72.3239 23.9965ZM33.6414 0.902041C49.9996 0.902041 62.337 1.63269 65.0607 2.38139L64.906 2.42198L64.7763 2.4513C64.6511 2.48061 64.5101 2.50993 64.3576 2.53699L64.0459 2.59111C63.5475 2.67455 62.9377 2.75574 62.2255 2.83466L61.4291 2.91585C61.2721 2.93389 61.1083 2.94742 60.9444 2.96321C60.6008 2.99478 60.2413 3.02635 59.8636 3.05566C59.5428 3.08273 59.2083 3.10979 58.8647 3.13459L58.2389 3.17969C56.8896 3.27441 55.3787 3.3601 53.7222 3.43903L53.1419 3.46609L51.7767 3.52473L50.7004 3.56757H50.6367L48.7572 3.63297L48.0882 3.65327C47.8606 3.65327 47.6331 3.6668 47.4055 3.67356C46.4332 3.70213 45.432 3.72768 44.402 3.75024L43.1277 3.77504C42.1402 3.79308 41.1291 3.80887 40.0945 3.8224L38.9887 3.83367C38.4623 3.83367 37.9314 3.83818 37.3959 3.84721H36.6564C35.6673 3.84721 34.6608 3.84721 33.6368 3.84721C32.5583 3.84721 31.4964 3.84721 30.4512 3.84721H29.2066H28.4147L27.4044 3.83367H26.6558L25.9163 3.8224L24.9082 3.80661L23.8843 3.78857L23.0401 3.77053L22.3415 3.75475L20.9262 3.72092L19.9569 3.69386L19.3334 3.67582L18.4232 3.64876L17.2286 3.60816L16.1683 3.56983C15.2581 3.53375 14.3828 3.49541 13.5424 3.45482L12.8165 3.41874L12.3182 3.38265C11.9814 3.36687 11.6538 3.34883 11.3329 3.32853L10.8551 3.30147L9.94492 3.24735C9.31083 3.20676 8.70859 3.16466 8.13822 3.12106C7.75139 3.09175 7.38049 3.06243 7.02552 3.03086L6.67511 2.99929L6.33606 2.96095C5.98565 2.92938 5.65343 2.89555 5.34397 2.86173L5.04589 2.83015L4.41559 2.75574L4.18805 2.72867L3.68972 2.66102L3.28014 2.59788C3.09811 2.56856 2.92973 2.53699 2.77955 2.50767L2.64985 2.48061C2.49057 2.44904 2.34949 2.41522 2.22889 2.38139C4.95487 1.63269 17.2923 0.902041 33.6414 0.902041ZM14.0999 84.431L13.9656 84.3002H13.9497L12.5571 79.4788L11.5081 75.6249L11.1759 74.3214L10.8278 73.0653L10.5047 71.7731L10.2043 70.4675L9.87666 69.2068L9.26456 66.6225L7.83558 60.2112L7.31223 57.654L7.06876 56.3505L6.80936 55.0651L6.33606 52.4943L5.24385 46.0537L4.84792 43.4942L4.67272 42.193L4.47703 40.9256L4.12433 38.3367L3.50996 33.2154L3.37799 31.9187L3.22781 30.6333L3.09583 29.3479L2.98661 28.0648L2.85236 26.7816L2.74769 25.4939L2.65667 24.2153L2.54973 22.9231L2.28805 19.0737L2.0241 13.923L1.84889 8.7949L1.80566 6.21957V4.92063L1.78518 3.65101V3.17518C1.97859 3.23607 2.21296 3.29471 2.49512 3.35559L2.74769 3.40521L2.99344 3.44805L3.32793 3.50443L3.8308 3.57885C5.47367 3.80436 7.81965 4.02987 10.8028 4.19675C16.9192 4.56433 25.0334 4.76503 33.6505 4.76503C42.2676 4.76503 50.3796 4.56433 56.4959 4.19675C59.4791 4.01859 61.825 3.81112 63.4679 3.57885C63.6954 3.54728 63.923 3.51345 64.1164 3.47962L64.4031 3.43227C64.7727 3.37085 65.1382 3.28726 65.4976 3.18195L65.4726 4.9274V6.21281L65.4271 8.7949L65.2519 13.9185L64.9925 19.0669L64.7285 22.9186L64.708 23.1622H64.0846L63.2631 23.1779H63.0629L62.2346 23.1982L61.6931 23.2118L60.7396 23.2388L60.0957 23.2569L58.6713 23.3042L58.2162 23.32C57.2924 23.3546 56.4042 23.3914 55.5516 23.4305C53.8473 23.5117 52.3 23.6042 50.9552 23.7056C50.5184 23.7395 50.1133 23.7733 49.7356 23.8071L49.2987 23.8455C48.2814 23.9288 47.269 24.0636 46.2655 24.2491L46.0175 24.301C45.8446 24.3398 45.6737 24.3872 45.5056 24.4431L45.4191 24.4724C45.345 24.4974 45.2728 24.5275 45.2029 24.5626L45.146 24.5919C45.0969 24.6165 45.0504 24.646 45.0072 24.6798C44.9142 24.7351 44.8453 24.8228 44.8138 24.9256L44.7933 25.0361V25.1512C44.7898 25.1849 44.7898 25.2189 44.7933 25.2526L44.7683 26.2223L44.7842 27.2867V28.376L44.8206 30.5566L44.9663 34.8661L45.1938 39.2005L45.4214 42.4433L45.5124 43.519L45.5852 44.5969L45.6762 45.6861L45.7877 46.7641L45.8787 47.842L45.9902 48.9312L46.1154 50.0092L46.2269 51.1051L46.7434 55.4146L47.0369 57.5931L47.2008 58.653L47.3487 59.7467L47.6809 61.9071L48.5911 67.3193L48.9938 69.4797L49.2214 70.5554L49.4261 71.6514L49.8676 73.8095L51.0622 79.206L51.5787 81.3844L51.8518 82.4443L52.1112 83.5335L52.3865 84.6295L52.473 84.9407C43.0663 90.283 18.2799 88.5308 14.0999 84.431ZM98.9284 27.3003V28.376L98.8943 30.5386L98.7464 34.8346L98.5188 39.1531L98.3027 42.3801L98.2094 43.4716L98.1343 44.5293L98.0273 45.6162L97.9363 46.6987L97.7338 48.8388L97.6041 49.9325L97.4949 51.0104L96.9806 55.3086L96.6871 57.4713L96.5233 58.547L96.3776 59.6249L96.2138 60.7051L95.133 67.166L94.7302 69.3128L94.5027 70.4066L94.3024 71.4845L93.8633 73.6314L92.9121 77.9431L92.655 79.0188L92.4275 80.099L92.1726 81.1837L91.8927 82.2504L91.6379 83.3283L91.3648 84.404L91.069 85.4819L90.796 86.5576L89.9177 89.7892L88.7208 93.9295C85.6671 96.0335 78.9842 97.24 71.2203 97.0867C64.0004 96.9424 57.7315 95.6389 55.9749 93.9183L55.8543 93.801L54.6983 89.7982L53.8177 86.5666L53.5447 85.4684L53.5174 85.3714L53.2534 84.4085L52.9827 83.3351L52.7233 82.2436L52.4502 81.1837L51.936 79.0188L50.7436 73.6381L50.3067 71.4868L50.1019 70.3908L49.8744 69.3151L49.4739 67.1682L48.5637 61.7695L48.2338 59.6249L48.0859 58.5312L47.9221 57.4735L47.6308 55.3064L47.1166 51.0217L47.0051 49.928L46.8799 48.85L46.7684 47.7744L46.6774 46.6964L46.5659 45.6185L46.4749 44.545L46.4021 43.4671L46.3156 42.3959L46.0881 39.1666L45.8605 34.8504L45.7149 30.5657L45.6785 28.4008V27.2867L45.6626 26.2223V25.9337L45.7149 25.9495H45.7467L45.8719 25.981L46.0994 26.0329L46.3475 26.0825L46.4817 26.1073L46.6182 26.1321C47.5808 26.2968 48.9711 26.4524 50.7573 26.5832C54.2933 26.8583 59.2947 27.0635 64.8423 27.1605C67.3453 27.201 69.8596 27.2213 72.3057 27.2213C79.5325 27.2213 86.3384 27.0522 91.4695 26.7455C93.9725 26.5967 95.9408 26.423 97.3197 26.2268L97.6633 26.1772L97.8521 26.1479L98.0342 26.1163C98.1798 26.0915 98.314 26.0645 98.4392 26.0397L98.619 26.0013H98.6394L98.7828 25.9653L98.9466 25.9337L98.9284 27.3003Z" fill="black"/>
</svg>
