<svg width="32" height="29" viewBox="0 0 32 29" fill="none" xmlns="http://www.w3.org/2000/svg">
<path d="M10.2643 18.7374H10.2658C10.267 18.7374 10.2682 18.7371 10.2694 18.7371H27.1913C27.6079 18.7371 27.9742 18.4608 28.0887 18.0602L31.8221 4.99344C31.9025 4.71174 31.8461 4.40889 31.6699 4.17507C31.4934 3.94125 31.2176 3.80368 30.9247 3.80368H8.1118L7.44461 0.801186C7.34957 0.374134 6.97089 0.0703125 6.53338 0.0703125H0.933341C0.417816 0.0703125 0 0.488128 0 1.00365C0 1.51918 0.417816 1.93699 0.933341 1.93699H5.78477C5.90289 2.46905 8.97757 16.3053 9.15452 17.1013C8.1626 17.5325 7.46673 18.5215 7.46673 19.6705C7.46673 21.2144 8.72285 22.4705 10.2667 22.4705H27.1913C27.7069 22.4705 28.1247 22.0527 28.1247 21.5371C28.1247 21.0216 27.7069 20.6038 27.1913 20.6038H10.2667C9.75219 20.6038 9.33341 20.185 9.33341 19.6705C9.33341 19.1566 9.75074 18.7386 10.2643 18.7374ZM29.6873 5.67036L26.4872 16.8704H11.0154L8.52646 5.67036H29.6873Z" fill="black"/>
<path d="M9.33331 25.2703C9.33331 26.8142 10.5894 28.0703 12.1333 28.0703C13.6772 28.0703 14.9333 26.8142 14.9333 25.2703C14.9333 23.7264 13.6772 22.4703 12.1333 22.4703C10.5894 22.4703 9.33331 23.7264 9.33331 25.2703ZM12.1333 24.3369C12.6479 24.3369 13.0667 24.7557 13.0667 25.2703C13.0667 25.7848 12.6479 26.2036 12.1333 26.2036C11.6188 26.2036 11.2 25.7848 11.2 25.2703C11.2 24.7557 11.6188 24.3369 12.1333 24.3369Z" fill="black"/>
<path d="M22.5243 25.2703C22.5243 26.8142 23.7804 28.0703 25.3243 28.0703C26.8682 28.0703 28.1243 26.8142 28.1243 25.2703C28.1243 23.7264 26.8682 22.4703 25.3243 22.4703C23.7804 22.4703 22.5243 23.7264 22.5243 25.2703ZM25.3243 24.3369C25.8389 24.3369 26.2577 24.7557 26.2577 25.2703C26.2577 25.7848 25.8389 26.2036 25.3243 26.2036C24.8098 26.2036 24.391 25.7848 24.391 25.2703C24.391 24.7557 24.8098 24.3369 25.3243 24.3369Z" fill="black"/>
</svg>
