<svg width="19" height="18" viewBox="0 0 19 18" fill="none" xmlns="http://www.w3.org/2000/svg">
<path d="M0.5 9C0.5 4.31724 4.34109 0.5 9.06928 0.5C13.7975 0.5 17.6386 4.31724 17.6386 9C17.6386 13.6828 13.7975 17.5 9.06928 17.5C4.34109 17.5 0.5 13.6828 0.5 9ZM0.633665 9C0.633665 13.6221 4.42098 17.375 9.06928 17.375C13.7176 17.375 17.5049 13.6221 17.5049 9C17.5049 4.3779 13.7176 0.625005 9.06928 0.625005C4.42098 0.625005 0.633665 4.3779 0.633665 9Z" stroke="black"/>
<path d="M9.13611 8.76707V8.9753L9.28391 9.12198L12.1612 11.9773L12.0695 12.0683L9.00244 9.02466V3.875H9.13611V8.76707Z" stroke="black"/>
</svg>
