<svg width="32" height="31" viewBox="0 0 32 31" fill="none" xmlns="http://www.w3.org/2000/svg">
<path d="M31.0476 31C30.8571 31 30.6667 31 30.4762 30.8054L24.5714 25.3557H9.52381C6.47619 25.3557 4 22.8255 4 19.7114V18.1544C4 17.5705 4.38095 17.1812 4.95238 17.1812C5.52381 17.1812 5.90476 17.5705 5.90476 18.1544V19.7114C5.90476 21.8524 7.61905 23.4094 9.52381 23.4094H24.9524C25.1429 23.4094 25.3333 23.4094 25.5238 23.604L30.0952 27.6913V7.6443C30.0952 5.50336 28.381 3.94631 26.4762 3.94631H12C11.4286 3.94631 11.0476 3.55705 11.0476 2.97315C11.0476 2.38926 11.4286 2 12 2H26.4762C29.5238 2 32 4.5302 32 7.6443V30.0268C32 30.4161 31.8095 30.8054 31.4286 31C31.4286 31 31.2381 31 31.0476 31Z" fill="black"/>
<path d="M4.42105 11.5625C4.10526 11.5625 3.94737 11.4062 3.78947 11.25C3.63158 11.0937 3.47368 10.7812 3.47368 10.625C3.47368 10.1562 3.63158 9.53125 3.78947 9.0625C4.10526 8.4375 4.42105 7.96875 4.89474 7.5C5.21053 7.1875 5.52632 6.875 5.84211 6.5625C6.1579 6.25 6.31579 5.9375 6.63158 5.46875C6.94737 5.15625 7.10526 4.6875 7.10526 4.0625C7.10526 3.59375 6.94737 3.28125 6.78947 2.96875C6.63158 2.5 6.31579 2.34375 6 2.03125C5.68421 1.71875 5.21053 1.71875 4.57895 1.71875C3.94737 1.71875 3.47368 1.875 3 2.03125C2.68421 2.34375 2.36842 2.65625 2.21053 2.96875C2.05263 3.4375 1.89474 3.90625 1.89474 4.375C1.89474 4.6875 1.73684 5 1.57895 5.15625C1.42105 5.3125 1.26316 5.3125 0.947369 5.3125C0.631579 5.3125 0.473684 5.15625 0.315789 5C0.157895 5 0 4.6875 0 4.375C0 3.4375 0.157895 2.65625 0.631579 2.03125C0.947368 1.40625 1.57895 0.78125 2.21053 0.46875C2.84211 0.15625 3.63158 0 4.57895 0C5.36842 0 6.1579 0.15625 6.78947 0.46875C7.42105 0.78125 7.89474 1.25 8.36842 1.875C8.84211 2.5 9 3.125 9 4.0625C9 4.6875 8.84211 5.3125 8.68421 5.9375C8.36842 6.40625 8.05263 6.875 7.57895 7.1875C7.26316 7.65625 6.78947 8.125 6.31579 8.4375C6 8.75 5.68421 9.0625 5.52632 9.53125C5.52632 10 5.36842 10.3125 5.36842 10.625C5.36842 10.9375 5.21053 11.0937 5.05263 11.25C4.89474 11.4062 4.73684 11.5625 4.42105 11.5625ZM4.42105 15C4.10526 15 3.78947 14.8437 3.47368 14.6875C3.31579 14.375 3.15789 14.0625 3.15789 13.75C3.15789 13.4375 3.31579 13.125 3.47368 12.8125C3.78947 12.5 4.10526 12.3437 4.42105 12.3437C4.73684 12.3437 5.05263 12.5 5.36842 12.6562C5.68421 12.9688 5.68421 13.2812 5.68421 13.5937C5.68421 13.9062 5.52632 14.2187 5.36842 14.5312C5.05263 14.8437 4.89474 15 4.42105 15Z" fill="black"/>
</svg>
