<svg width="16" height="17" viewBox="0 0 16 17" fill="none" xmlns="http://www.w3.org/2000/svg">
<path opacity="0.5" d="M4.83333 1.5H4.66667C4.75833 1.5 4.83333 1.425 4.83333 1.33333V1.5H11.1667V1.33333C11.1667 1.425 11.2417 1.5 11.3333 1.5H11.1667V3H12.6667V1.33333C12.6667 0.597917 12.0688 0 11.3333 0H4.66667C3.93125 0 3.33333 0.597917 3.33333 1.33333V3H4.83333V1.5ZM15.3333 3H0.666667C0.297917 3 0 3.29792 0 3.66667V4.33333C0 4.425 0.075 4.5 0.166667 4.5H1.425L1.93958 15.3958C1.97292 16.1062 2.56042 16.6667 3.27083 16.6667H12.7292C13.4417 16.6667 14.0271 16.1083 14.0604 15.3958L14.575 4.5H15.8333C15.925 4.5 16 4.425 16 4.33333V3.66667C16 3.29792 15.7021 3 15.3333 3ZM12.5688 15.1667H3.43125L2.92708 4.5H13.0729L12.5688 15.1667Z" fill="#231F20"/>
</svg>
