<svg width="18" height="18" viewBox="0 0 18 18" fill="none" xmlns="http://www.w3.org/2000/svg">
<path d="M9.10722 0.898438C13.5793 0.898438 17.2042 4.52472 17.2042 8.99844C17.2042 13.4722 13.5793 17.0984 9.10722 17.0984C4.63518 17.0984 1.01025 13.4722 1.01025 8.99844C1.01025 4.52472 4.63518 0.898438 9.10722 0.898438ZM9.10722 0.898438V17.0935M1.01518 9.00339H17.2042M14.8302 3.36194C13.594 4.48037 11.491 5.2145 9.10229 5.2145C6.71852 5.2145 4.6204 4.48037 3.38419 3.3718M14.8302 14.6399C13.594 13.5214 11.491 12.7873 9.10229 12.7873C6.71852 12.7873 4.6204 13.5214 3.38419 14.63M9.03334 17.0098C6.59046 15.2853 4.98487 12.3488 4.98487 9.01815C4.98487 5.69241 6.58554 2.76578 9.01857 1.03639M9.30425 17.0098C11.7471 15.2853 13.3527 12.3488 13.3527 9.01815C13.3527 5.69241 11.7521 2.76578 9.319 1.03639" stroke="black" stroke-width="0.9" stroke-miterlimit="22.9256" stroke-linecap="round" stroke-linejoin="round"/>
</svg>
