<svg width="19" height="19" viewBox="0 0 19 19" fill="none" xmlns="http://www.w3.org/2000/svg">
<path d="M13.2803 0.277344H5.89307C4.44964 0.27904 3.06582 0.853258 2.04524 1.87401C1.02466 2.89476 0.450672 4.27868 0.449219 5.72211L0.449219 13.1094C0.450915 14.5528 1.02513 15.9366 2.04588 16.9572C3.06663 17.9778 4.45055 18.5518 5.89399 18.5532H13.2812C14.7247 18.5515 16.1085 17.9773 17.1291 16.9565C18.1496 15.9358 18.7236 14.5519 18.7251 13.1084V5.7212C18.7234 4.27776 18.1492 2.89394 17.1284 1.87336C16.1077 0.852782 14.7237 0.278797 13.2803 0.277344V0.277344ZM16.887 13.1084C16.887 13.5821 16.7937 14.0511 16.6124 14.4886C16.4312 14.9262 16.1655 15.3238 15.8306 15.6587C15.4957 15.9936 15.0981 16.2593 14.6605 16.4406C14.2229 16.6218 13.7539 16.7151 13.2803 16.7151H5.89307C4.93669 16.7148 4.01955 16.3348 3.34337 15.6584C2.66719 14.982 2.28733 14.0648 2.28733 13.1084V5.7212C2.28757 4.76481 2.66767 3.84768 3.34402 3.1715C4.02037 2.49532 4.9376 2.11546 5.89399 2.11546H13.2812C14.2376 2.1157 15.1547 2.49579 15.8309 3.17215C16.5071 3.8485 16.887 4.76573 16.887 5.72211V13.1094V13.1084Z" fill="white"/>
<path d="M9.58464 4.6875C8.33186 4.68944 7.13096 5.18802 6.24519 6.07396C5.35942 6.9599 4.86107 8.1609 4.85938 9.41369C4.86083 10.6668 5.3592 11.8682 6.24519 12.7543C7.13118 13.6405 8.33246 14.1391 9.58556 14.1408C10.8388 14.1393 12.0403 13.6408 12.9265 12.7546C13.8127 11.8685 14.3112 10.6669 14.3127 9.41369C14.3107 8.16059 13.8119 6.9594 12.9255 6.07359C12.0392 5.18777 10.8377 4.68963 9.58464 4.68842V4.6875ZM9.58464 12.3027C8.81868 12.3027 8.08409 11.9984 7.54247 11.4568C7.00085 10.9152 6.69657 10.1806 6.69657 9.4146C6.69657 8.64864 7.00085 7.91404 7.54247 7.37243C8.08409 6.83081 8.81868 6.52653 9.58464 6.52653C10.3506 6.52653 11.0852 6.83081 11.6268 7.37243C12.1684 7.91404 12.4727 8.64864 12.4727 9.4146C12.4727 10.1806 12.1684 10.9152 11.6268 11.4568C11.0852 11.9984 10.3506 12.3027 9.58464 12.3027Z" fill="white"/>
<path d="M14.3238 5.85844C14.9491 5.85844 15.4561 5.35147 15.4561 4.72609C15.4561 4.10072 14.9491 3.59375 14.3238 3.59375C13.6984 3.59375 13.1914 4.10072 13.1914 4.72609C13.1914 5.35147 13.6984 5.85844 14.3238 5.85844Z" fill="white"/>
</svg>
