<svg width="14" height="17" viewBox="0 0 14 17" fill="none" xmlns="http://www.w3.org/2000/svg">
<path d="M7.40703 16.1875L7.0968 16.4958C7.17896 16.5785 7.29077 16.6251 7.40738 16.625C7.52399 16.6249 7.63573 16.5782 7.71776 16.4953L7.40703 16.1875ZM1.93219 9.36364L2.3238 9.16904L2.32335 9.16816L1.93219 9.36364ZM7.40703 0.875C8.97751 0.875 10.3975 1.5145 11.4263 2.55112L12.0468 1.93456C10.8609 0.739638 9.2203 0 7.40703 0V0.875ZM11.4263 2.55112C12.4551 3.58779 13.091 5.02003 13.091 6.60533H13.9654C13.9654 4.78109 13.2326 3.12942 12.0468 1.93456L11.4263 2.55112ZM13.091 6.60533C13.091 7.52753 12.8745 8.3993 12.4907 9.16816L13.273 9.55911C13.7162 8.67107 13.9654 7.66567 13.9654 6.60533H13.091ZM12.4907 9.16816C12.1217 9.90946 11.157 11.2034 10.0687 12.5282C8.99023 13.8412 7.82791 15.1402 7.09631 15.8797L7.71776 16.4953C8.47367 15.7312 9.65429 14.4107 10.7442 13.0839C11.8242 11.769 12.8531 10.4028 13.273 9.55911L12.4907 9.16816ZM7.71727 15.8792C6.98357 15.1399 5.82142 13.8423 4.74364 12.5301C3.65607 11.2059 2.69273 9.91253 2.3238 9.16904L1.54058 9.55815C1.96056 10.4045 2.9885 11.7713 4.06806 13.0856C5.15741 14.412 6.33822 15.7315 7.0968 16.4958L7.71727 15.8792ZM2.32335 9.16816C1.93964 8.3993 1.72309 7.52753 1.72309 6.60533H0.848633C0.848633 7.66567 1.09782 8.67107 1.54103 9.55911L2.32335 9.16816ZM1.72309 6.60533C1.72309 3.43932 4.27237 0.875 7.40703 0.875V0C3.78369 0 0.848633 2.96183 0.848633 6.60533H1.72309ZM10.0304 6.34375C10.0304 7.71824 8.871 8.85938 7.40703 8.85938V9.73438C9.32366 9.73438 10.9048 8.2312 10.9048 6.34375H10.0304ZM7.40703 8.85938C5.94307 8.85938 4.78367 7.71824 4.78367 6.34375H3.90922C3.90922 8.2312 5.49037 9.73438 7.40703 9.73438V8.85938ZM4.78367 6.34375C4.78367 4.96926 5.94307 3.82812 7.40703 3.82812V2.95312C5.49037 2.95312 3.90922 4.4563 3.90922 6.34375H4.78367ZM7.40703 3.82812C8.871 3.82812 10.0304 4.96926 10.0304 6.34375H10.9048C10.9048 4.4563 9.32366 2.95312 7.40703 2.95312V3.82812Z" fill="black"/>
</svg>
