<svg width="17" height="17" viewBox="0 0 17 17" fill="none" xmlns="http://www.w3.org/2000/svg">
<path fill-rule="evenodd" clip-rule="evenodd" d="M9.68877 3.5132C11.5618 5.38627 11.5618 8.42312 9.68877 10.2962C7.8157 12.1693 4.77885 12.1693 2.90578 10.2962C1.03271 8.42312 1.03271 5.38627 2.90578 3.5132C4.77885 1.64013 7.8157 1.64013 9.68877 3.5132ZM10.8432 11.2611C13.2079 8.79562 13.1766 4.87975 10.7494 2.45254C8.29057 -0.00631571 4.30398 -0.00631583 1.84512 2.45254C-0.613738 4.9114 -0.613738 8.89799 1.84512 11.3568C4.27233 13.7841 8.18819 13.8153 10.6537 11.4506L10.4867 11.6176L15.7245 16.8554L16.7852 15.7948L11.5474 10.5569L10.8432 11.2611Z" fill="#C4C4C4"/>
</svg>
