<svg width="18" height="20" viewBox="0 0 18 20" fill="none" xmlns="http://www.w3.org/2000/svg">
<path d="M14.8771 14.8771L13.6891 16.052C12.8134 16.9114 11.6774 18.0163 10.2803 19.367C9.4073 20.2111 8.02231 20.211 7.14946 19.3668L3.65532 15.9679C3.21618 15.5368 2.8486 15.1732 2.5525 14.8771C-0.850834 11.4738 -0.850834 5.95584 2.5525 2.5525C5.95584 -0.850834 11.4738 -0.850834 14.8771 2.5525C18.2804 5.95584 18.2804 11.4738 14.8771 14.8771ZM11.2172 8.98975C11.2172 7.60771 10.0968 6.48736 8.71481 6.48736C7.33282 6.48736 6.21244 7.60771 6.21244 8.98975C6.21244 10.3717 7.33282 11.4921 8.71481 11.4921C10.0968 11.4921 11.2172 10.3717 11.2172 8.98975Z" fill="white"/>
</svg>
