<svg width="19" height="20" viewBox="0 0 19 20" fill="none" xmlns="http://www.w3.org/2000/svg">
<path d="M4.56795 11.0021C4.28779 11.0021 4.0607 11.2259 4.0607 11.5021V14.5021C4.0607 14.7782 4.28779 15.0021 4.56795 15.0021C4.84809 15.0021 5.07519 14.7782 5.07519 14.5021V14.0025H5.57975C6.4203 14.0025 7.10165 13.3308 7.10165 12.5023C7.10165 11.6737 6.4203 11.0021 5.57975 11.0021H4.56795ZM5.57975 13.0025H5.07519V12.0021H5.57975C5.86 12.0021 6.0872 12.226 6.0872 12.5023C6.0872 12.7785 5.86001 13.0025 5.57975 13.0025ZM12.1716 11.5014C12.1719 11.2255 12.3989 11.0021 12.6788 11.0021H14.2056C14.4857 11.0021 14.7129 11.2259 14.7129 11.5021C14.7129 11.7782 14.4857 12.0021 14.2056 12.0021H13.1854L13.1841 13.0038H14.2056C14.4857 13.0038 14.7129 13.2277 14.7129 13.5038C14.7129 13.7799 14.4857 14.0038 14.2056 14.0038H13.1848L13.1861 14.5008C13.1868 14.7769 12.9602 15.0014 12.68 15.0021C12.3999 15.0028 12.1723 14.7795 12.1716 14.5033L12.1689 13.5051V13.5032L12.1716 11.5014ZM8.62319 11.0021H9.128C10.2485 11.0021 11.157 11.8975 11.157 13.0021C11.1569 14.1067 10.2485 15.0021 9.128 15.0021H8.62319C8.34309 15.0021 8.11594 14.7782 8.11594 14.5021V11.5021C8.11594 11.2259 8.34309 11.0021 8.62319 11.0021ZM9.13043 14.0021C9.68962 14.0008 10.1424 13.5535 10.1425 13.0021C10.1425 12.4506 9.68962 12.0034 9.13043 12.0021V14.0021ZM9.13043 6V0H3.04348C1.9229 0 1.01449 0.89543 1.01449 2V8.6684C0.414684 8.9493 0 9.5519 0 10.25V15.75C0 16.4481 0.414684 17.0507 1.01449 17.3316V18C1.01449 19.1046 1.9229 20 3.04348 20H15.2174C16.338 20 17.2464 19.1046 17.2464 18V17.3316C17.8461 17.0507 18.2609 16.4481 18.2609 15.75V10.25C18.2609 9.5519 17.8461 8.9493 17.2464 8.6684V8H11.1594C10.0388 8 9.13043 7.10457 9.13043 6ZM1.77536 10H16.4855C16.6256 10 16.7391 10.1119 16.7391 10.25V15.75C16.7391 15.8881 16.6256 16 16.4855 16H1.77536C1.63529 16 1.52174 15.8881 1.52174 15.75V10.25C1.52174 10.1119 1.63529 10 1.77536 10ZM10.6522 6V0.5L16.7391 6.5H11.1594C10.8793 6.5 10.6522 6.27614 10.6522 6Z" fill="#003366"/>
</svg>
