<svg width="16" height="16" viewBox="0 0 16 16" fill="none" xmlns="http://www.w3.org/2000/svg">
<path d="M14.0761 10.2259C13.2056 10.2259 12.351 10.0897 11.5412 9.822C11.1443 9.68654 10.6565 9.8108 10.4143 10.0596L8.81572 11.2668C6.96186 10.2768 5.81992 9.13489 4.84385 7.29422L6.01507 5.73674C6.31937 5.43274 6.42851 4.98866 6.29774 4.57199C6.02895 3.75755 5.89242 2.903 5.89242 2.03189C5.89245 1.40259 5.38068 0.890625 4.75166 0.890625H2.14079C1.51177 0.890625 1 1.40259 1 2.03185C1 9.24485 6.86586 15.1128 14.0761 15.1128C14.7051 15.1128 15.2169 14.6008 15.2169 13.9716V11.3671C15.2169 10.7378 14.7051 10.2259 14.0761 10.2259Z" stroke="black" stroke-width="0.888889"/>
</svg>
