<svg width="89" height="60" viewBox="0 0 89 60" fill="none" xmlns="http://www.w3.org/2000/svg">
<g clip-path="url(#clip0_218_825)">
<path d="M5.45295 50.9906V59.7962H3.20814V50.9906H1.10473C0.300486 50.9906 0 50.654 0 49.8833V49.1215H7.55635C8.36059 49.1215 8.66108 49.4581 8.66108 50.2288V50.9906H5.45295Z" fill="white"/>
<path d="M10.7466 49.1215C11.5509 49.1215 11.8514 49.4581 11.8514 50.2288V52.8864C12.3374 52.1777 13.071 51.6816 14.2376 51.6816C15.8195 51.6816 16.8889 52.7092 16.8889 54.7733V59.7962H14.8032V55.296C14.8032 54.1532 14.5204 53.4091 13.4775 53.4091C12.2491 53.4091 11.8514 54.5341 11.8514 55.8186V59.7962H9.76562V49.1215H10.7466Z" fill="white"/>
<path d="M20.7955 49.8302C20.7955 50.4946 20.2564 51.0172 19.5759 51.0172C18.9307 51.0172 18.3916 50.4946 18.3916 49.8302C18.3916 49.1657 18.9307 48.6254 19.5759 48.6254C20.2564 48.6254 20.7955 49.1657 20.7955 49.8302ZM20.6364 59.7962H18.5507V51.8942H19.5317C20.3359 51.8942 20.6364 52.2309 20.6364 53.0016V59.7962Z" fill="white"/>
<path d="M23.2789 51.8942C24.0831 51.8942 24.3836 52.2308 24.3836 53.0015V53.0192C24.8874 52.2308 25.6121 51.6904 26.8494 51.6904C28.4314 51.6904 29.5007 52.718 29.5007 54.7821V59.805H27.415V55.3048C27.415 54.162 27.1322 53.4179 26.0893 53.4179C24.8609 53.4179 24.4632 54.5429 24.4632 55.8274V59.805H22.3774V51.903H23.2789V51.8942Z" fill="white"/>
<path d="M33.2478 54.9151L35.6782 51.8942H38.1882L35.0949 55.4731L38.6831 59.7962H36.0583L33.2478 56.3945V59.7962H31.1621V49.1215H32.1431C32.9474 49.1215 33.2478 49.4581 33.2478 50.2288V54.9151Z" fill="white"/>
<path d="M46.0626 53.2496C45.1611 53.2496 44.5955 53.5685 44.516 54.3304H42.4479C42.4479 52.5055 44.2331 51.6816 46.0007 51.6816C48.0688 51.6816 49.3856 52.346 49.3856 54.7733V59.7962H47.3971V58.7154C46.911 59.495 46.0891 60 44.7723 60C43.208 60 42.2446 59.0787 42.2446 57.7499C42.2446 55.9958 43.4643 55.5175 45.2141 55.2606L45.4351 55.2251C47.1143 54.9859 47.4059 54.8442 47.4059 54.1621C47.4059 53.5685 46.8845 53.2496 46.0626 53.2496ZM47.4059 56.1641V56.0047C47.1054 56.2262 46.584 56.3236 45.7267 56.4299L45.5058 56.4653C44.7015 56.5805 44.3657 56.8728 44.3657 57.5107C44.3657 57.9979 44.6839 58.432 45.3732 58.432C46.3454 58.432 47.4059 57.7676 47.4059 56.1641Z" fill="white"/>
<path d="M52.0196 49.1215C52.8238 49.1215 53.1243 49.4581 53.1243 50.2288V52.8864C53.6104 52.1777 54.3439 51.6816 55.5105 51.6816C57.0925 51.6816 58.1619 52.7092 58.1619 54.7733V59.7962H56.0761V55.296C56.0761 54.1532 55.7933 53.4091 54.7505 53.4091C53.522 53.4091 53.1243 54.5341 53.1243 55.8186V59.7962H51.0386V49.1215H52.0196Z" fill="white"/>
<path d="M61.6437 56.3767C61.7586 57.5017 62.2447 58.4319 63.4113 58.4319C64.2332 58.4319 64.7104 58.0953 64.9402 57.484H67.0259C66.7078 59.176 65.223 59.9999 63.4113 59.9999C61.0604 59.9999 59.5845 58.5293 59.5845 55.854C59.5845 53.4976 61.0692 51.6904 63.4378 51.6904C65.6649 51.6904 67.132 53.099 67.132 55.792V56.3767H61.6437ZM61.7056 54.9947H65.0728C64.949 53.7899 64.295 53.2673 63.4466 53.2673C62.5275 53.2673 61.9088 53.9228 61.7056 54.9947Z" fill="white"/>
<path d="M71.9932 53.2496C71.0918 53.2496 70.5262 53.5685 70.4466 54.3304H68.3786C68.3786 52.5055 70.1638 51.6816 71.9314 51.6816C73.9994 51.6816 75.3163 52.346 75.3163 54.7733V59.7962H73.3278V58.7154C72.8417 59.495 72.0198 60 70.7029 60C69.1386 60 68.1753 59.0787 68.1753 57.7499C68.1753 55.9958 69.3949 55.5175 71.1448 55.2606L71.3658 55.2251C73.0449 54.9859 73.3366 54.8442 73.3366 54.1621C73.3366 53.5685 72.8152 53.2496 71.9932 53.2496ZM73.3366 56.1641V56.0047C73.0361 56.2262 72.5147 56.3236 71.6574 56.4299L71.4365 56.4653C70.6322 56.5805 70.2964 56.8728 70.2964 57.5107C70.2964 57.9979 70.6145 58.432 71.3039 58.432C72.2761 58.432 73.3366 57.7676 73.3366 56.1641Z" fill="white"/>
<path d="M82.4392 59.7963V58.6269C81.8559 59.6102 81.1401 60.0089 80.0177 60.0089C77.9143 60.0089 76.73 58.184 76.73 55.863C76.73 53.6306 77.8347 51.6994 80.1591 51.6994C81.0605 51.6994 81.8382 52.1423 82.342 52.9042V49.1304H83.323C84.1273 49.1304 84.4277 49.467 84.4277 50.2377V59.8051H82.4392V59.7963ZM78.8687 55.8541C78.8687 57.0235 79.3283 58.2814 80.6363 58.2814C81.9443 58.2814 82.4039 57.0146 82.4039 55.8453C82.4039 54.6759 81.9443 53.418 80.6363 53.418C79.3283 53.4091 78.8687 54.6759 78.8687 55.8541Z" fill="white"/>
<path d="M88.3782 58.7509C88.3782 59.4508 87.8126 60 87.1144 60C86.4162 60 85.8506 59.4419 85.8506 58.7509C85.8506 58.0511 86.4162 57.4841 87.1144 57.4841C87.8126 57.4841 88.3782 58.0511 88.3782 58.7509Z" fill="white"/>
<path d="M11.2861 3.29544C11.2861 3.29544 20.6277 0 28.5288 0C38.5067 0 48.2018 4.57995 60.672 4.68625C73.0273 4.80142 80.2831 0.504946 80.2831 0.504946C80.2831 0.504946 76.7568 9.60283 60.8487 9.60283C49.6777 9.60283 39.6998 5.36837 31.9755 3.49919C22.8637 1.30223 11.2861 3.29544 11.2861 3.29544Z" fill="white"/>
<path d="M65.6477 22.9617L71.2332 31.723H65.7272L61.2818 24.6803L60.0268 31.7495L55.8465 31.7407L58.5244 14.9712H62.6958L61.7325 21.7924L68.0957 14.9712L73.5929 14.9889L65.6477 22.9617ZM70.4554 25.2827C69.333 25.2827 68.3785 24.4145 68.3785 23.2275C68.3785 22.0581 69.333 21.19 70.4554 21.19C71.569 21.19 72.5235 22.0581 72.5235 23.2275C72.5235 24.4145 71.569 25.2827 70.4554 25.2827ZM54.8832 19.2499C54.5473 24.2196 50.4201 24.9904 50.4201 24.9904L54.4059 31.7318H49.1386L46.0011 25.3624L44.8169 31.7495H40.5924L43.2437 14.98L49.9517 14.9977C49.9517 14.9889 55.1837 14.8914 54.8832 19.2499ZM40.4245 23.573C39.6556 28.5958 34.8124 32.6531 29.6158 32.6177C24.4103 32.5823 20.8133 28.4895 21.5822 23.4578C22.3511 18.4349 27.3621 14.2713 32.5676 14.3068C37.7731 14.3333 41.1934 18.5412 40.4245 23.573ZM16.8716 31.7318H12.4439L14.4854 18.6387L10.9414 18.6298L11.5512 14.9446L23.1553 14.9357L22.5985 18.6298H18.8867L16.8716 31.7318ZM60.7161 11.6226C50.4996 11.6226 40.0798 7.75131 30.6675 7.85762C20.1151 7.97278 8.10449 12.0655 8.10449 12.0655V37.1091C8.10449 37.1091 19.0988 35.0538 28.299 35.0538C40.0886 35.0538 49.227 38.3936 61.0078 38.1012C72.2849 37.8178 75.5725 33.2555 75.5725 33.2555L75.5814 8.93838C75.5814 8.92952 71.295 11.6226 60.7161 11.6226Z" fill="white"/>
<path d="M71.0211 22.7049C71.0211 22.4125 70.7472 22.3594 70.4997 22.3594H70.0225V23.0946H70.4555C70.7472 23.0858 71.0211 23.0681 71.0211 22.7049Z" fill="white"/>
<path d="M47.0262 18.2844L46.3457 22.4922C46.3457 22.4922 49.819 22.8023 50.2344 20.2599C50.579 18.1781 47.0262 18.2844 47.0262 18.2844Z" fill="white"/>
<path d="M31.6752 18.5945C29.1034 18.5767 26.62 20.7737 26.2399 23.4313C25.8511 26.0889 27.6275 28.2505 30.2081 28.2682C32.7976 28.2859 35.1838 26.1421 35.5727 23.4933C35.9527 20.8357 34.2647 18.6122 31.6752 18.5945Z" fill="white"/>
<path d="M71.0565 24.4145L70.429 23.3869H70.0225V24.4145H69.6601V22.0493H70.5527C71.1183 22.0493 71.3923 22.253 71.3923 22.7137C71.3923 23.1389 71.1272 23.3249 70.7825 23.3692L71.4453 24.4145H71.0565ZM70.4555 21.5266C69.5275 21.5266 68.7852 22.2619 68.7852 23.2275C68.7852 24.2197 69.5187 24.9461 70.4555 24.9461C71.3835 24.9461 72.117 24.2197 72.117 23.2275C72.1082 22.253 71.3835 21.5266 70.4555 21.5266Z" fill="white"/>
</g>
<defs>
<clipPath id="clip0_218_825">
<rect width="88.3784" height="60" fill="white"/>
</clipPath>
</defs>
</svg>
