<svg style="display: none;" aria-hidden="true" xmlns="http://www.w3.org/2000/svg" xmlns:xlink="http://www.w3.org/1999/xlink">
	<symbol viewBox="0 0 89 60" id="main-logo" xmlns="http://www.w3.org/2000/svg">
		<g clip-path="url(#clip0_218_825)">
		<path d="M5.45295 50.9906V59.7962H3.20814V50.9906H1.10473C0.300486 50.9906 0 50.654 0 49.8833V49.1215H7.55635C8.36059 49.1215 8.66108 49.4581 8.66108 50.2288V50.9906H5.45295Z" />
		<path d="M10.7466 49.1215C11.5509 49.1215 11.8514 49.4581 11.8514 50.2288V52.8864C12.3374 52.1777 13.071 51.6816 14.2376 51.6816C15.8195 51.6816 16.8889 52.7092 16.8889 54.7733V59.7962H14.8032V55.296C14.8032 54.1532 14.5204 53.4091 13.4775 53.4091C12.2491 53.4091 11.8514 54.5341 11.8514 55.8186V59.7962H9.76562V49.1215H10.7466Z" />
		<path d="M20.7955 49.8302C20.7955 50.4946 20.2564 51.0172 19.5759 51.0172C18.9307 51.0172 18.3916 50.4946 18.3916 49.8302C18.3916 49.1657 18.9307 48.6254 19.5759 48.6254C20.2564 48.6254 20.7955 49.1657 20.7955 49.8302ZM20.6364 59.7962H18.5507V51.8942H19.5317C20.3359 51.8942 20.6364 52.2309 20.6364 53.0016V59.7962Z" />
		<path d="M23.2789 51.8942C24.0831 51.8942 24.3836 52.2308 24.3836 53.0015V53.0192C24.8874 52.2308 25.6121 51.6904 26.8494 51.6904C28.4314 51.6904 29.5007 52.718 29.5007 54.7821V59.805H27.415V55.3048C27.415 54.162 27.1322 53.4179 26.0893 53.4179C24.8609 53.4179 24.4632 54.5429 24.4632 55.8274V59.805H22.3774V51.903H23.2789V51.8942Z" />
		<path d="M33.2478 54.9151L35.6782 51.8942H38.1882L35.0949 55.4731L38.6831 59.7962H36.0583L33.2478 56.3945V59.7962H31.1621V49.1215H32.1431C32.9474 49.1215 33.2478 49.4581 33.2478 50.2288V54.9151Z" />
		<path d="M46.0626 53.2496C45.1611 53.2496 44.5955 53.5685 44.516 54.3304H42.4479C42.4479 52.5055 44.2331 51.6816 46.0007 51.6816C48.0688 51.6816 49.3856 52.346 49.3856 54.7733V59.7962H47.3971V58.7154C46.911 59.495 46.0891 60 44.7723 60C43.208 60 42.2446 59.0787 42.2446 57.7499C42.2446 55.9958 43.4643 55.5175 45.2141 55.2606L45.4351 55.2251C47.1143 54.9859 47.4059 54.8442 47.4059 54.1621C47.4059 53.5685 46.8845 53.2496 46.0626 53.2496ZM47.4059 56.1641V56.0047C47.1054 56.2262 46.584 56.3236 45.7267 56.4299L45.5058 56.4653C44.7015 56.5805 44.3657 56.8728 44.3657 57.5107C44.3657 57.9979 44.6839 58.432 45.3732 58.432C46.3454 58.432 47.4059 57.7676 47.4059 56.1641Z" />
		<path d="M52.0196 49.1215C52.8238 49.1215 53.1243 49.4581 53.1243 50.2288V52.8864C53.6104 52.1777 54.3439 51.6816 55.5105 51.6816C57.0925 51.6816 58.1619 52.7092 58.1619 54.7733V59.7962H56.0761V55.296C56.0761 54.1532 55.7933 53.4091 54.7505 53.4091C53.522 53.4091 53.1243 54.5341 53.1243 55.8186V59.7962H51.0386V49.1215H52.0196Z" />
		<path d="M61.6437 56.3767C61.7586 57.5017 62.2447 58.4319 63.4113 58.4319C64.2332 58.4319 64.7104 58.0953 64.9402 57.484H67.0259C66.7078 59.176 65.223 59.9999 63.4113 59.9999C61.0604 59.9999 59.5845 58.5293 59.5845 55.854C59.5845 53.4976 61.0692 51.6904 63.4378 51.6904C65.6649 51.6904 67.132 53.099 67.132 55.792V56.3767H61.6437ZM61.7056 54.9947H65.0728C64.949 53.7899 64.295 53.2673 63.4466 53.2673C62.5275 53.2673 61.9088 53.9228 61.7056 54.9947Z" />
		<path d="M71.9932 53.2496C71.0918 53.2496 70.5262 53.5685 70.4466 54.3304H68.3786C68.3786 52.5055 70.1638 51.6816 71.9314 51.6816C73.9994 51.6816 75.3163 52.346 75.3163 54.7733V59.7962H73.3278V58.7154C72.8417 59.495 72.0198 60 70.7029 60C69.1386 60 68.1753 59.0787 68.1753 57.7499C68.1753 55.9958 69.3949 55.5175 71.1448 55.2606L71.3658 55.2251C73.0449 54.9859 73.3366 54.8442 73.3366 54.1621C73.3366 53.5685 72.8152 53.2496 71.9932 53.2496ZM73.3366 56.1641V56.0047C73.0361 56.2262 72.5147 56.3236 71.6574 56.4299L71.4365 56.4653C70.6322 56.5805 70.2964 56.8728 70.2964 57.5107C70.2964 57.9979 70.6145 58.432 71.3039 58.432C72.2761 58.432 73.3366 57.7676 73.3366 56.1641Z" />
		<path d="M82.4392 59.7963V58.6269C81.8559 59.6102 81.1401 60.0089 80.0177 60.0089C77.9143 60.0089 76.73 58.184 76.73 55.863C76.73 53.6306 77.8347 51.6994 80.1591 51.6994C81.0605 51.6994 81.8382 52.1423 82.342 52.9042V49.1304H83.323C84.1273 49.1304 84.4277 49.467 84.4277 50.2377V59.8051H82.4392V59.7963ZM78.8687 55.8541C78.8687 57.0235 79.3283 58.2814 80.6363 58.2814C81.9443 58.2814 82.4039 57.0146 82.4039 55.8453C82.4039 54.6759 81.9443 53.418 80.6363 53.418C79.3283 53.4091 78.8687 54.6759 78.8687 55.8541Z" />
		<path d="M88.3782 58.7509C88.3782 59.4508 87.8126 60 87.1144 60C86.4162 60 85.8506 59.4419 85.8506 58.7509C85.8506 58.0511 86.4162 57.4841 87.1144 57.4841C87.8126 57.4841 88.3782 58.0511 88.3782 58.7509Z" />
		<path d="M11.2861 3.29544C11.2861 3.29544 20.6277 0 28.5288 0C38.5067 0 48.2018 4.57995 60.672 4.68625C73.0273 4.80142 80.2831 0.504946 80.2831 0.504946C80.2831 0.504946 76.7568 9.60283 60.8487 9.60283C49.6777 9.60283 39.6998 5.36837 31.9755 3.49919C22.8637 1.30223 11.2861 3.29544 11.2861 3.29544Z" />
		<path d="M65.6477 22.9617L71.2332 31.723H65.7272L61.2818 24.6803L60.0268 31.7495L55.8465 31.7407L58.5244 14.9712H62.6958L61.7325 21.7924L68.0957 14.9712L73.5929 14.9889L65.6477 22.9617ZM70.4554 25.2827C69.333 25.2827 68.3785 24.4145 68.3785 23.2275C68.3785 22.0581 69.333 21.19 70.4554 21.19C71.569 21.19 72.5235 22.0581 72.5235 23.2275C72.5235 24.4145 71.569 25.2827 70.4554 25.2827ZM54.8832 19.2499C54.5473 24.2196 50.4201 24.9904 50.4201 24.9904L54.4059 31.7318H49.1386L46.0011 25.3624L44.8169 31.7495H40.5924L43.2437 14.98L49.9517 14.9977C49.9517 14.9889 55.1837 14.8914 54.8832 19.2499ZM40.4245 23.573C39.6556 28.5958 34.8124 32.6531 29.6158 32.6177C24.4103 32.5823 20.8133 28.4895 21.5822 23.4578C22.3511 18.4349 27.3621 14.2713 32.5676 14.3068C37.7731 14.3333 41.1934 18.5412 40.4245 23.573ZM16.8716 31.7318H12.4439L14.4854 18.6387L10.9414 18.6298L11.5512 14.9446L23.1553 14.9357L22.5985 18.6298H18.8867L16.8716 31.7318ZM60.7161 11.6226C50.4996 11.6226 40.0798 7.75131 30.6675 7.85762C20.1151 7.97278 8.10449 12.0655 8.10449 12.0655V37.1091C8.10449 37.1091 19.0988 35.0538 28.299 35.0538C40.0886 35.0538 49.227 38.3936 61.0078 38.1012C72.2849 37.8178 75.5725 33.2555 75.5725 33.2555L75.5814 8.93838C75.5814 8.92952 71.295 11.6226 60.7161 11.6226Z" />
		<path d="M71.0211 22.7049C71.0211 22.4125 70.7472 22.3594 70.4997 22.3594H70.0225V23.0946H70.4555C70.7472 23.0858 71.0211 23.0681 71.0211 22.7049Z" />
		<path d="M47.0262 18.2844L46.3457 22.4922C46.3457 22.4922 49.819 22.8023 50.2344 20.2599C50.579 18.1781 47.0262 18.2844 47.0262 18.2844Z" />
		<path d="M31.6752 18.5945C29.1034 18.5767 26.62 20.7737 26.2399 23.4313C25.8511 26.0889 27.6275 28.2505 30.2081 28.2682C32.7976 28.2859 35.1838 26.1421 35.5727 23.4933C35.9527 20.8357 34.2647 18.6122 31.6752 18.5945Z" />
		<path d="M71.0565 24.4145L70.429 23.3869H70.0225V24.4145H69.6601V22.0493H70.5527C71.1183 22.0493 71.3923 22.253 71.3923 22.7137C71.3923 23.1389 71.1272 23.3249 70.7825 23.3692L71.4453 24.4145H71.0565ZM70.4555 21.5266C69.5275 21.5266 68.7852 22.2619 68.7852 23.2275C68.7852 24.2197 69.5187 24.9461 70.4555 24.9461C71.3835 24.9461 72.117 24.2197 72.117 23.2275C72.1082 22.253 71.3835 21.5266 70.4555 21.5266Z" />
		</g>
		<defs>
		<clipPath id="clip0_218_825">
		<rect width="88.3784" height="60" />
		</clipPath>
		</defs>
	</symbol>
	<symbol viewBox="0 0 163 38" id="essity-logo" xmlns="http://www.w3.org/2000/svg">
		<g clip-path="url(#clip0_291_1133)">
		<path d="M26.0844 10.9492C24.4455 10.9492 23.504 10.3613 23.2868 9.20322V9.16378H20.409V9.21756C20.7902 11.6519 22.9018 13.0466 26.1492 13.0466C29.9379 13.0466 32.4802 10.6445 32.4802 7.06641V6.88715C32.4802 3.30191 29.9265 0.817332 26.2674 0.817332C24.7561 0.765965 23.2819 1.26415 22.1509 2.20841C20.9655 3.2553 20.3633 4.78261 20.3633 6.75091V7.57552H29.45C29.3395 9.74817 28.1465 10.9421 26.0844 10.9421M23.3134 5.68609C23.4621 3.82177 24.4569 2.87885 26.275 2.87885C27.9369 2.87885 29.0994 3.92932 29.3967 5.68609H23.3134Z" />
		<path d="M32.9603 13.2153C31.449 13.1639 29.9748 13.6621 28.8438 14.6064C27.6584 15.6532 27.0562 17.1806 27.0562 19.1489V19.9735H36.1353C36.0248 22.1461 34.8317 23.34 32.7697 23.34C31.1307 23.34 30.1893 22.752 29.972 21.594V21.5546H27.0943V21.6083C27.5021 24.0463 29.5947 25.4553 32.8421 25.4553C36.6308 25.4553 39.1731 23.0532 39.1731 19.4751V19.2959C39.1731 15.7106 36.6194 13.226 32.9603 13.226M30.0025 18.0805C30.1511 16.2161 31.146 15.2732 32.9603 15.2732C34.6221 15.2732 35.7846 16.3237 36.0819 18.0805H30.0025Z" />
		<path d="M26.2747 25.7708C24.7635 25.7195 23.2892 26.2177 22.1582 27.1619C20.9728 28.2088 20.3706 29.7361 20.3706 31.7044V32.529H29.4497C29.3392 34.7017 28.1462 35.8956 26.0841 35.8956C24.4452 35.8956 23.5037 35.3076 23.2865 34.1496V34.1101H20.4087V34.1639C20.7899 36.5983 22.9015 37.9929 26.1489 37.9929C29.9376 37.9929 32.4799 35.5908 32.4799 32.0128V31.8335C32.4799 28.2482 29.9262 25.7637 26.2671 25.7637M23.3131 30.6324C23.4618 28.7681 24.4566 27.8216 26.2747 27.8216C27.9366 27.8216 29.0991 28.8721 29.3964 30.6324H23.3131Z" />
		<path d="M13.3497 13.0468C16.5971 13.0468 18.6858 11.6485 19.0899 9.21771V9.16393H16.2274V9.20337C16.0101 10.3614 15.0839 10.9494 13.4297 10.9494C11.3676 10.9494 10.1746 9.7555 10.0641 7.58284H19.1394V6.75823C19.1394 4.78994 18.5372 3.26262 17.3518 2.21573C16.2208 1.27147 14.7466 0.773289 13.2353 0.824657C9.57621 0.824657 7.02246 3.33433 7.02246 6.89447V7.07374C7.02246 10.659 9.56858 13.0539 13.3573 13.0539M10.1175 5.68983C10.4071 3.92589 11.5697 2.86825 13.2315 2.86825C15.0496 2.86825 16.0444 3.81475 16.1931 5.67549L10.1175 5.68983Z" />
		<path d="M25.825 19.1523C25.825 17.184 25.2227 15.6567 24.0373 14.6098C22.9063 13.6655 21.4321 13.1673 19.9209 13.2187C16.2618 13.2187 13.708 15.7284 13.708 19.2885V19.4678C13.708 23.053 16.2541 25.448 20.0428 25.448C23.2903 25.448 25.379 24.0497 25.783 21.6189V21.5651H22.9129V21.6046C22.6957 22.7626 21.7695 23.3506 20.1152 23.3506C18.0532 23.3506 16.8602 22.1567 16.7496 19.9841H25.825V19.1523ZM16.7954 18.0767C17.0927 16.3163 18.2552 15.2695 19.917 15.2695C21.7352 15.2695 22.73 16.216 22.8748 18.0767H16.7954Z" />
		<path d="M13.2319 25.7708C9.57279 25.7708 7.01904 28.2804 7.01904 31.8406V32.0198C7.01904 35.6051 9.56517 38 13.3539 38C16.6013 38 18.69 36.6018 19.0941 34.171V34.1172H16.2278V34.1566C16.0105 35.3147 15.0843 35.9027 13.4301 35.9027C11.368 35.9027 10.175 34.7088 10.0645 32.5361H19.1398V31.7115C19.1398 29.7432 18.5376 28.2159 17.3522 27.169C16.2212 26.2247 14.747 25.7266 13.2357 25.7779M10.1102 30.6323C10.4075 28.872 11.57 27.8215 13.2319 27.8215C15.05 27.8215 16.0448 28.768 16.1935 30.6323H10.1102Z" />
		<path d="M12.4048 21.6118V21.558H9.54233V21.5974C9.32507 22.7554 8.39886 23.3434 6.74464 23.3434C4.68259 23.3434 3.48957 22.1495 3.37903 19.9769H12.4544V19.1523C12.4544 17.184 11.8521 15.6567 10.6667 14.6098C9.53574 13.6655 8.06152 13.1673 6.55025 13.2187C2.89115 13.2187 0.337407 15.7284 0.337407 19.2885V19.4678C0.333595 23.0387 2.87972 25.4551 6.66841 25.4551C9.91586 25.4551 12.0046 24.0569 12.4086 21.6261M3.12366 18.0803C3.42096 16.3199 4.58349 15.273 6.24533 15.273C8.06344 15.273 9.05826 16.2195 9.20691 18.0803H3.12366Z" />
		<path d="M68.1298 11.2542C66.224 9.57989 63.6169 8.69434 60.5677 8.69434C53.8517 8.69434 49.1597 13.2727 49.1597 19.8301V20.1564C49.1597 26.7209 53.8288 31.1308 60.7849 31.1308C66.75 31.1308 70.5921 28.5602 71.3277 24.0822L71.3582 23.8922H65.9496L65.9229 24.0284C65.5418 26.0935 63.8494 27.144 60.9107 27.144C57.2364 27.144 55.0981 25.0251 54.8732 21.1782H71.4116V19.5899C71.4116 15.9796 70.3062 13.1759 68.126 11.2542M54.9875 17.5678C55.5517 14.4164 57.5756 12.6166 60.5715 12.6166C63.7961 12.6166 65.5799 14.2837 65.8696 17.5678H54.9875Z" />
		<path d="M83.5359 17.5138C80.0331 16.9581 79.0192 16.3844 79.0192 14.9539C79.0192 13.5234 80.3266 12.5984 82.4305 12.5984C84.7175 12.5984 85.861 13.4087 86.2764 15.3125L86.3069 15.4451H91.483L91.4601 15.2623C90.9494 10.9062 87.9116 8.6941 82.4305 8.6941C80.3264 8.65188 78.2592 9.21747 76.5074 10.3146C75.6541 10.8582 74.9584 11.5933 74.4832 12.4534C74.008 13.3135 73.7684 14.2716 73.7859 15.2408C73.7859 19.2096 75.9623 20.9449 82.0989 21.8663C85.6475 22.4292 86.791 23.1032 86.791 24.6305C86.791 26.3765 85.556 27.1868 82.907 27.1868C80.155 27.1868 78.8629 26.2116 78.5885 23.9206V23.7736H73.3057V23.9457C73.5229 28.5133 77.0372 31.1162 82.9413 31.1162C88.8454 31.1162 92.1462 28.5814 92.1462 24.1644C92.1462 19.6363 88.9864 18.2918 83.5283 17.4995" />
		<path d="M104.29 17.5138C100.787 16.9581 99.773 16.3844 99.773 14.9539C99.773 13.5234 101.08 12.5984 103.184 12.5984C105.471 12.5984 106.615 13.4087 107.03 15.3125L107.061 15.4451H112.237L112.214 15.2623C111.703 10.9062 108.665 8.6941 103.184 8.6941C101.08 8.65188 99.013 9.21747 97.2612 10.3146C96.4079 10.8582 95.7122 11.5933 95.237 12.4534C94.7619 13.3135 94.5222 14.2716 94.5397 15.2408C94.5397 19.2096 96.7161 20.9449 102.853 21.8663C106.401 22.4292 107.545 23.1032 107.545 24.6305C107.545 26.3765 106.31 27.1868 103.661 27.1868C100.909 27.1868 99.6167 26.2116 99.3423 23.9206V23.7736H94.0557V23.9457C94.2729 28.5133 97.7872 31.1162 103.691 31.1162C109.595 31.1162 112.896 28.5814 112.896 24.1644C112.896 19.6363 109.736 18.2918 104.278 17.4995" />
		<path d="M118.644 0.000119514C118.217 -0.00942851 117.792 0.0613625 117.395 0.20834C116.997 0.355317 116.634 0.575522 116.328 0.856035C116.022 1.13655 115.779 1.47172 115.612 1.8419C115.446 2.21207 115.36 2.60979 115.359 3.01172C115.416 3.79406 115.786 4.52696 116.395 5.06224C117.004 5.59753 117.807 5.89527 118.641 5.89527C119.474 5.89527 120.277 5.59753 120.886 5.06224C121.495 4.52696 121.866 3.79406 121.922 3.01172C121.921 2.61041 121.836 2.21329 121.669 1.8436C121.503 1.47391 121.261 1.13906 120.956 0.858645C120.65 0.578228 120.289 0.35787 119.892 0.210458C119.495 0.0630463 119.071 -0.00846065 118.644 0.000119514Z" />
		<path d="M116.098 9.14233H115.919V9.30725V30.5606V30.7255H116.098H121.324H121.499V30.5606V9.30725V9.14233H121.324H116.098Z" />
		<path d="M135.053 26.7386C133.448 26.7386 132.636 25.8782 132.636 24.1824V13.1721H137.591V9.14226H132.636V4.48145H127.06V9.14226H124.148V13.1721H127.06V24.6449C127.06 28.8145 129.545 31.0983 134.062 31.0983C135.287 31.1222 136.507 30.94 137.664 30.5605L137.778 30.5211V26.251L137.534 26.3443C136.744 26.6337 135.9 26.7679 135.053 26.7386Z" />
		<path d="M162.062 9.14233H156.966H156.844L156.802 9.24989L151.431 22.5511L145.596 9.24631L145.55 9.14233H145.432H139.772H139.501L139.612 9.37537L148.523 28.4094L144.448 37.7705L144.349 38H144.608H149.75H149.868L149.914 37.896L162.226 9.37179L162.325 9.14233H162.062Z" />
		</g>
		<defs>
		<clipPath id="clip0_291_1133">
		<rect width="162.658" height="38" />
		</clipPath>
		</defs>
	</symbol>
</svg>