<svg style="display: none;" aria-hidden="true" xmlns="http://www.w3.org/2000/svg" xmlns:xlink="http://www.w3.org/1999/xlink"><symbol viewBox="0 0 32 29" id="cart" xmlns="http://www.w3.org/2000/svg">
<path d="M10.2643 18.7374H10.2658C10.267 18.7374 10.2682 18.7371 10.2694 18.7371H27.1913C27.6079 18.7371 27.9742 18.4608 28.0887 18.0602L31.8221 4.99344C31.9025 4.71174 31.8461 4.40889 31.6699 4.17507C31.4934 3.94125 31.2176 3.80368 30.9247 3.80368H8.1118L7.44461 0.801186C7.34957 0.374134 6.97089 0.0703125 6.53338 0.0703125H0.933341C0.417816 0.0703125 0 0.488128 0 1.00365C0 1.51918 0.417816 1.93699 0.933341 1.93699H5.78477C5.90289 2.46905 8.97757 16.3053 9.15452 17.1013C8.1626 17.5325 7.46673 18.5215 7.46673 19.6705C7.46673 21.2144 8.72285 22.4705 10.2667 22.4705H27.1913C27.7069 22.4705 28.1247 22.0527 28.1247 21.5371C28.1247 21.0216 27.7069 20.6038 27.1913 20.6038H10.2667C9.75219 20.6038 9.33341 20.185 9.33341 19.6705C9.33341 19.1566 9.75074 18.7386 10.2643 18.7374ZM29.6873 5.67036L26.4872 16.8704H11.0154L8.52646 5.67036H29.6873Z" />
<path d="M9.33331 25.2703C9.33331 26.8142 10.5894 28.0703 12.1333 28.0703C13.6772 28.0703 14.9333 26.8142 14.9333 25.2703C14.9333 23.7264 13.6772 22.4703 12.1333 22.4703C10.5894 22.4703 9.33331 23.7264 9.33331 25.2703ZM12.1333 24.3369C12.6479 24.3369 13.0667 24.7557 13.0667 25.2703C13.0667 25.7848 12.6479 26.2036 12.1333 26.2036C11.6188 26.2036 11.2 25.7848 11.2 25.2703C11.2 24.7557 11.6188 24.3369 12.1333 24.3369Z"/>
<path d="M22.5243 25.2703C22.5243 26.8142 23.7804 28.0703 25.3243 28.0703C26.8682 28.0703 28.1243 26.8142 28.1243 25.2703C28.1243 23.7264 26.8682 22.4703 25.3243 22.4703C23.7804 22.4703 22.5243 23.7264 22.5243 25.2703ZM25.3243 24.3369C25.8389 24.3369 26.2577 24.7557 26.2577 25.2703C26.2577 25.7848 25.8389 26.2036 25.3243 26.2036C24.8098 26.2036 24.391 25.7848 24.391 25.2703C24.391 24.7557 24.8098 24.3369 25.3243 24.3369Z"/>
</symbol><symbol viewBox="0 0 22 17" fill="none" id="nav-arrow-left" xmlns="http://www.w3.org/2000/svg">
<path d="M9.09634 1.39585L1.74243 8.74976M1.74243 8.74976L9.09634 16.1037M1.74243 8.74976L21.2419 8.74976" stroke-width="1.5"/>
</symbol>
<symbol viewBox="0 0 17 18" fill="none" id="diagonal-arrow" xmlns="http://www.w3.org/2000/svg">
<path d="M1 16.5L16 1.5M16 1.5H1M16 1.5V16.5" stroke-width="2"/>
</symbol>
<symbol id="filters" viewBox="0 0 21 13">
	<g>
		<line x1="0.660645" y1="3.25" x2="20.6606" y2="3.25" stroke-width="1.5"/>
		<line x1="20.6606" y1="9.75" x2="0.660645" y2="9.75" stroke-width="1.5"/>
		<circle cx="6.41064" cy="3.25" r="2" stroke-width="1.5" />
		<circle cx="14.9106" cy="9.75" r="2" transform="rotate(180 14.9106 9.75)" stroke="white" stroke-width="1.5"/>
	</g>
</symbol>
<symbol id="small-arrow-down" viewBox="0 0 14 8">
		<g>
			<path d="M0.5 1L7 7L13.5 1"/>
		</g>
	</symbol>
<symbol id="contacts" viewBox="0 0 32 31">
	<path d="M31.0476 31C30.8571 31 30.6667 31 30.4762 30.8054L24.5714 25.3557H9.52381C6.47619 25.3557 4 22.8255 4 19.7114V18.1544C4 17.5705 4.38095 17.1812 4.95238 17.1812C5.52381 17.1812 5.90476 17.5705 5.90476 18.1544V19.7114C5.90476 21.8524 7.61905 23.4094 9.52381 23.4094H24.9524C25.1429 23.4094 25.3333 23.4094 25.5238 23.604L30.0952 27.6913V7.6443C30.0952 5.50336 28.381 3.94631 26.4762 3.94631H12C11.4286 3.94631 11.0476 3.55705 11.0476 2.97315C11.0476 2.38926 11.4286 2 12 2H26.4762C29.5238 2 32 4.5302 32 7.6443V30.0268C32 30.4161 31.8095 30.8054 31.4286 31C31.4286 31 31.2381 31 31.0476 31Z" />
	<path d="M4.42105 11.5625C4.10526 11.5625 3.94737 11.4062 3.78947 11.25C3.63158 11.0937 3.47368 10.7812 3.47368 10.625C3.47368 10.1562 3.63158 9.53125 3.78947 9.0625C4.10526 8.4375 4.42105 7.96875 4.89474 7.5C5.21053 7.1875 5.52632 6.875 5.84211 6.5625C6.1579 6.25 6.31579 5.9375 6.63158 5.46875C6.94737 5.15625 7.10526 4.6875 7.10526 4.0625C7.10526 3.59375 6.94737 3.28125 6.78947 2.96875C6.63158 2.5 6.31579 2.34375 6 2.03125C5.68421 1.71875 5.21053 1.71875 4.57895 1.71875C3.94737 1.71875 3.47368 1.875 3 2.03125C2.68421 2.34375 2.36842 2.65625 2.21053 2.96875C2.05263 3.4375 1.89474 3.90625 1.89474 4.375C1.89474 4.6875 1.73684 5 1.57895 5.15625C1.42105 5.3125 1.26316 5.3125 0.947369 5.3125C0.631579 5.3125 0.473684 5.15625 0.315789 5C0.157895 5 0 4.6875 0 4.375C0 3.4375 0.157895 2.65625 0.631579 2.03125C0.947368 1.40625 1.57895 0.78125 2.21053 0.46875C2.84211 0.15625 3.63158 0 4.57895 0C5.36842 0 6.1579 0.15625 6.78947 0.46875C7.42105 0.78125 7.89474 1.25 8.36842 1.875C8.84211 2.5 9 3.125 9 4.0625C9 4.6875 8.84211 5.3125 8.68421 5.9375C8.36842 6.40625 8.05263 6.875 7.57895 7.1875C7.26316 7.65625 6.78947 8.125 6.31579 8.4375C6 8.75 5.68421 9.0625 5.52632 9.53125C5.52632 10 5.36842 10.3125 5.36842 10.625C5.36842 10.9375 5.21053 11.0937 5.05263 11.25C4.89474 11.4062 4.73684 11.5625 4.42105 11.5625ZM4.42105 15C4.10526 15 3.78947 14.8437 3.47368 14.6875C3.31579 14.375 3.15789 14.0625 3.15789 13.75C3.15789 13.4375 3.31579 13.125 3.47368 12.8125C3.78947 12.5 4.10526 12.3437 4.42105 12.3437C4.73684 12.3437 5.05263 12.5 5.36842 12.6562C5.68421 12.9688 5.68421 13.2812 5.68421 13.5937C5.68421 13.9062 5.52632 14.2187 5.36842 14.5312C5.05263 14.8437 4.89474 15 4.42105 15Z"/>
</symbol>
<symbol id="checkbox-arrow" fill="none" viewBox="0 0 10 8">
	<path d="M1.10547 3.625L3.9339 6.45343L9.59075 0.796573"/>
</symbol>
<symbol id="insta" viewBox="0 0 19 19">
	<path d="M13.2803 0.277344H5.89307C4.44964 0.27904 3.06582 0.853258 2.04524 1.87401C1.02466 2.89476 0.450672 4.27868 0.449219 5.72211L0.449219 13.1094C0.450915 14.5528 1.02513 15.9366 2.04588 16.9572C3.06663 17.9778 4.45055 18.5518 5.89399 18.5532H13.2812C14.7247 18.5515 16.1085 17.9773 17.1291 16.9565C18.1496 15.9358 18.7236 14.5519 18.7251 13.1084V5.7212C18.7234 4.27776 18.1492 2.89394 17.1284 1.87336C16.1077 0.852782 14.7237 0.278797 13.2803 0.277344V0.277344ZM16.887 13.1084C16.887 13.5821 16.7937 14.0511 16.6124 14.4886C16.4312 14.9262 16.1655 15.3238 15.8306 15.6587C15.4957 15.9936 15.0981 16.2593 14.6605 16.4406C14.2229 16.6218 13.7539 16.7151 13.2803 16.7151H5.89307C4.93669 16.7148 4.01955 16.3348 3.34337 15.6584C2.66719 14.982 2.28733 14.0648 2.28733 13.1084V5.7212C2.28757 4.76481 2.66767 3.84768 3.34402 3.1715C4.02037 2.49532 4.9376 2.11546 5.89399 2.11546H13.2812C14.2376 2.1157 15.1547 2.49579 15.8309 3.17215C16.5071 3.8485 16.887 4.76573 16.887 5.72211V13.1094V13.1084Z"/>
	<path d="M9.58464 4.6875C8.33186 4.68944 7.13096 5.18802 6.24519 6.07396C5.35942 6.9599 4.86107 8.1609 4.85938 9.41369C4.86083 10.6668 5.3592 11.8682 6.24519 12.7543C7.13118 13.6405 8.33246 14.1391 9.58556 14.1408C10.8388 14.1393 12.0403 13.6408 12.9265 12.7546C13.8127 11.8685 14.3112 10.6669 14.3127 9.41369C14.3107 8.16059 13.8119 6.9594 12.9255 6.07359C12.0392 5.18777 10.8377 4.68963 9.58464 4.68842V4.6875ZM9.58464 12.3027C8.81868 12.3027 8.08409 11.9984 7.54247 11.4568C7.00085 10.9152 6.69657 10.1806 6.69657 9.4146C6.69657 8.64864 7.00085 7.91404 7.54247 7.37243C8.08409 6.83081 8.81868 6.52653 9.58464 6.52653C10.3506 6.52653 11.0852 6.83081 11.6268 7.37243C12.1684 7.91404 12.4727 8.64864 12.4727 9.4146C12.4727 10.1806 12.1684 10.9152 11.6268 11.4568C11.0852 11.9984 10.3506 12.3027 9.58464 12.3027Z"/>
	<path d="M14.3238 5.85844C14.9491 5.85844 15.4561 5.35147 15.4561 4.72609C15.4561 4.10072 14.9491 3.59375 14.3238 3.59375C13.6984 3.59375 13.1914 4.10072 13.1914 4.72609C13.1914 5.35147 13.6984 5.85844 14.3238 5.85844Z"/>
</symbol>
<symbol id="paperclip" fill="none" viewBox="0 0 13 22">
	<path d="M1 6V14.75C1 18.1967 3.42957 21 6.41667 21C9.40377 21 11.8333 18.1967 11.8333 14.75V5.58328C11.8333 3.05673 10.0516 1 7.86115 1C5.67055 1 3.88884 3.05673 3.88884 5.58328V13.9167C3.88884 15.525 5.02283 16.8333 6.41667 16.8333C7.81051 16.8333 8.94449 15.525 8.94449 13.9167V6" stroke-width="1.5"/>
</symbol>
<symbol id="location-pointer" viewBox="0 0 14 17">
	<path d="M7.40703 16.1875L7.0968 16.4958C7.17896 16.5785 7.29077 16.6251 7.40738 16.625C7.52399 16.6249 7.63573 16.5782 7.71776 16.4953L7.40703 16.1875ZM1.93219 9.36364L2.3238 9.16904L2.32335 9.16816L1.93219 9.36364ZM7.40703 0.875C8.97751 0.875 10.3975 1.5145 11.4263 2.55112L12.0468 1.93456C10.8609 0.739638 9.2203 0 7.40703 0V0.875ZM11.4263 2.55112C12.4551 3.58779 13.091 5.02003 13.091 6.60533H13.9654C13.9654 4.78109 13.2326 3.12942 12.0468 1.93456L11.4263 2.55112ZM13.091 6.60533C13.091 7.52753 12.8745 8.3993 12.4907 9.16816L13.273 9.55911C13.7162 8.67107 13.9654 7.66567 13.9654 6.60533H13.091ZM12.4907 9.16816C12.1217 9.90946 11.157 11.2034 10.0687 12.5282C8.99023 13.8412 7.82791 15.1402 7.09631 15.8797L7.71776 16.4953C8.47367 15.7312 9.65429 14.4107 10.7442 13.0839C11.8242 11.769 12.8531 10.4028 13.273 9.55911L12.4907 9.16816ZM7.71727 15.8792C6.98357 15.1399 5.82142 13.8423 4.74364 12.5301C3.65607 11.2059 2.69273 9.91253 2.3238 9.16904L1.54058 9.55815C1.96056 10.4045 2.9885 11.7713 4.06806 13.0856C5.15741 14.412 6.33822 15.7315 7.0968 16.4958L7.71727 15.8792ZM2.32335 9.16816C1.93964 8.3993 1.72309 7.52753 1.72309 6.60533H0.848633C0.848633 7.66567 1.09782 8.67107 1.54103 9.55911L2.32335 9.16816ZM1.72309 6.60533C1.72309 3.43932 4.27237 0.875 7.40703 0.875V0C3.78369 0 0.848633 2.96183 0.848633 6.60533H1.72309ZM10.0304 6.34375C10.0304 7.71824 8.871 8.85938 7.40703 8.85938V9.73438C9.32366 9.73438 10.9048 8.2312 10.9048 6.34375H10.0304ZM7.40703 8.85938C5.94307 8.85938 4.78367 7.71824 4.78367 6.34375H3.90922C3.90922 8.2312 5.49037 9.73438 7.40703 9.73438V8.85938ZM4.78367 6.34375C4.78367 4.96926 5.94307 3.82812 7.40703 3.82812V2.95312C5.49037 2.95312 3.90922 4.4563 3.90922 6.34375H4.78367ZM7.40703 3.82812C8.871 3.82812 10.0304 4.96926 10.0304 6.34375H10.9048C10.9048 4.4563 9.32366 2.95312 7.40703 2.95312V3.82812Z"/>
</symbol>
<symbol id="phone" fill="none" viewBox="0 0 16 16">
	<path d="M14.0761 10.2259C13.2056 10.2259 12.351 10.0897 11.5412 9.822C11.1443 9.68654 10.6565 9.8108 10.4143 10.0596L8.81572 11.2668C6.96186 10.2768 5.81992 9.13489 4.84385 7.29422L6.01507 5.73674C6.31937 5.43274 6.42851 4.98866 6.29774 4.57199C6.02895 3.75755 5.89242 2.903 5.89242 2.03189C5.89245 1.40259 5.38068 0.890625 4.75166 0.890625H2.14079C1.51177 0.890625 1 1.40259 1 2.03185C1 9.24485 6.86586 15.1128 14.0761 15.1128C14.7051 15.1128 15.2169 14.6008 15.2169 13.9716V11.3671C15.2169 10.7378 14.7051 10.2259 14.0761 10.2259Z" stroke-width="0.888889"/>
</symbol>
<symbol id="envelope" fill="none" viewBox="0 0 17 17">
	<path d="M1.00586 6.26295V16.1051M1.00586 6.26295L8.60827 0.894531L16.2107 6.26295M1.00586 6.26295L6.77321 12.0325M1.00586 16.1051H16.2107M1.00586 16.1051L6.77321 12.0325M16.2107 6.26295V16.1051M16.2107 6.26295L10.4433 12.0325M6.77321 12.0325L8.60827 10.7366L10.4433 12.0325M16.2107 16.1051L10.4433 12.0325" stroke-width="0.894737" stroke-linecap="round" stroke-linejoin="round"/>
</symbol>
<symbol id="globe" fill="none" viewBox="0 0 18 18">
	<path d="M9.10722 0.898438C13.5793 0.898438 17.2042 4.52472 17.2042 8.99844C17.2042 13.4722 13.5793 17.0984 9.10722 17.0984C4.63518 17.0984 1.01025 13.4722 1.01025 8.99844C1.01025 4.52472 4.63518 0.898438 9.10722 0.898438ZM9.10722 0.898438V17.0935M1.01518 9.00339H17.2042M14.8302 3.36194C13.594 4.48037 11.491 5.2145 9.10229 5.2145C6.71852 5.2145 4.6204 4.48037 3.38419 3.3718M14.8302 14.6399C13.594 13.5214 11.491 12.7873 9.10229 12.7873C6.71852 12.7873 4.6204 13.5214 3.38419 14.63M9.03334 17.0098C6.59046 15.2853 4.98487 12.3488 4.98487 9.01815C4.98487 5.69241 6.58554 2.76578 9.01857 1.03639M9.30425 17.0098C11.7471 15.2853 13.3527 12.3488 13.3527 9.01815C13.3527 5.69241 11.7521 2.76578 9.319 1.03639" stroke-width="0.9" stroke-miterlimit="22.9256" stroke-linecap="round" stroke-linejoin="round"/>
</symbol>
<symbol id="clock" fill="none" viewBox="0 0 19 18">
	<path d="M0.5 9C0.5 4.31724 4.34109 0.5 9.06928 0.5C13.7975 0.5 17.6386 4.31724 17.6386 9C17.6386 13.6828 13.7975 17.5 9.06928 17.5C4.34109 17.5 0.5 13.6828 0.5 9ZM0.633665 9C0.633665 13.6221 4.42098 17.375 9.06928 17.375C13.7176 17.375 17.5049 13.6221 17.5049 9C17.5049 4.3779 13.7176 0.625005 9.06928 0.625005C4.42098 0.625005 0.633665 4.3779 0.633665 9Z"/>
	<path d="M9.13611 8.76707V8.9753L9.28391 9.12198L12.1612 11.9773L12.0695 12.0683L9.00244 9.02466V3.875H9.13611V8.76707Z"/>
</symbol>
<symbol id="magnifier" viewBox="0 0 17 17">
<path fill-rule="evenodd" clip-rule="evenodd" d="M9.68877 3.5132C11.5618 5.38627 11.5618 8.42312 9.68877 10.2962C7.8157 12.1693 4.77885 12.1693 2.90578 10.2962C1.03271 8.42312 1.03271 5.38627 2.90578 3.5132C4.77885 1.64013 7.8157 1.64013 9.68877 3.5132ZM10.8432 11.2611C13.2079 8.79562 13.1766 4.87975 10.7494 2.45254C8.29057 -0.00631571 4.30398 -0.00631583 1.84512 2.45254C-0.613738 4.9114 -0.613738 8.89799 1.84512 11.3568C4.27233 13.7841 8.18819 13.8153 10.6537 11.4506L10.4867 11.6176L15.7245 16.8554L16.7852 15.7948L11.5474 10.5569L10.8432 11.2611Z"/>
</symbol>
<symbol id="small-arrow-down" viewBox="0 0 15 8">
	<path d="M1 1L7.5 7L14 1"/>
</symbol>
<symbol id="close" viewBox="0 0 8 7">
	<g><path fill-rule="evenodd" clip-rule="evenodd" d="M2.97469 3.53539L1.03014 5.47993L2.0908 6.54059L4.03535 4.59605L5.94454 6.50524L7.0052 5.44458L5.09601 3.53539L7.04055 1.59084L5.97989 0.530183L4.03535 2.47473L2.05546 0.494837L0.994796 1.5555L2.97469 3.53539Z"/></g>
</symbol>
<symbol id="delete" viewBox="0 0 16 17">
	<path d="M4.83333 1.5H4.66667C4.75833 1.5 4.83333 1.425 4.83333 1.33333V1.5H11.1667V1.33333C11.1667 1.425 11.2417 1.5 11.3333 1.5H11.1667V3H12.6667V1.33333C12.6667 0.597917 12.0688 0 11.3333 0H4.66667C3.93125 0 3.33333 0.597917 3.33333 1.33333V3H4.83333V1.5ZM15.3333 3H0.666667C0.297917 3 0 3.29792 0 3.66667V4.33333C0 4.425 0.075 4.5 0.166667 4.5H1.425L1.93958 15.3958C1.97292 16.1062 2.56042 16.6667 3.27083 16.6667H12.7292C13.4417 16.6667 14.0271 16.1083 14.0604 15.3958L14.575 4.5H15.8333C15.925 4.5 16 4.425 16 4.33333V3.66667C16 3.29792 15.7021 3 15.3333 3ZM12.5688 15.1667H3.43125L2.92708 4.5H13.0729L12.5688 15.1667Z"/>
</symbol>
</svg>