<svg width="320" height="44" viewBox="0 0 320 44" fill="none" xmlns="http://www.w3.org/2000/svg">
<g clip-path="url(#clip0_10440_80119)">
<path d="M97.1842 21.8871H82.7362C82.2847 21.8871 81.8332 22.3361 81.8332 22.785V25.1422C81.8332 25.5912 82.2847 26.0401 82.7362 26.0401H93.5722V30.3054C91.6533 30.9789 89.1701 31.3156 86.1225 31.3156C78.5599 31.3156 72.6904 27.9483 72.6904 23.5708C72.6904 19.1932 78.5599 15.8259 86.1225 15.8259C91.2018 15.8259 94.8138 17.1728 96.2812 18.4075C96.5069 18.632 96.9584 18.632 97.1842 18.5197C97.5228 18.4075 97.7486 18.0708 97.7486 17.734V14.7034C97.7486 14.3667 97.5228 14.1422 97.2971 13.9177C94.8138 12.4585 90.5246 11.5605 86.1225 11.5605C75.9637 11.5605 68.0625 16.8361 68.0625 23.5708C68.0625 30.4177 75.8509 35.581 86.1225 35.581C91.089 35.581 94.9267 34.7952 97.5228 33.2238C97.7486 33.1116 97.9743 32.7748 97.9743 32.4381V22.785C98.0872 22.3361 97.6357 21.8871 97.1842 21.8871Z" fill="black"/>
<path d="M211.753 14.029C209.044 12.4576 205.207 11.6719 200.353 11.6719C190.081 11.6719 182.293 16.8351 182.293 23.6821C182.293 30.4168 190.194 35.6923 200.353 35.6923C204.755 35.6923 209.044 34.7943 211.528 33.3351C211.753 33.2229 211.979 32.8862 211.979 32.5494V29.5188C211.979 29.1821 211.753 28.8453 211.415 28.7331C211.076 28.6209 210.737 28.6209 210.512 28.8453C209.044 30.08 205.432 31.427 200.353 31.427C192.79 31.427 186.921 28.0596 186.921 23.6821C186.921 19.3045 192.79 15.9372 200.353 15.9372C203.401 15.9372 205.884 16.2739 207.803 16.9474V21.9984H196.967C196.515 21.9984 196.064 22.4474 196.064 22.8964V25.2535C196.064 25.7025 196.515 26.1515 196.967 26.1515H211.415C211.866 26.1515 212.318 25.7025 212.318 25.2535V14.8147C212.205 14.478 211.979 14.1413 211.753 14.029Z" fill="black"/>
<path d="M172.472 14.029C169.763 12.4576 165.925 11.6719 160.958 11.6719C150.687 11.6719 142.898 16.8351 142.898 23.6821C142.898 30.4168 150.8 35.6923 160.958 35.6923C165.361 35.6923 169.65 34.7943 172.133 33.3351C172.359 33.2229 172.584 32.8862 172.584 32.5494V29.5188C172.584 29.1821 172.359 28.8453 172.02 28.7331C171.681 28.6209 171.343 28.6209 171.117 28.8453C169.65 30.08 166.038 31.427 160.958 31.427C153.396 31.427 147.526 28.0596 147.526 23.6821C147.526 19.3045 153.396 15.9372 160.958 15.9372C164.006 15.9372 166.489 16.2739 168.408 16.9474V21.9984H157.572C157.121 21.9984 156.669 22.4474 156.669 22.8964V25.2535C156.669 25.7025 157.121 26.1515 157.572 26.1515H172.02C172.472 26.1515 172.923 25.7025 172.923 25.2535V14.8147C172.923 14.478 172.81 14.1413 172.472 14.029Z" fill="black"/>
<path d="M136.239 33.5609C136.239 33.5609 127.435 27.7242 126.419 27.0507C125.403 26.3772 123.032 25.816 123.032 25.816C123.71 25.9283 126.08 26.0405 126.644 25.9283C133.53 24.918 134.32 20.8772 134.32 19.1936C134.32 12.6834 126.08 12.2344 123.484 12.2344H110.165C109.713 12.2344 109.262 12.6834 109.262 13.1323V34.3466C109.262 34.7956 109.713 35.2446 110.165 35.2446H112.987C113.438 35.2446 113.89 34.7956 113.89 34.3466V16.3874H123.484C127.435 16.3874 129.692 17.3976 129.692 19.1936C129.692 20.5405 128.338 21.5507 125.854 21.8874C125.177 21.9997 124.387 21.9997 123.484 21.9997H117.502C117.276 21.9997 117.05 22.1119 116.824 22.2242C116.711 22.4487 116.599 22.6732 116.599 22.8976V25.2548C116.599 25.5915 116.711 25.816 117.05 26.0405L130.708 35.1323C130.821 35.2446 131.047 35.2446 131.159 35.2446H135.674C136.126 35.2446 136.465 35.0201 136.577 34.5711C136.803 34.1221 136.577 33.6732 136.239 33.5609Z" fill="black"/>
<path d="M235.681 11.7852H225.635C225.635 11.7852 225.635 11.7852 225.522 11.7852H222.813C222.362 11.7852 221.91 12.2341 221.91 12.6831V34.2341C221.91 34.6831 222.362 35.1321 222.813 35.1321H225.522C225.974 35.1321 226.425 34.6831 226.425 34.2341V15.9382H235.681C241.325 15.9382 244.824 19.1933 244.824 24.3566V34.3464C244.824 34.7954 245.275 35.2443 245.727 35.2443H248.549C249 35.2443 249.452 34.7954 249.452 34.3464V24.2443C249.452 16.6117 244.146 11.7852 235.681 11.7852Z" fill="black"/>
<path d="M283.314 11.7852H280.605C280.605 11.7852 280.605 11.7852 280.492 11.7852H270.447C261.981 11.7852 256.676 16.4994 256.676 24.1321V34.2341C256.676 34.6831 257.127 35.1321 257.579 35.1321H260.401C260.852 35.1321 261.304 34.6831 261.304 34.2341V24.2443C261.304 19.0811 264.803 15.9382 270.447 15.826H279.702V21.775H268.866C268.415 21.775 267.963 22.2239 267.963 22.6729V25.0301C267.963 25.479 268.415 25.928 268.866 25.928H279.702V34.1219C279.702 34.5709 280.154 35.0199 280.605 35.0199H283.314C283.766 35.0199 284.217 34.5709 284.217 34.1219V12.6831C284.217 12.2341 283.766 11.7852 283.314 11.7852Z" fill="black"/>
<path d="M319.096 11.7852H316.274C315.822 11.7852 315.371 12.2341 315.371 12.6831V22.6729C315.371 27.8362 311.872 30.979 306.228 31.0913H306.115V35.2443C306.115 35.2443 306.115 35.2443 306.228 35.2443C314.694 35.2443 319.999 30.4178 319.999 22.8974V12.7954C319.999 12.2341 319.547 11.7852 319.096 11.7852Z" fill="black"/>
<path d="M293.587 11.7852H296.408C296.86 11.7852 297.311 12.2341 297.311 12.6831V22.6729C297.311 27.8362 300.811 30.979 306.454 31.0913H306.567V35.2443C306.567 35.2443 306.567 35.2443 306.454 35.2443C297.989 35.2443 292.684 30.4178 292.684 22.8974V12.7954C292.684 12.2341 293.135 11.7852 293.587 11.7852Z" fill="black"/>
<path d="M42.4403 0H23.3644C16.9306 0 10.8353 6.06122 10.8353 12.4592V21.102C10.8353 23.6837 11.7383 26.2653 13.3186 28.398L11.174 30.5306C10.4967 31.2041 10.4967 32.2143 11.174 32.7755L11.9641 33.5612C12.3027 33.898 12.7542 34.0102 13.0928 34.0102C13.5443 34.0102 13.8829 33.898 14.2216 33.5612L16.3662 31.4286C18.5108 33 20.9941 33.898 23.5902 33.898H32.2815C38.9412 33.898 44.8106 28.398 44.8106 22.1122V2.46939C44.9235 1.12245 43.7948 0 42.4403 0ZM21.4456 26.4898L26.8635 21.102L29.2339 18.7449C29.7983 18.1837 29.7983 17.398 29.2339 16.8367L28.1052 15.7143C27.5408 15.1531 26.7507 15.1531 26.1863 15.7143L23.9288 17.9592L18.5108 23.3469L16.7048 25.1429C15.9147 23.9082 15.4632 22.5612 15.4632 21.2143V12.5714C15.4632 8.19388 19.0752 4.71429 23.3644 4.71429H40.2956V22.2245C40.2956 25.9286 36.5708 29.2959 32.3944 29.2959H23.7031C22.3486 29.2959 20.9941 28.8469 19.8653 28.1735L21.4456 26.4898Z" fill="#52AE32"/>
<path d="M53.8409 11.3359H52.2606C51.4705 11.3359 50.7932 12.0094 50.7932 12.7951V20.3155C50.7932 34.2339 45.2624 39.2849 30.9273 39.2849H24.3805C10.1583 39.2849 4.62746 34.2339 4.62746 20.4278V12.5706C4.62746 11.8972 4.06309 11.3359 3.38584 11.3359H1.12834C0.451093 11.3359 -0.113281 11.8972 -0.113281 12.5706V20.4278C-0.113281 36.9278 7.1107 43.9992 24.3805 43.9992H30.9273C48.0842 43.9992 55.4211 37.04 55.4211 20.4278V12.9074C55.4211 12.0094 54.7439 11.3359 53.8409 11.3359Z" fill="#EC6726"/>
</g>
<defs>
<clipPath id="clip0_10440_80119">
<rect width="320" height="44" fill="white"/>
</clipPath>
</defs>
</svg>
