<svg width="684" height="94" viewBox="0 0 684 94" fill="none" xmlns="http://www.w3.org/2000/svg">
<path d="M207.732 46.7585H176.849C175.884 46.7585 174.919 47.7177 174.919 48.6769V53.7126C174.919 54.6718 175.884 55.6309 176.849 55.6309H200.011V64.7432C195.91 66.182 190.602 66.9013 184.088 66.9013C167.922 66.9013 155.376 59.7075 155.376 50.3554C155.376 41.0034 167.922 33.8095 184.088 33.8095C194.945 33.8095 202.665 36.6871 205.802 39.3248C206.284 39.8044 207.249 39.8044 207.732 39.5646C208.456 39.3248 208.938 38.6054 208.938 37.886V31.4116C208.938 30.6922 208.456 30.2126 207.973 29.733C202.665 26.6156 193.497 24.6973 184.088 24.6973C162.373 24.6973 145.484 35.9677 145.484 50.3554C145.484 64.983 162.132 76.0136 184.088 76.0136C194.703 76.0136 202.907 74.335 208.456 70.9779C208.938 70.7381 209.421 70.0187 209.421 69.2993V48.6769C209.662 47.7177 208.697 46.7585 207.732 46.7585Z" fill="white"/>
<path d="M452.62 29.9713C446.829 26.6141 438.626 24.9355 428.252 24.9355C406.296 24.9355 389.648 35.9662 389.648 50.5937C389.648 64.9815 406.537 76.2519 428.252 76.2519C437.661 76.2519 446.829 74.3335 452.137 71.2162C452.62 70.9764 453.102 70.257 453.102 69.5376V63.0631C453.102 62.3437 452.62 61.6243 451.896 61.3845C451.172 61.1447 450.448 61.1447 449.966 61.6243C446.829 64.2621 439.109 67.1396 428.252 67.1396C412.087 67.1396 399.541 59.9458 399.541 50.5937C399.541 41.2417 412.087 34.0478 428.252 34.0478C434.766 34.0478 440.074 34.7672 444.175 36.206V46.9968H421.014C420.048 46.9968 419.083 47.956 419.083 48.9151V53.9509C419.083 54.91 420.048 55.8692 421.014 55.8692H451.896C452.861 55.8692 453.826 54.91 453.826 53.9509V31.6498C453.585 30.9304 453.102 30.2111 452.62 29.9713Z" fill="white"/>
<path d="M368.658 29.9713C362.868 26.6141 354.664 24.9355 344.049 24.9355C322.093 24.9355 305.445 35.9662 305.445 50.5937C305.445 64.9815 322.334 76.2519 344.049 76.2519C353.458 76.2519 362.626 74.3335 367.934 71.2162C368.417 70.9764 368.899 70.257 368.899 69.5376V63.0631C368.899 62.3437 368.417 61.6243 367.693 61.3845C366.969 61.1447 366.245 61.1447 365.763 61.6243C362.626 64.2621 354.906 67.1396 344.049 67.1396C327.883 67.1396 315.337 59.9458 315.337 50.5937C315.337 41.2417 327.883 34.0478 344.049 34.0478C350.563 34.0478 355.871 34.7672 359.972 36.206V46.9968H336.81C335.845 46.9968 334.88 47.956 334.88 48.9151V53.9509C334.88 54.91 335.845 55.8692 336.81 55.8692H367.693C368.658 55.8692 369.623 54.91 369.623 53.9509V31.6498C369.623 30.9304 369.382 30.2111 368.658 29.9713Z" fill="white"/>
<path d="M291.21 71.6979C291.21 71.6979 272.391 59.2286 270.22 57.7898C268.048 56.351 262.982 55.152 262.982 55.152C264.429 55.3918 269.496 55.6316 270.702 55.3918C285.42 53.2337 287.109 44.601 287.109 41.0041C287.109 27.0959 269.496 26.1367 263.947 26.1367H235.477C234.512 26.1367 233.547 27.0959 233.547 28.0551V73.3765C233.547 74.3357 234.512 75.2949 235.477 75.2949H241.509C242.474 75.2949 243.439 74.3357 243.439 73.3765V35.0092H263.947C272.391 35.0092 277.217 37.1673 277.217 41.0041C277.217 43.8816 274.321 46.0398 269.014 46.7592C267.566 46.999 265.877 46.999 263.947 46.999H251.16C250.677 46.999 250.194 47.2388 249.712 47.4786C249.471 47.9581 249.229 48.4377 249.229 48.9173V53.953C249.229 54.6724 249.471 55.152 250.194 55.6316L279.388 75.0551C279.629 75.2949 280.112 75.2949 280.353 75.2949H290.004C290.969 75.2949 291.693 74.8153 291.934 73.8561C292.417 72.8969 291.934 71.9377 291.21 71.6979Z" fill="white"/>
<path d="M503.771 25.1777H482.298C482.298 25.1777 482.298 25.1777 482.057 25.1777H476.266C475.301 25.1777 474.336 26.1369 474.336 27.0961V73.1369C474.336 74.0961 475.301 75.0553 476.266 75.0553H482.057C483.022 75.0553 483.987 74.0961 483.987 73.1369V34.0502H503.771C515.834 34.0502 523.314 41.0043 523.314 52.0349V73.3767C523.314 74.3359 524.279 75.2951 525.244 75.2951H531.276C532.241 75.2951 533.206 74.3359 533.206 73.3767V51.7951C533.206 35.489 521.866 25.1777 503.771 25.1777Z" fill="white"/>
<path d="M605.584 25.1777H599.794C599.794 25.1777 599.794 25.1777 599.552 25.1777H578.079C559.984 25.1777 548.645 35.2492 548.645 51.5553V73.1369C548.645 74.0961 549.61 75.0553 550.575 75.0553H556.606C557.572 75.0553 558.537 74.0961 558.537 73.1369V51.7951C558.537 40.7645 566.016 34.0502 578.079 33.8104H597.864V46.5196H574.702C573.737 46.5196 572.772 47.4788 572.772 48.4379V53.4737C572.772 54.4328 573.737 55.392 574.702 55.392H597.864V72.8971C597.864 73.8563 598.829 74.8155 599.794 74.8155H605.584C606.549 74.8155 607.514 73.8563 607.514 72.8971V27.0961C607.514 26.1369 606.549 25.1777 605.584 25.1777Z" fill="white"/>
<path d="M682.07 25.1777H676.038C675.073 25.1777 674.108 26.1369 674.108 27.0961V48.4379C674.108 59.4685 666.629 66.1828 654.565 66.4226H654.324V75.2951C654.324 75.2951 654.324 75.2951 654.565 75.2951C672.661 75.2951 684 64.9839 684 48.9175V27.3359C684 26.1369 683.035 25.1777 682.07 25.1777Z" fill="white"/>
<path d="M627.54 25.1777H633.571C634.536 25.1777 635.501 26.1369 635.501 27.0961V48.4379C635.501 59.4685 642.981 66.1828 655.044 66.4226H655.286V75.2951C655.286 75.2951 655.286 75.2951 655.044 75.2951C636.949 75.2951 625.609 64.9839 625.609 48.9175V27.3359C625.609 26.1369 626.574 25.1777 627.54 25.1777Z" fill="white"/>
<path d="M90.7182 0H49.9436C36.1913 0 23.1627 12.949 23.1627 26.6173V45.0816C23.1627 50.5969 25.0928 56.1122 28.4706 60.6684L23.8865 65.2245C22.4389 66.6633 22.4389 68.8214 23.8865 70.0204L25.5754 71.699C26.2992 72.4184 27.2643 72.6582 27.9881 72.6582C28.9532 72.6582 29.677 72.4184 30.4008 71.699L34.9849 67.1429C39.569 70.5 44.877 72.4184 50.4262 72.4184H69.004C83.2389 72.4184 95.7849 60.6684 95.7849 47.2398V5.27551C96.0262 2.39796 93.6135 0 90.7182 0ZM45.8421 56.5918L57.423 45.0816L62.4897 40.0459C63.696 38.8469 63.696 37.1684 62.4897 35.9694L60.077 33.5714C58.8706 32.3724 57.1817 32.3724 55.9754 33.5714L51.15 38.3673L39.569 49.8775L35.7087 53.7143C34.0198 51.0765 33.0547 48.199 33.0547 45.3214V26.8571C33.0547 17.5051 40.7754 10.0714 49.9436 10.0714H86.1341V47.4796C86.1341 55.3928 78.1722 62.5867 69.2452 62.5867H50.6674C47.7722 62.5867 44.877 61.6275 42.4643 60.1888L45.8421 56.5918Z" fill="white"/>
<path d="M115.085 24.2168H111.707C110.018 24.2168 108.571 25.6556 108.571 27.3341V43.4005C108.571 73.1352 96.7483 83.926 66.107 83.926H52.1134C21.7134 83.926 9.89114 73.1352 9.89114 43.6403V26.8546C9.89114 25.4158 8.6848 24.2168 7.23718 24.2168H2.41178C0.964162 24.2168 -0.242188 25.4158 -0.242188 26.8546V43.6403C-0.242188 78.8903 15.1991 93.9974 52.1134 93.9974H66.107C102.78 93.9974 118.463 79.1301 118.463 43.6403V27.5739C118.463 25.6556 117.015 24.2168 115.085 24.2168Z" fill="white"/>
</svg>
