<svg style="display: none;" aria-hidden="true" xmlns="http://www.w3.org/2000/svg" xmlns:xlink="http://www.w3.org/1999/xlink">
	<symbol viewBox="0 0 17 16" id="btn-arrow-right" xmlns="http://www.w3.org/2000/svg">
		<path d="M16.2696 8.70711C16.6601 8.31658 16.6601 7.68342 16.2696 7.29289L9.90565 0.928932C9.51512 0.538408 8.88196 0.538408 8.49143 0.928932C8.10091 1.31946 8.10091 1.95262 8.49143 2.34315L14.1483 8L8.49143 13.6569C8.10091 14.0474 8.10091 14.6805 8.49143 15.0711C8.88196 15.4616 9.51512 15.4616 9.90565 15.0711L16.2696 8.70711ZM0.5625 9H15.5625V7H0.5625V9Z"/>
	</symbol>
	<symbol viewBox="0 0 14 10" id="check-arrow" xmlns="http://www.w3.org/2000/svg">
		<path fill-rule="evenodd" clip-rule="evenodd" d="M14 0.702843L4.7828 10L0 5.17571L0.696799 4.47287L4.7828 8.59431L9.043 4.29716L13.3032 0L14 0.702843Z"/>
	</symbol>
	<symbol viewBox="0 0 18 20" id="map-pointer" xmlns="http://www.w3.org/2000/svg">
		<path d="M14.8771 14.8771L13.6891 16.052C12.8134 16.9114 11.6774 18.0163 10.2803 19.367C9.4073 20.2111 8.02231 20.211 7.14946 19.3668L3.65532 15.9679C3.21618 15.5368 2.8486 15.1732 2.5525 14.8771C-0.850834 11.4738 -0.850834 5.95584 2.5525 2.5525C5.95584 -0.850834 11.4738 -0.850834 14.8771 2.5525C18.2804 5.95584 18.2804 11.4738 14.8771 14.8771ZM11.2172 8.98975C11.2172 7.60771 10.0968 6.48736 8.71481 6.48736C7.33282 6.48736 6.21244 7.60771 6.21244 8.98975C6.21244 10.3717 7.33282 11.4921 8.71481 11.4921C10.0968 11.4921 11.2172 10.3717 11.2172 8.98975Z"/>
	</symbol>
	<symbol viewBox="0 0 29 32" id="move-pointer" xmlns="http://www.w3.org/2000/svg">
		<path d="M27.9178 16.9001C27.8856 16.1812 27.6735 15.4641 27.4683 14.7704L27.4434 14.6862C27.344 14.3475 27.169 14.0362 26.9318 13.7762C26.6944 13.5161 26.4011 13.3141 26.0743 13.1857C25.0614 12.7567 24.1105 12.8958 23.2461 13.5987C22.8475 12.683 22.1963 12.0975 21.3091 11.8581C20.2691 11.5776 19.4241 11.8011 18.7956 12.5232C17.7296 11.05 16.9415 10.8955 15.2565 11.8329C15.2378 11.5524 15.2198 11.2733 15.2029 10.9957C15.1591 10.3002 15.1153 9.58099 15.0456 8.87865C14.9081 7.48334 14.7516 5.98525 14.5389 4.46746C14.4158 3.65625 14.0925 2.88903 13.5985 2.23617C13.0148 1.44012 12.2085 1.26505 11.3261 1.74283C11.0611 1.88092 10.828 2.07355 10.6418 2.30825C10.4556 2.54294 10.3204 2.81443 10.2453 3.10507C10.1326 3.49636 10.0637 3.89907 10.0398 4.30576C10.0276 4.57071 10.0149 4.83562 10.0019 5.10048C9.93824 6.41926 9.87232 7.78284 9.87348 9.1248C9.87466 10.7563 9.91216 12.355 9.95187 14.0477C9.96732 14.7048 9.98188 15.3672 9.9956 16.0347C9.98495 16.025 9.97461 16.0156 9.96454 16.0062C9.8872 15.9329 9.80618 15.8638 9.72185 15.7989C8.21026 14.6826 6.60252 14.2944 4.94297 14.6444C4.59999 14.7106 4.27853 14.8608 4.00694 15.0817C3.73537 15.3027 3.52205 15.5875 3.38588 15.9112C3.24786 16.2493 3.1947 16.6165 3.23111 16.9803C3.26753 17.344 3.39237 17.6931 3.59464 17.9968C3.85285 18.3744 4.16232 18.714 4.51398 19.0054C5.66655 19.994 6.61764 21.1983 7.31461 22.5515C8.16429 24.211 9.12406 25.959 10.4257 28.2157C10.7355 28.7114 11.1316 29.1471 11.595 29.5016C12.5245 30.238 13.5681 30.8158 14.6839 31.2116C15.713 31.6012 16.8036 31.8006 17.9033 31.8004C19.1978 31.7852 20.4797 31.5437 21.692 31.087C22.5898 30.7491 23.4215 30.2548 24.149 29.6269C25.4667 28.5292 26.3849 27.029 26.9563 25.0406C27.7173 22.3984 28.0421 19.6482 27.9178 16.9001ZM11.3704 17.8272C11.3413 16.075 11.3026 14.2248 11.2577 12.3282C11.2485 11.938 11.2313 11.5416 11.2139 11.1583C11.1837 10.456 11.1522 9.72992 11.1684 9.01802C11.2033 7.48482 11.2927 5.92664 11.3792 4.41973L11.4045 3.98028C11.4386 3.3806 11.5724 2.8031 12.308 2.63024C12.7785 2.93999 13.0697 3.44993 13.1982 4.18709C13.3912 5.2955 13.527 6.41324 13.6052 7.53579C13.7063 9.00186 13.7824 10.4948 13.8561 11.9384C13.8937 12.6763 13.9325 13.4142 13.9728 14.152C13.9983 14.612 14.1843 14.8777 14.5407 14.9645C14.9007 15.0526 15.1973 14.859 15.4216 14.3899L15.5222 14.1786C15.7301 13.741 15.9453 13.2885 16.1895 12.8646C16.3368 12.6088 16.6037 12.3224 17.0431 12.4109C17.2274 12.4464 17.3954 12.541 17.5217 12.6806C17.6481 12.8201 17.7262 12.9971 17.7443 13.1851C17.8182 13.6495 17.8549 14.1192 17.8541 14.5895C17.8565 15.2325 17.9396 15.5476 18.4053 15.5988C18.8619 15.6488 19.02 15.3785 19.2002 14.7521C19.3249 14.2742 19.4988 13.8108 19.7191 13.3693C20.0012 12.8429 20.337 12.7252 20.9584 12.9357C21.5713 13.1434 21.9382 13.5536 22.0463 14.1548C22.1014 14.5071 22.134 14.8625 22.1439 15.2191C22.1483 15.3104 22.1532 15.4014 22.1585 15.4922C22.1779 15.836 22.2563 16.2037 22.6912 16.3238C23.1258 16.4439 23.3624 16.1704 23.552 15.8567C23.6067 15.7664 23.6601 15.6749 23.7136 15.5833C23.8655 15.3061 24.0398 15.0422 24.2348 14.7939C24.5425 14.4247 24.8955 14.2446 25.2283 14.2869C25.5612 14.3292 25.8586 14.5921 26.0656 15.027C26.591 16.1298 26.7817 17.4043 26.6337 18.8155C26.4843 20.2419 26.267 21.7554 25.9505 23.5784C25.7006 24.9065 25.1536 26.1601 24.351 27.2439C23.5689 28.3357 22.4206 29.1057 20.84 29.5976C17.9586 30.4936 15.2667 30.0124 12.6101 28.1253C12.3292 27.9324 12.0839 27.6917 11.8852 27.4139C11.4442 26.7784 11.038 26.1189 10.6686 25.4387C10.065 24.3064 9.47425 23.1329 8.91274 21.9499C8.02264 20.0764 6.88558 18.6012 5.43573 17.4409C5.19 17.2434 4.98299 17.0015 4.82532 16.7275C4.78099 16.6579 4.75197 16.5796 4.74012 16.4978C4.72825 16.416 4.73392 16.3327 4.75664 16.2533C4.79206 16.1633 4.84577 16.0817 4.91432 16.0137C4.98288 15.9459 5.06476 15.8932 5.15474 15.8589C5.4406 15.7298 5.75059 15.6636 6.06394 15.6648C6.23419 15.6654 6.40401 15.6824 6.57104 15.7156C7.92809 15.978 8.78431 16.4776 9.3483 17.3352C9.51289 17.6167 9.63893 17.9193 9.72301 18.2347C9.75 18.3202 9.77719 18.4056 9.80551 18.4896C9.9167 18.8187 10.0902 19.1555 10.5328 19.1586H10.5392C10.9146 19.1586 11.1872 18.9236 11.2874 18.5132C11.3443 18.2891 11.3723 18.0585 11.3709 17.8272H11.3704Z" stroke="none"/>
		<path d="M7.5 3.5H1M1 3.5L3.5 1M1 3.5L3.5 6" fill="none"/>
		<path d="M17 3.5L23.5 3.5M23.5 3.5L21 6M23.5 3.5L21 1" fill="none"/>
	</symbol>
	<symbol viewBox="0 0 22 13" id="nav-arrow-down" xmlns="http://www.w3.org/2000/svg">
		<path d="M21 1L11 11L1 1" stroke-width="2"/>
	</symbol>
	<symbol viewBox="0 0 13 22" id="nav-arrow-left" xmlns="http://www.w3.org/2000/svg">
		<path d="M12 1L2 11L12 21" stroke-width="2"/>
	</symbol>
	<symbol viewBox="0 0 13 22" id="nav-arrow-right" xmlns="http://www.w3.org/2000/svg">
		<path d="M1.5 1L11.5 11L1.5 21" stroke-width="2"/>
	</symbol>
	<symbol viewBox="0 0 22 13" id="nav-arrow-up" xmlns="http://www.w3.org/2000/svg">
		<path d="M1 12L11 2L21 12"  stroke-width="2"/>
	</symbol>
	<symbol viewBox="0 0 19 20" id="pdf-doc" xmlns="http://www.w3.org/2000/svg">
		<path d="M4.56795 11.0021C4.28779 11.0021 4.0607 11.2259 4.0607 11.5021V14.5021C4.0607 14.7782 4.28779 15.0021 4.56795 15.0021C4.84809 15.0021 5.07519 14.7782 5.07519 14.5021V14.0025H5.57975C6.4203 14.0025 7.10165 13.3308 7.10165 12.5023C7.10165 11.6737 6.4203 11.0021 5.57975 11.0021H4.56795ZM5.57975 13.0025H5.07519V12.0021H5.57975C5.86 12.0021 6.0872 12.226 6.0872 12.5023C6.0872 12.7785 5.86001 13.0025 5.57975 13.0025ZM12.1716 11.5014C12.1719 11.2255 12.3989 11.0021 12.6788 11.0021H14.2056C14.4857 11.0021 14.7129 11.2259 14.7129 11.5021C14.7129 11.7782 14.4857 12.0021 14.2056 12.0021H13.1854L13.1841 13.0038H14.2056C14.4857 13.0038 14.7129 13.2277 14.7129 13.5038C14.7129 13.7799 14.4857 14.0038 14.2056 14.0038H13.1848L13.1861 14.5008C13.1868 14.7769 12.9602 15.0014 12.68 15.0021C12.3999 15.0028 12.1723 14.7795 12.1716 14.5033L12.1689 13.5051V13.5032L12.1716 11.5014ZM8.62319 11.0021H9.128C10.2485 11.0021 11.157 11.8975 11.157 13.0021C11.1569 14.1067 10.2485 15.0021 9.128 15.0021H8.62319C8.34309 15.0021 8.11594 14.7782 8.11594 14.5021V11.5021C8.11594 11.2259 8.34309 11.0021 8.62319 11.0021ZM9.13043 14.0021C9.68962 14.0008 10.1424 13.5535 10.1425 13.0021C10.1425 12.4506 9.68962 12.0034 9.13043 12.0021V14.0021ZM9.13043 6V0H3.04348C1.9229 0 1.01449 0.89543 1.01449 2V8.6684C0.414684 8.9493 0 9.5519 0 10.25V15.75C0 16.4481 0.414684 17.0507 1.01449 17.3316V18C1.01449 19.1046 1.9229 20 3.04348 20H15.2174C16.338 20 17.2464 19.1046 17.2464 18V17.3316C17.8461 17.0507 18.2609 16.4481 18.2609 15.75V10.25C18.2609 9.5519 17.8461 8.9493 17.2464 8.6684V8H11.1594C10.0388 8 9.13043 7.10457 9.13043 6ZM1.77536 10H16.4855C16.6256 10 16.7391 10.1119 16.7391 10.25V15.75C16.7391 15.8881 16.6256 16 16.4855 16H1.77536C1.63529 16 1.52174 15.8881 1.52174 15.75V10.25C1.52174 10.1119 1.63529 10 1.77536 10ZM10.6522 6V0.5L16.7391 6.5H11.1594C10.8793 6.5 10.6522 6.27614 10.6522 6Z"/>
	</symbol>
</svg>